  0
SECTION
  2
HEADER
  9
$ACADVER
  1
AC1014
  9
$ACADMAINTVER
 70
     9
  9
$DWGCODEPAGE
  3
ANSI_1252
  9
$INSBASE
 10
0.0
 20
0.0
 30
0.0
  9
$EXTMIN
 10
1.000000000000000E+20
 20
1.000000000000000E+20
 30
1.000000000000000E+20
  9
$EXTMAX
 10
-1.000000000000000E+20
 20
-1.000000000000000E+20
 30
-1.000000000000000E+20
  9
$LIMMIN
 10
0.0
 20
0.0
  9
$LIMMAX
 10
12.0
 20
9.0
  9
$ORTHOMODE
 70
     0
  9
$REGENMODE
 70
     1
  9
$FILLMODE
 70
     1
  9
$QTEXTMODE
 70
     0
  9
$MIRRTEXT
 70
     1
  9
$DRAGMODE
 70
     2
  9
$LTSCALE
 40
0.5
  9
$OSMODE
 70
    23
  9
$ATTMODE
 70
     1
  9
$TEXTSIZE
 40
0.12
  9
$TRACEWID
 40
0.05
  9
$TEXTSTYLE
  7
ONSHAPE-STANDARD
  9
$CLAYER
  8
0
  9
$CELTYPE
  6
BYLAYER
  9
$CECOLOR
 62
   256
  9
$CELTSCALE
 40
1.0
  9
$DELOBJ
 70
     1
  9
$DISPSILH
 70
     0
  9
$DIMSCALE
 40
1.0
  9
$DIMASZ
 40
0.18
  9
$DIMEXO
 40
0.0625
  9
$DIMDLI
 40
0.38
  9
$DIMRND
 40
0.0
  9
$DIMDLE
 40
0.0
  9
$DIMEXE
 40
0.08
  9
$DIMTP
 40
0.0
  9
$DIMTM
 40
0.0
  9
$DIMTXT
 40
0.12
  9
$DIMCEN
 40
0.09
  9
$DIMTSZ
 40
0.0
  9
$DIMTOL
 70
     0
  9
$DIMLIM
 70
     0
  9
$DIMTIH
 70
     1
  9
$DIMTOH
 70
     1
  9
$DIMSE1
 70
     0
  9
$DIMSE2
 70
     0
  9
$DIMTAD
 70
     0
  9
$DIMZIN
 70
     7
  9
$DIMBLK
  1

  9
$DIMASO
 70
     1
  9
$DIMSHO
 70
     1
  9
$DIMPOST
  1

  9
$DIMAPOST
  1

  9
$DIMALT
 70
     0
  9
$DIMALTD
 70
     2
  9
$DIMALTF
 40
25.4
  9
$DIMLFAC
 40
1.0
  9
$DIMTOFL
 70
     0
  9
$DIMTVP
 40
0.0
  9
$DIMTIX
 70
     0
  9
$DIMSOXD
 70
     0
  9
$DIMSAH
 70
     0
  9
$DIMBLK1
  1

  9
$DIMBLK2
  1

  9
$DIMSTYLE
  2
ONSHAPE-STANDARD
  9
$DIMCLRD
 70
     0
  9
$DIMCLRE
 70
     0
  9
$DIMCLRT
 70
     0
  9
$DIMTFAC
 40
1.0
  9
$DIMGAP
 40
0.09
  9
$DIMJUST
 70
     0
  9
$DIMSD1
 70
     0
  9
$DIMSD2
 70
     0
  9
$DIMTOLJ
 70
     1
  9
$DIMTZIN
 70
     7
  9
$DIMALTZ
 70
     0
  9
$DIMALTTZ
 70
     0
  9
$DIMFIT
 70
     3
  9
$DIMUPT
 70
     1
  9
$DIMUNIT
 70
     2
  9
$DIMDEC
 70
     3
  9
$DIMTDEC
 70
     3
  9
$DIMALTU
 70
     2
  9
$DIMALTTD
 70
     2
  9
$DIMTXSTY
  7
ONSHAPE-STANDARD-DIMENSION
  9
$DIMAUNIT
 70
     0
  9
$LUNITS
 70
     2
  9
$LUPREC
 70
     4
  9
$SKETCHINC
 40
0.1
  9
$FILLETRAD
 40
0.5
  9
$AUNITS
 70
     0
  9
$AUPREC
 70
     0
  9
$MENU
  1
.
  9
$ELEVATION
 40
0.0
  9
$PELEVATION
 40
0.0
  9
$THICKNESS
 40
0.0
  9
$LIMCHECK
 70
     0
  9
$CHAMFERA
 40
0.0
  9
$CHAMFERB
 40
0.0
  9
$CHAMFERC
 40
0.0
  9
$CHAMFERD
 40
0.0
  9
$SKPOLY
 70
     0
  9
$TDCREATE
 40
2457799.791863426
  9
$TDUPDATE
 40
2457799.791863426
  9
$TDINDWG
 40
0.0
  9
$TDUSRTIMER
 40
0.0
  9
$USRTIMER
 70
     1
  9
$ANGBASE
 50
0.0
  9
$ANGDIR
 70
     0
  9
$PDMODE
 70
     0
  9
$PDSIZE
 40
0.0
  9
$PLINEWID
 40
0.0
  9
$COORDS
 70
     1
  9
$SPLFRAME
 70
     0
  9
$SPLINETYPE
 70
     6
  9
$SPLINESEGS
 70
     8
  9
$ATTDIA
 70
     0
  9
$ATTREQ
 70
     1
  9
$HANDLING
 70
     1
  9
$HANDSEED
  5
351
  9
$SURFTAB1
 70
     6
  9
$SURFTAB2
 70
     6
  9
$SURFTYPE
 70
     6
  9
$SURFU
 70
     6
  9
$SURFV
 70
     6
  9
$UCSNAME
  2

  9
$UCSORG
 10
0.0
 20
0.0
 30
0.0
  9
$UCSXDIR
 10
1.0
 20
0.0
 30
0.0
  9
$UCSYDIR
 10
0.0
 20
1.0
 30
0.0
  9
$PUCSNAME
  2

  9
$PUCSORG
 10
0.0
 20
0.0
 30
0.0
  9
$PUCSXDIR
 10
1.0
 20
0.0
 30
0.0
  9
$PUCSYDIR
 10
0.0
 20
1.0
 30
0.0
  9
$USERI1
 70
     0
  9
$USERI2
 70
     0
  9
$USERI3
 70
     0
  9
$USERI4
 70
     0
  9
$USERI5
 70
     0
  9
$USERR1
 40
0.0
  9
$USERR2
 40
0.0
  9
$USERR3
 40
0.0
  9
$USERR4
 40
0.0
  9
$USERR5
 40
0.0
  9
$WORLDVIEW
 70
     1
  9
$SHADEDGE
 70
     3
  9
$SHADEDIF
 70
    70
  9
$TILEMODE
 70
     1
  9
$MAXACTVP
 70
    64
  9
$PINSBASE
 10
0.0
 20
0.0
 30
0.0
  9
$PLIMCHECK
 70
     0
  9
$PEXTMIN
 10
1.000000000000000E+20
 20
1.000000000000000E+20
 30
1.000000000000000E+20
  9
$PEXTMAX
 10
-1.000000000000000E+20
 20
-1.000000000000000E+20
 30
-1.000000000000000E+20
  9
$PLIMMIN
 10
0.0
 20
0.0
  9
$PLIMMAX
 10
12.0
 20
9.0
  9
$UNITMODE
 70
     0
  9
$VISRETAIN
 70
     1
  9
$PLINEGEN
 70
     0
  9
$PSLTSCALE
 70
     1
  9
$TREEDEPTH
 70
  3020
  9
$PICKSTYLE
 70
     1
  9
$CMLSTYLE
  2
STANDARD
  9
$CMLJUST
 70
     0
  9
$CMLSCALE
 40
1.0
  9
$PROXYGRAPHICS
 70
     1
  9
$MEASUREMENT
 70
     0
  0
ENDSEC
  0
SECTION
  2
CLASSES
  0
CLASS
  1
ACDBDICTIONARYWDFLT
  2
AcDbDictionaryWithDefault
  3
ObjectDBX Classes
 90
        0
280
     0
281
     0
  0
CLASS
  1
VISUALSTYLE
  2
AcDbVisualStyle
  3
ObjectDBX Classes
 90
     4095
280
     0
281
     0
  0
CLASS
  1
MATERIAL
  2
AcDbMaterial
  3
ObjectDBX Classes
 90
     1153
280
     0
281
     0
  0
CLASS
  1
SCALE
  2
AcDbScale
  3
ObjectDBX Classes
 90
     1153
280
     0
281
     0
  0
CLASS
  1
SUN
  2
AcDbSun
  3
SCENEOE
 90
     1153
280
     0
281
     0
  0
CLASS
  1
TABLESTYLE
  2
AcDbTableStyle
  3
ObjectDBX Classes
 90
     4095
280
     0
281
     0
  0
CLASS
  1
DICTIONARYVAR
  2
AcDbDictionaryVar
  3
ObjectDBX Classes
 90
        0
280
     0
281
     0
  0
CLASS
  1
XRECORD
  2
AcDbXrecord
  3
ObjectDBX Classes
 90
        0
280
     0
281
     0
  0
CLASS
  1
LWPOLYLINE
  2
AcDbPolyline
  3
ObjectDBX Classes
 90
        0
280
     0
281
     1
  0
CLASS
  1
HATCH
  2
AcDbHatch
  3
ObjectDBX Classes
 90
        0
280
     0
281
     1
  0
CLASS
  1
ACDBPLACEHOLDER
  2
AcDbPlaceHolder
  3
ObjectDBX Classes
 90
        0
280
     0
281
     0
  0
CLASS
  1
LAYOUT
  2
AcDbLayout
  3
ObjectDBX Classes
 90
        0
280
     0
281
     0
  0
ENDSEC
  0
SECTION
  2
TABLES
  0
TABLE
  2
VPORT
  5
8
330
0
100
AcDbSymbolTable
 70
     1
  0
VPORT
  5
29
330
8
100
AcDbSymbolTableRecord
100
AcDbViewportTableRecord
  2
*ACTIVE
 70
     0
 10
0.0
 20
0.0
 11
1.0
 21
1.0
 12
4.762669781544203
 22
4.023752071302491
 13
0.0
 23
0.0
 14
0.5
 24
0.5
 15
0.5
 25
0.5
 16
0.0
 26
0.0
 36
1.0
 17
0.0
 27
0.0
 37
0.0
 40
6.361431935445691
 41
1.491228146526658
 42
50.0
 43
0.0
 44
0.0
 50
0.0
 51
0.0
 71
     0
 72
   100
 73
     1
 74
     3
 75
     0
 76
     0
 77
     0
 78
     0
  0
ENDTAB
  0
TABLE
  2
LTYPE
  5
5
330
0
100
AcDbSymbolTable
 70
     1
  0
LTYPE
  5
14
330
5
100
AcDbSymbolTableRecord
100
AcDbLinetypeTableRecord
  2
BYBLOCK
 70
     0
  3

 72
    65
 73
     0
 40
0.0
  0
LTYPE
  5
15
330
5
100
AcDbSymbolTableRecord
100
AcDbLinetypeTableRecord
  2
BYLAYER
 70
     0
  3

 72
    65
 73
     0
 40
0.0
  0
LTYPE
  5
16
330
5
100
AcDbSymbolTableRecord
100
AcDbLinetypeTableRecord
  2
CONTINUOUS
 70
     0
  3
Solid line
 72
    65
 73
     0
 40
0.0
  0
ENDTAB
  0
TABLE
  2
LAYER
  5
2
330
0
100
AcDbSymbolTable
 70
     3
  0
LAYER
  5
10
330
2
100
AcDbSymbolTableRecord
100
AcDbLayerTableRecord
  2
0
 70
     0
 62
     7
  6
CONTINUOUS
  0
LAYER
  5
72
330
2
100
AcDbSymbolTableRecord
100
AcDbLayerTableRecord
  2
TEXT
 70
     0
 62
     7
  6
CONTINUOUS
  0
LAYER
  5
79
330
2
100
AcDbSymbolTableRecord
100
AcDbLayerTableRecord
  2
VISIBLE
 70
     0
 62
     7
  6
CONTINUOUS
  0
ENDTAB
  0
TABLE
  2
STYLE
  5
3
330
0
100
AcDbSymbolTable
 70
     3
  0
STYLE
  5
11
330
3
100
AcDbSymbolTableRecord
100
AcDbTextStyleTableRecord
  2
STANDARD
 70
     0
 40
0.0
 41
1.0
 50
0.0
 71
     0
 42
0.12
  3
txt
  4

  0
STYLE
  5
6E
330
3
100
AcDbSymbolTableRecord
100
AcDbTextStyleTableRecord
  2
ONSHAPE-STANDARD
 70
     0
 40
0.0
 41
1.0
 50
0.0
 71
     0
 42
0.12
  3
NotoSans-Regular.ttf
  4

1001
ACAD
1000
Noto Sans
1071
        0
  0
STYLE
  5
70
330
3
100
AcDbSymbolTableRecord
100
AcDbTextStyleTableRecord
  2
ONSHAPE-STANDARD-DIMENSION
 70
     0
 40
0.0
 41
1.0
 50
0.0
 71
     0
 42
0.12
  3

  4

1001
ACAD
1000
Noto Sans
1071
        0
  0
ENDTAB
  0
TABLE
  2
VIEW
  5
6
330
0
100
AcDbSymbolTable
 70
     0
  0
ENDTAB
  0
TABLE
  2
UCS
  5
7
330
0
100
AcDbSymbolTable
 70
     0
  0
ENDTAB
  0
TABLE
  2
APPID
  5
9
330
0
100
AcDbSymbolTable
 70
     1
  0
APPID
  5
12
330
9
100
AcDbSymbolTableRecord
100
AcDbRegAppTableRecord
  2
ACAD
 70
     0
  0
ENDTAB
  0
TABLE
  2
DIMSTYLE
  5
A
330
0
100
AcDbSymbolTable
 70
     2
  0
DIMSTYLE
105
27
330
A
100
AcDbSymbolTableRecord
100
AcDbDimStyleTableRecord
  2
STANDARD
 70
     0
  3

  4

  5

  6

  7

 40
1.0
 41
0.18
 42
0.0625
 43
0.38
 44
0.18
 45
0.0
 46
0.0
 47
0.0
 48
0.0
140
0.18
141
0.09
142
0.0
143
25.4
144
1.0
145
0.0
146
1.0
147
0.09
 71
     0
 72
     0
 73
     1
 74
     1
 75
     0
 76
     0
 77
     0
 78
     0
170
     0
171
     2
172
     0
173
     0
174
     0
175
     0
176
     0
177
     0
178
     0
270
     2
271
     4
272
     4
273
     2
274
     2
340
11
275
     0
280
     0
281
     0
282
     0
283
     1
284
     0
285
     0
286
     0
287
     3
288
     0
  0
DIMSTYLE
105
6F
330
A
100
AcDbSymbolTableRecord
100
AcDbDimStyleTableRecord
  2
ONSHAPE-STANDARD
 70
     0
  3

  4

  5

  6

  7

 40
1.0
 41
0.18
 42
0.0625
 43
0.38
 44
0.08
 45
0.0
 46
0.0
 47
0.0
 48
0.0
140
0.12
141
0.09
142
0.0
143
25.4
144
1.0
145
0.0
146
1.0
147
0.09
 71
     0
 72
     0
 73
     1
 74
     1
 75
     0
 76
     0
 77
     0
 78
     7
170
     0
171
     2
172
     0
173
     0
174
     0
175
     0
176
     0
177
     0
178
     0
179
     1
270
     2
271
     3
272
     3
273
     2
274
     2
340
70
275
     0
280
     0
281
     0
282
     0
283
     1
284
     7
285
     0
286
     0
287
     3
288
     1
  0
ENDTAB
  0
TABLE
  2
BLOCK_RECORD
  5
1
330
0
100
AcDbSymbolTable
 70
     1
  0
BLOCK_RECORD
  5
1F
330
1
100
AcDbSymbolTableRecord
100
AcDbBlockTableRecord
  2
*MODEL_SPACE
  0
BLOCK_RECORD
  5
1B
330
1
100
AcDbSymbolTableRecord
100
AcDbBlockTableRecord
  2
*PAPER_SPACE
  0
ENDTAB
  0
ENDSEC
  0
SECTION
  2
BLOCKS
  0
BLOCK
  5
20
330
1F
100
AcDbEntity
  8
0
100
AcDbBlockBegin
  2
*MODEL_SPACE
 70
     0
 10
0.0
 20
0.0
 30
0.0
  3
*MODEL_SPACE
  1

  0
ENDBLK
  5
21
330
1F
100
AcDbEntity
  8
0
100
AcDbBlockEnd
  0
BLOCK
  5
1C
330
1B
100
AcDbEntity
 67
     1
  8
0
100
AcDbBlockBegin
  2
*PAPER_SPACE
 70
     0
 10
0.0
 20
0.0
 30
0.0
  3
*PAPER_SPACE
  1

  0
ENDBLK
  5
1D
330
1B
100
AcDbEntity
 67
     1
  8
0
100
AcDbBlockEnd
  0
ENDSEC
  0
SECTION
  2
ENTITIES
  0
MTEXT
  5
71
330
1F
100
AcDbEntity
  8
TEXT
 60
     1
100
AcDbMText
 10
1.914114387123204
 20
4.26240001769154
 30
0.0
 40
0.12
 41
0.0
 71
     2
 72
     1
  1

  7
ONSHAPE-STANDARD
1001
ACAD
1000
ACAD_MTEXT_DEFINED_HEIGHT_BEGIN
1070
    46
1040
0.12
1000
ACAD_MTEXT_DEFINED_HEIGHT_END
  0
MTEXT
  5
75
330
1F
100
AcDbEntity
  8
TEXT
 60
     1
100
AcDbMText
 10
6.809372266380054
 20
4.288601059266066
 30
0.0
 40
0.12
 41
0.0
 71
     2
 72
     1
  1

  7
ONSHAPE-STANDARD
1001
ACAD
1000
ACAD_MTEXT_DEFINED_HEIGHT_BEGIN
1070
    46
1040
0.12
1000
ACAD_MTEXT_DEFINED_HEIGHT_END
  0
MTEXT
  5
76
330
1F
100
AcDbEntity
  8
TEXT
 60
     1
100
AcDbMText
 10
8.287839563088406
 20
0.7533404795609071
 30
0.0
 40
0.12
 41
0.0
 71
     2
 72
     1
  1

  7
ONSHAPE-STANDARD
1001
ACAD
1000
ACAD_MTEXT_DEFINED_HEIGHT_BEGIN
1070
    46
1040
0.12
1000
ACAD_MTEXT_DEFINED_HEIGHT_END
  0
MTEXT
  5
77
330
1F
100
AcDbEntity
  8
TEXT
 60
     1
100
AcDbMText
 10
1.2375
 20
0.7329030833389174
 30
0.0
 40
0.12
 41
0.0
 71
     2
 72
     1
  1

  7
ONSHAPE-STANDARD
1001
ACAD
1000
ACAD_MTEXT_DEFINED_HEIGHT_BEGIN
1070
    46
1040
0.12
1000
ACAD_MTEXT_DEFINED_HEIGHT_END
  0
MTEXT
  5
78
330
1F
100
AcDbEntity
  8
TEXT
 60
     1
100
AcDbMText
 10
4.704804403550939
 20
0.7079243637458268
 30
0.0
 40
0.12
 41
0.0
 71
     2
 72
     1
  1

  7
ONSHAPE-STANDARD
1001
ACAD
1000
ACAD_MTEXT_DEFINED_HEIGHT_BEGIN
1070
    46
1040
0.12
1000
ACAD_MTEXT_DEFINED_HEIGHT_END
  0
LINE
  5
7A
330
1F
100
AcDbEntity
  8
VISIBLE
100
AcDbLine
 10
3.289114387123203
 20
6.75840001769154
 30
0.0
 11
3.164114387123203
 21
6.75840001769154
 31
0.0
  0
LINE
  5
7B
330
1F
100
AcDbEntity
  8
VISIBLE
100
AcDbLine
 10
3.164114387123203
 20
6.63340001769154
 30
0.0
 11
3.164114387123203
 21
6.75840001769154
 31
0.0
  0
LINE
  5
7C
330
1F
100
AcDbEntity
  8
VISIBLE
100
AcDbLine
 10
3.289114387123203
 20
6.63340001769154
 30
0.0
 11
3.164114387123203
 21
6.63340001769154
 31
0.0
  0
LINE
  5
7D
330
1F
100
AcDbEntity
  8
VISIBLE
100
AcDbLine
 10
3.289114387123203
 20
6.63340001769154
 30
0.0
 11
3.289114387123203
 21
6.50840001769154
 31
0.0
  0
LINE
  5
7E
330
1F
100
AcDbEntity
  8
VISIBLE
100
AcDbLine
 10
3.289114387123203
 20
6.50840001769154
 30
0.0
 11
3.164114387123203
 21
6.50840001769154
 31
0.0
  0
LINE
  5
7F
330
1F
100
AcDbEntity
  8
VISIBLE
100
AcDbLine
 10
3.164114387123203
 20
6.38340001769154
 30
0.0
 11
3.164114387123203
 21
6.50840001769154
 31
0.0
  0
LINE
  5
80
330
1F
100
AcDbEntity
  8
VISIBLE
100
AcDbLine
 10
3.289114387123203
 20
6.38340001769154
 30
0.0
 11
3.164114387123203
 21
6.38340001769154
 31
0.0
  0
LINE
  5
81
330
1F
100
AcDbEntity
  8
VISIBLE
100
AcDbLine
 10
3.289114387123203
 20
6.38340001769154
 30
0.0
 11
3.289114387123203
 21
6.25840001769154
 31
0.0
  0
LINE
  5
82
330
1F
100
AcDbEntity
  8
VISIBLE
100
AcDbLine
 10
3.289114387123203
 20
6.25840001769154
 30
0.0
 11
3.164114387123203
 21
6.25840001769154
 31
0.0
  0
LINE
  5
83
330
1F
100
AcDbEntity
  8
VISIBLE
100
AcDbLine
 10
3.164114387123203
 20
6.13340001769154
 30
0.0
 11
3.164114387123203
 21
6.25840001769154
 31
0.0
  0
LINE
  5
84
330
1F
100
AcDbEntity
  8
VISIBLE
100
AcDbLine
 10
3.164114387123203
 20
6.00840001769154
 30
0.0
 11
3.289114387123203
 21
6.00840001769154
 31
0.0
  0
LINE
  5
85
330
1F
100
AcDbEntity
  8
VISIBLE
100
AcDbLine
 10
3.164114387123203
 20
5.75840001769154
 30
0.0
 11
3.164114387123203
 21
6.00840001769154
 31
0.0
  0
LINE
  5
86
330
1F
100
AcDbEntity
  8
VISIBLE
100
AcDbLine
 10
3.164114387123203
 20
5.75840001769154
 30
0.0
 11
3.289114387123203
 21
5.75840001769154
 31
0.0
  0
LINE
  5
87
330
1F
100
AcDbEntity
  8
VISIBLE
100
AcDbLine
 10
3.289114387123203
 20
5.75840001769154
 30
0.0
 11
3.289114387123203
 21
5.63340001769154
 31
0.0
  0
LINE
  5
88
330
1F
100
AcDbEntity
  8
VISIBLE
100
AcDbLine
 10
3.289114387123203
 20
5.63340001769154
 30
0.0
 11
3.164114387123203
 21
5.63340001769154
 31
0.0
  0
LINE
  5
89
330
1F
100
AcDbEntity
  8
VISIBLE
100
AcDbLine
 10
3.164114387123203
 20
5.50840001769154
 30
0.0
 11
3.164114387123203
 21
5.63340001769154
 31
0.0
  0
LINE
  5
8A
330
1F
100
AcDbEntity
  8
VISIBLE
100
AcDbLine
 10
3.289114387123203
 20
5.50840001769154
 30
0.0
 11
3.164114387123203
 21
5.50840001769154
 31
0.0
  0
LINE
  5
8B
330
1F
100
AcDbEntity
  8
VISIBLE
100
AcDbLine
 10
3.289114387123203
 20
5.50840001769154
 30
0.0
 11
3.289114387123203
 21
5.38340001769154
 31
0.0
  0
LINE
  5
8C
330
1F
100
AcDbEntity
  8
VISIBLE
100
AcDbLine
 10
3.289114387123203
 20
5.38340001769154
 30
0.0
 11
3.164114387123203
 21
5.38340001769154
 31
0.0
  0
LINE
  5
8D
330
1F
100
AcDbEntity
  8
VISIBLE
100
AcDbLine
 10
3.164114387123203
 20
5.25840001769154
 30
0.0
 11
3.164114387123203
 21
5.38340001769154
 31
0.0
  0
LINE
  5
8E
330
1F
100
AcDbEntity
  8
VISIBLE
100
AcDbLine
 10
3.289114387123203
 20
5.25840001769154
 30
0.0
 11
3.164114387123203
 21
5.25840001769154
 31
0.0
  0
LINE
  5
8F
330
1F
100
AcDbEntity
  8
VISIBLE
100
AcDbLine
 10
3.289114387123203
 20
5.25840001769154
 30
0.0
 11
3.289114387123203
 21
5.13340001769154
 31
0.0
  0
LINE
  5
90
330
1F
100
AcDbEntity
  8
VISIBLE
100
AcDbLine
 10
3.289114387123203
 20
5.13340001769154
 30
0.0
 11
3.164114387123203
 21
5.13340001769154
 31
0.0
  0
LINE
  5
91
330
1F
100
AcDbEntity
  8
VISIBLE
100
AcDbLine
 10
3.164114387123203
 20
5.00840001769154
 30
0.0
 11
3.164114387123203
 21
5.13340001769154
 31
0.0
  0
LINE
  5
92
330
1F
100
AcDbEntity
  8
VISIBLE
100
AcDbLine
 10
3.289114387123203
 20
5.00840001769154
 30
0.0
 11
3.164114387123203
 21
5.00840001769154
 31
0.0
  0
LINE
  5
93
330
1F
100
AcDbEntity
  8
VISIBLE
100
AcDbLine
 10
3.289114387123203
 20
5.00840001769154
 30
0.0
 11
3.289114387123203
 21
4.650900017691539
 31
0.0
  0
LINE
  5
94
330
1F
100
AcDbEntity
  8
VISIBLE
100
AcDbLine
 10
3.289114387123203
 20
4.650900017691539
 30
0.0
 11
3.599114387123204
 21
4.650900017691539
 31
0.0
  0
LINE
  5
95
330
1F
100
AcDbEntity
  8
VISIBLE
100
AcDbLine
 10
3.599114387123204
 20
4.49090001769154
 30
0.0
 11
3.599114387123204
 21
4.650900017691539
 31
0.0
  0
LINE
  5
96
330
1F
100
AcDbEntity
  8
VISIBLE
100
AcDbLine
 10
2.474114387123204
 20
4.49090001769154
 30
0.0
 11
3.599114387123204
 21
4.49090001769154
 31
0.0
  0
LINE
  5
97
330
1F
100
AcDbEntity
  8
VISIBLE
100
AcDbLine
 10
2.474114387123204
 20
4.649022498860264
 30
0.0
 11
2.474114387123204
 21
4.49090001769154
 31
0.0
  0
LINE
  5
98
330
1F
100
AcDbEntity
  8
VISIBLE
100
AcDbLine
 10
2.664114387123204
 20
4.649022498860264
 30
0.0
 11
2.474114387123204
 21
4.649022498860264
 31
0.0
  0
LINE
  5
99
330
1F
100
AcDbEntity
  8
VISIBLE
100
AcDbLine
 10
2.664114387123204
 20
4.800900017691539
 30
0.0
 11
2.664114387123204
 21
4.649022498860264
 31
0.0
  0
ARC
  5
9A
330
1F
100
AcDbEntity
  8
VISIBLE
100
AcDbCircle
 10
1.914114387123204
 20
9.383243366616789
 30
0.0000000000000003
 40
4.64331461
100
AcDbArc
 50
260.7047186841786
 51
279.2952813158214
  0
LINE
  5
9B
330
1F
100
AcDbEntity
  8
VISIBLE
100
AcDbLine
 10
1.164114387123204
 20
4.650900017691539
 30
0.0
 11
1.164114387123204
 21
4.800900017691539
 31
0.0
  0
LINE
  5
9C
330
1F
100
AcDbEntity
  8
VISIBLE
100
AcDbLine
 10
1.354114387123204
 20
4.650900017691539
 30
0.0
 11
1.164114387123204
 21
4.650900017691539
 31
0.0
  0
LINE
  5
9D
330
1F
100
AcDbEntity
  8
VISIBLE
100
AcDbLine
 10
1.354114387123204
 20
4.49090001769154
 30
0.0
 11
1.354114387123204
 21
4.650900017691539
 31
0.0
  0
LINE
  5
9E
330
1F
100
AcDbEntity
  8
VISIBLE
100
AcDbLine
 10
0.2291143871232042
 20
4.49090001769154
 30
0.0
 11
1.354114387123204
 21
4.49090001769154
 31
0.0
  0
LINE
  5
9F
330
1F
100
AcDbEntity
  8
VISIBLE
100
AcDbLine
 10
0.2291143871232042
 20
4.49090001769154
 30
0.0
 11
0.2291143871232042
 21
4.650900017691539
 31
0.0
  0
LINE
  5
A0
330
1F
100
AcDbEntity
  8
VISIBLE
100
AcDbLine
 10
0.539114387123204
 20
4.650900017691539
 30
0.0
 11
0.2291143871232042
 21
4.650900017691539
 31
0.0
  0
LINE
  5
A1
330
1F
100
AcDbEntity
  8
VISIBLE
100
AcDbLine
 10
0.539114387123204
 20
5.00840001769154
 30
0.0
 11
0.539114387123204
 21
4.650900017691539
 31
0.0
  0
LINE
  5
A2
330
1F
100
AcDbEntity
  8
VISIBLE
100
AcDbLine
 10
0.539114387123204
 20
5.00840001769154
 30
0.0
 11
0.664114387123204
 21
5.00840001769154
 31
0.0
  0
LINE
  5
A3
330
1F
100
AcDbEntity
  8
VISIBLE
100
AcDbLine
 10
0.664114387123204
 20
5.00840001769154
 30
0.0
 11
0.664114387123204
 21
5.13340001769154
 31
0.0
  0
LINE
  5
A4
330
1F
100
AcDbEntity
  8
VISIBLE
100
AcDbLine
 10
0.539114387123204
 20
5.13340001769154
 30
0.0
 11
0.664114387123204
 21
5.13340001769154
 31
0.0
  0
LINE
  5
A5
330
1F
100
AcDbEntity
  8
VISIBLE
100
AcDbLine
 10
0.539114387123204
 20
5.25840001769154
 30
0.0
 11
0.539114387123204
 21
5.13340001769154
 31
0.0
  0
LINE
  5
A6
330
1F
100
AcDbEntity
  8
VISIBLE
100
AcDbLine
 10
0.539114387123204
 20
5.25840001769154
 30
0.0
 11
0.664114387123204
 21
5.25840001769154
 31
0.0
  0
LINE
  5
A7
330
1F
100
AcDbEntity
  8
VISIBLE
100
AcDbLine
 10
0.664114387123204
 20
5.25840001769154
 30
0.0
 11
0.664114387123204
 21
5.38340001769154
 31
0.0
  0
LINE
  5
A8
330
1F
100
AcDbEntity
  8
VISIBLE
100
AcDbLine
 10
0.539114387123204
 20
5.38340001769154
 30
0.0
 11
0.664114387123204
 21
5.38340001769154
 31
0.0
  0
LINE
  5
A9
330
1F
100
AcDbEntity
  8
VISIBLE
100
AcDbLine
 10
0.539114387123204
 20
5.50840001769154
 30
0.0
 11
0.539114387123204
 21
5.38340001769154
 31
0.0
  0
LINE
  5
AA
330
1F
100
AcDbEntity
  8
VISIBLE
100
AcDbLine
 10
0.539114387123204
 20
5.50840001769154
 30
0.0
 11
0.664114387123204
 21
5.50840001769154
 31
0.0
  0
LINE
  5
AB
330
1F
100
AcDbEntity
  8
VISIBLE
100
AcDbLine
 10
0.664114387123204
 20
5.50840001769154
 30
0.0
 11
0.664114387123204
 21
5.63340001769154
 31
0.0
  0
LINE
  5
AC
330
1F
100
AcDbEntity
  8
VISIBLE
100
AcDbLine
 10
0.539114387123204
 20
5.63340001769154
 30
0.0
 11
0.664114387123204
 21
5.63340001769154
 31
0.0
  0
LINE
  5
AD
330
1F
100
AcDbEntity
  8
VISIBLE
100
AcDbLine
 10
0.539114387123204
 20
5.75840001769154
 30
0.0
 11
0.539114387123204
 21
5.63340001769154
 31
0.0
  0
LINE
  5
AE
330
1F
100
AcDbEntity
  8
VISIBLE
100
AcDbLine
 10
0.664114387123204
 20
5.75840001769154
 30
0.0
 11
0.539114387123204
 21
5.75840001769154
 31
0.0
  0
LINE
  5
AF
330
1F
100
AcDbEntity
  8
VISIBLE
100
AcDbLine
 10
0.664114387123204
 20
5.75840001769154
 30
0.0
 11
0.664114387123204
 21
6.00840001769154
 31
0.0
  0
LINE
  5
B0
330
1F
100
AcDbEntity
  8
VISIBLE
100
AcDbLine
 10
0.664114387123204
 20
6.00840001769154
 30
0.0
 11
0.539114387123204
 21
6.00840001769154
 31
0.0
  0
LINE
  5
B1
330
1F
100
AcDbEntity
  8
VISIBLE
100
AcDbLine
 10
0.664114387123204
 20
6.25840001769154
 30
0.0
 11
0.664114387123204
 21
6.13340001769154
 31
0.0
  0
LINE
  5
B2
330
1F
100
AcDbEntity
  8
VISIBLE
100
AcDbLine
 10
0.539114387123204
 20
6.25840001769154
 30
0.0
 11
0.664114387123204
 21
6.25840001769154
 31
0.0
  0
LINE
  5
B3
330
1F
100
AcDbEntity
  8
VISIBLE
100
AcDbLine
 10
0.539114387123204
 20
6.38340001769154
 30
0.0
 11
0.539114387123204
 21
6.25840001769154
 31
0.0
  0
LINE
  5
B4
330
1F
100
AcDbEntity
  8
VISIBLE
100
AcDbLine
 10
0.539114387123204
 20
6.38340001769154
 30
0.0
 11
0.664114387123204
 21
6.38340001769154
 31
0.0
  0
LINE
  5
B5
330
1F
100
AcDbEntity
  8
VISIBLE
100
AcDbLine
 10
0.664114387123204
 20
6.50840001769154
 30
0.0
 11
0.664114387123204
 21
6.38340001769154
 31
0.0
  0
LINE
  5
B6
330
1F
100
AcDbEntity
  8
VISIBLE
100
AcDbLine
 10
0.539114387123204
 20
6.50840001769154
 30
0.0
 11
0.664114387123204
 21
6.50840001769154
 31
0.0
  0
LINE
  5
B7
330
1F
100
AcDbEntity
  8
VISIBLE
100
AcDbLine
 10
0.539114387123204
 20
6.63340001769154
 30
0.0
 11
0.539114387123204
 21
6.50840001769154
 31
0.0
  0
LINE
  5
B8
330
1F
100
AcDbEntity
  8
VISIBLE
100
AcDbLine
 10
0.539114387123204
 20
6.63340001769154
 30
0.0
 11
0.664114387123204
 21
6.63340001769154
 31
0.0
  0
LINE
  5
B9
330
1F
100
AcDbEntity
  8
VISIBLE
100
AcDbLine
 10
0.664114387123204
 20
6.75840001769154
 30
0.0
 11
0.664114387123204
 21
6.63340001769154
 31
0.0
  0
LINE
  5
BA
330
1F
100
AcDbEntity
  8
VISIBLE
100
AcDbLine
 10
0.539114387123204
 20
6.75840001769154
 30
0.0
 11
0.664114387123204
 21
6.75840001769154
 31
0.0
  0
LINE
  5
BB
330
1F
100
AcDbEntity
  8
VISIBLE
100
AcDbLine
 10
0.664114387123204
 20
6.99090001769154
 30
0.0
 11
0.664114387123204
 21
7.11590001769154
 31
0.0
  0
LINE
  5
BC
330
1F
100
AcDbEntity
  8
VISIBLE
100
AcDbLine
 10
0.789114387123204
 20
6.99090001769154
 30
0.0
 11
0.664114387123204
 21
6.99090001769154
 31
0.0
  0
LINE
  5
BD
330
1F
100
AcDbEntity
  8
VISIBLE
100
AcDbLine
 10
0.789114387123204
 20
6.99090001769154
 30
0.0
 11
0.789114387123204
 21
7.11590001769154
 31
0.0
  0
LINE
  5
BE
330
1F
100
AcDbEntity
  8
VISIBLE
100
AcDbLine
 10
0.789114387123204
 20
7.11590001769154
 30
0.0
 11
0.914114387123204
 21
7.11590001769154
 31
0.0
  0
LINE
  5
BF
330
1F
100
AcDbEntity
  8
VISIBLE
100
AcDbLine
 10
0.914114387123204
 20
6.99090001769154
 30
0.0
 11
0.914114387123204
 21
7.11590001769154
 31
0.0
  0
LINE
  5
C0
330
1F
100
AcDbEntity
  8
VISIBLE
100
AcDbLine
 10
1.039114387123204
 20
6.99090001769154
 30
0.0
 11
0.914114387123204
 21
6.99090001769154
 31
0.0
  0
LINE
  5
C1
330
1F
100
AcDbEntity
  8
VISIBLE
100
AcDbLine
 10
1.164114387123204
 20
6.99090001769154
 30
0.0
 11
1.164114387123204
 21
7.11590001769154
 31
0.0
  0
LINE
  5
C2
330
1F
100
AcDbEntity
  8
VISIBLE
100
AcDbLine
 10
1.289114387123204
 20
6.99090001769154
 30
0.0
 11
1.164114387123204
 21
6.99090001769154
 31
0.0
  0
LINE
  5
C3
330
1F
100
AcDbEntity
  8
VISIBLE
100
AcDbLine
 10
1.289114387123204
 20
7.11590001769154
 30
0.0
 11
1.414114387123204
 21
7.11590001769154
 31
0.0
  0
LINE
  5
C4
330
1F
100
AcDbEntity
  8
VISIBLE
100
AcDbLine
 10
1.414114387123204
 20
6.99090001769154
 30
0.0
 11
1.414114387123204
 21
7.11590001769154
 31
0.0
  0
LINE
  5
C5
330
1F
100
AcDbEntity
  8
VISIBLE
100
AcDbLine
 10
1.539114387123204
 20
6.99090001769154
 30
0.0
 11
1.414114387123204
 21
6.99090001769154
 31
0.0
  0
LINE
  5
C6
330
1F
100
AcDbEntity
  8
VISIBLE
100
AcDbLine
 10
1.539114387123204
 20
6.99090001769154
 30
0.0
 11
1.539114387123204
 21
7.11590001769154
 31
0.0
  0
LINE
  5
C7
330
1F
100
AcDbEntity
  8
VISIBLE
100
AcDbLine
 10
1.539114387123204
 20
7.11590001769154
 30
0.0
 11
1.664114387123204
 21
7.11590001769154
 31
0.0
  0
LINE
  5
C8
330
1F
100
AcDbEntity
  8
VISIBLE
100
AcDbLine
 10
1.664114387123204
 20
6.99090001769154
 30
0.0
 11
1.664114387123204
 21
7.11590001769154
 31
0.0
  0
LINE
  5
C9
330
1F
100
AcDbEntity
  8
VISIBLE
100
AcDbLine
 10
2.164114387123204
 20
6.99090001769154
 30
0.0
 11
1.664114387123204
 21
6.99090001769154
 31
0.0
  0
LINE
  5
CA
330
1F
100
AcDbEntity
  8
VISIBLE
100
AcDbLine
 10
2.164114387123204
 20
7.11590001769154
 30
0.0
 11
2.289114387123204
 21
7.11590001769154
 31
0.0
  0
LINE
  5
CB
330
1F
100
AcDbEntity
  8
VISIBLE
100
AcDbLine
 10
2.289114387123204
 20
6.99090001769154
 30
0.0
 11
2.289114387123204
 21
7.11590001769154
 31
0.0
  0
LINE
  5
CC
330
1F
100
AcDbEntity
  8
VISIBLE
100
AcDbLine
 10
2.414114387123204
 20
6.99090001769154
 30
0.0
 11
2.289114387123204
 21
6.99090001769154
 31
0.0
  0
LINE
  5
CD
330
1F
100
AcDbEntity
  8
VISIBLE
100
AcDbLine
 10
2.414114387123204
 20
6.99090001769154
 30
0.0
 11
2.414114387123204
 21
7.11590001769154
 31
0.0
  0
LINE
  5
CE
330
1F
100
AcDbEntity
  8
VISIBLE
100
AcDbLine
 10
2.539114387123204
 20
6.99090001769154
 30
0.0
 11
2.539114387123204
 21
7.11590001769154
 31
0.0
  0
LINE
  5
CF
330
1F
100
AcDbEntity
  8
VISIBLE
100
AcDbLine
 10
2.664114387123204
 20
6.99090001769154
 30
0.0
 11
2.539114387123204
 21
6.99090001769154
 31
0.0
  0
LINE
  5
D0
330
1F
100
AcDbEntity
  8
VISIBLE
100
AcDbLine
 10
2.664114387123204
 20
6.99090001769154
 30
0.0
 11
2.664114387123204
 21
7.11590001769154
 31
0.0
  0
LINE
  5
D1
330
1F
100
AcDbEntity
  8
VISIBLE
100
AcDbLine
 10
2.664114387123204
 20
7.11590001769154
 30
0.0
 11
2.789114387123204
 21
7.11590001769154
 31
0.0
  0
LINE
  5
D2
330
1F
100
AcDbEntity
  8
VISIBLE
100
AcDbLine
 10
2.789114387123204
 20
6.99090001769154
 30
0.0
 11
2.789114387123204
 21
7.11590001769154
 31
0.0
  0
LINE
  5
D3
330
1F
100
AcDbEntity
  8
VISIBLE
100
AcDbLine
 10
2.914114387123204
 20
6.99090001769154
 30
0.0
 11
2.789114387123204
 21
6.99090001769154
 31
0.0
  0
LINE
  5
D4
330
1F
100
AcDbEntity
  8
VISIBLE
100
AcDbLine
 10
2.914114387123204
 20
6.99090001769154
 30
0.0
 11
2.914114387123204
 21
7.11590001769154
 31
0.0
  0
LINE
  5
D5
330
1F
100
AcDbEntity
  8
VISIBLE
100
AcDbLine
 10
2.914114387123204
 20
7.11590001769154
 30
0.0
 11
3.039114387123204
 21
7.11590001769154
 31
0.0
  0
LINE
  5
D6
330
1F
100
AcDbEntity
  8
VISIBLE
100
AcDbLine
 10
3.039114387123204
 20
6.99090001769154
 30
0.0
 11
3.039114387123204
 21
7.11590001769154
 31
0.0
  0
LINE
  5
D7
330
1F
100
AcDbEntity
  8
VISIBLE
100
AcDbLine
 10
3.164114387123203
 20
6.99090001769154
 30
0.0
 11
3.039114387123204
 21
6.99090001769154
 31
0.0
  0
CIRCLE
  5
D8
330
1F
100
AcDbEntity
  8
VISIBLE
100
AcDbCircle
 10
-0.822114387123204
 20
6.832900017691539
 30
0.0000000000000004
 40
0.0395
210
0.0
220
6.123233995736766E-17
230
-1.0
  0
CIRCLE
  5
D9
330
1F
100
AcDbEntity
  8
VISIBLE
100
AcDbCircle
 10
-0.7821143871232041
 20
4.810900017691539
 30
0.0000000000000003
 40
0.0395
210
0.0
220
6.123233995736766E-17
230
-1.0
  0
CIRCLE
  5
DA
330
1F
100
AcDbEntity
  8
VISIBLE
100
AcDbCircle
 10
-3.064114387123204
 20
4.78990001769154
 30
0.0000000000000003
 40
0.0395
210
0.0
220
6.123233995736766E-17
230
-1.0
  0
CIRCLE
  5
DB
330
1F
100
AcDbEntity
  8
VISIBLE
100
AcDbCircle
 10
-3.006114387123204
 20
6.832900017691539
 30
0.0000000000000004
 40
0.0395
210
0.0
220
6.123233995736766E-17
230
-1.0
  0
ARC
  5
DC
330
1F
100
AcDbEntity
  8
VISIBLE
100
AcDbCircle
 10
-3.011114387123204
 20
4.957900017691539
 30
0.0000000000000003
 40
0.075
210
0.0
220
6.123233995736766E-17
230
-1.0
100
AcDbArc
 50
180.0
 51
270.0
  0
LINE
  5
DD
330
1F
100
AcDbEntity
  8
VISIBLE
100
AcDbLine
 10
3.086114387123204
 20
6.71290001769154
 30
0.0
 11
3.086114387123204
 21
4.957900017691539
 31
0.0
  0
LINE
  5
DE
330
1F
100
AcDbEntity
  8
VISIBLE
100
AcDbLine
 10
2.961114387123204
 20
6.71290001769154
 30
0.0
 11
3.086114387123204
 21
6.71290001769154
 31
0.0
  0
ARC
  5
DF
330
1F
100
AcDbEntity
  8
VISIBLE
100
AcDbCircle
 10
-2.961114387123204
 20
6.787900017691539
 30
0.0000000000000004
 40
0.075
210
0.0
220
6.123233995736766E-17
230
-1.0
100
AcDbArc
 50
270.0
 51
0.0
  0
LINE
  5
E0
330
1F
100
AcDbEntity
  8
VISIBLE
100
AcDbLine
 10
2.886114387123204
 20
6.912900017691539
 30
0.0
 11
2.886114387123204
 21
6.787900017691539
 31
0.0
  0
LINE
  5
E1
330
1F
100
AcDbEntity
  8
VISIBLE
100
AcDbLine
 10
2.886114387123204
 20
6.912900017691539
 30
0.0
 11
0.9461143871232041
 21
6.912900017691539
 31
0.0
  0
ARC
  5
E2
330
1F
100
AcDbEntity
  8
VISIBLE
100
AcDbCircle
 10
-0.8711143871232039
 20
6.787900017691539
 30
0.0000000000000004
 40
0.075
210
0.0
220
6.123233995736766E-17
230
-1.0
100
AcDbArc
 50
180.0
 51
270.0
  0
LINE
  5
E3
330
1F
100
AcDbEntity
  8
VISIBLE
100
AcDbLine
 10
0.8711143871232039
 20
6.71290001769154
 30
0.0
 11
0.7461143871232039
 21
6.71290001769154
 31
0.0
  0
LINE
  5
E4
330
1F
100
AcDbEntity
  8
VISIBLE
100
AcDbLine
 10
0.7461143871232039
 20
6.71290001769154
 30
0.0
 11
0.7461143871232039
 21
4.957900017691539
 31
0.0
  0
ARC
  5
E5
330
1F
100
AcDbEntity
  8
VISIBLE
100
AcDbCircle
 10
-0.8211143871232041
 20
4.957900017691539
 30
0.0000000000000003
 40
0.075
210
0.0
220
6.123233995736766E-17
230
-1.0
100
AcDbArc
 50
270.0
 51
0.0
  0
LINE
  5
E6
330
1F
100
AcDbEntity
  8
VISIBLE
100
AcDbLine
 10
3.011114387123204
 20
4.88290001769154
 30
0.0
 11
0.8211143871232041
 21
4.88290001769154
 31
0.0
  0
LINE
  5
E7
330
1F
100
AcDbEntity
  8
VISIBLE
100
AcDbLine
 10
3.164114387123203
 20
6.99090001769154
 30
0.0
 11
3.164114387123203
 21
7.11590001769154
 31
0.0
  0
LINE
  5
E8
330
1F
100
AcDbEntity
  8
VISIBLE
100
AcDbLine
 10
0.539114387123204
 20
7.11590001769154
 30
0.0
 11
0.664114387123204
 21
7.11590001769154
 31
0.0
  0
LINE
  5
E9
330
1F
100
AcDbEntity
  8
VISIBLE
100
AcDbLine
 10
0.539114387123204
 20
6.13340001769154
 30
0.0
 11
0.539114387123204
 21
6.00840001769154
 31
0.0
  0
LINE
  5
EA
330
1F
100
AcDbEntity
  8
VISIBLE
100
AcDbLine
 10
2.164114387123204
 20
6.99090001769154
 30
0.0
 11
2.164114387123204
 21
7.11590001769154
 31
0.0
  0
LINE
  5
EB
330
1F
100
AcDbEntity
  8
VISIBLE
100
AcDbLine
 10
0.9461143871232041
 20
6.912900017691539
 30
0.0
 11
0.9461143871232041
 21
6.787900017691539
 31
0.0
  0
LINE
  5
EC
330
1F
100
AcDbEntity
  8
VISIBLE
100
AcDbLine
 10
3.164114387123203
 20
7.11590001769154
 30
0.0
 11
3.289114387123203
 21
7.11590001769154
 31
0.0
  0
LINE
  5
ED
330
1F
100
AcDbEntity
  8
VISIBLE
100
AcDbLine
 10
0.539114387123204
 20
7.11590001769154
 30
0.0
 11
0.539114387123204
 21
6.75840001769154
 31
0.0
  0
LINE
  5
EE
330
1F
100
AcDbEntity
  8
VISIBLE
100
AcDbLine
 10
0.539114387123204
 20
6.13340001769154
 30
0.0
 11
0.664114387123204
 21
6.13340001769154
 31
0.0
  0
LINE
  5
EF
330
1F
100
AcDbEntity
  8
VISIBLE
100
AcDbLine
 10
2.414114387123204
 20
7.11590001769154
 30
0.0
 11
2.539114387123204
 21
7.11590001769154
 31
0.0
  0
LINE
  5
F0
330
1F
100
AcDbEntity
  8
VISIBLE
100
AcDbLine
 10
1.039114387123204
 20
6.99090001769154
 30
0.0
 11
1.039114387123204
 21
7.11590001769154
 31
0.0
  0
LINE
  5
F1
330
1F
100
AcDbEntity
  8
VISIBLE
100
AcDbLine
 10
3.289114387123203
 20
6.13340001769154
 30
0.0
 11
3.289114387123203
 21
6.00840001769154
 31
0.0
  0
LINE
  5
F2
330
1F
100
AcDbEntity
  8
VISIBLE
100
AcDbLine
 10
3.289114387123203
 20
6.13340001769154
 30
0.0
 11
3.164114387123203
 21
6.13340001769154
 31
0.0
  0
LINE
  5
F3
330
1F
100
AcDbEntity
  8
VISIBLE
100
AcDbLine
 10
1.039114387123204
 20
7.11590001769154
 30
0.0
 11
1.164114387123204
 21
7.11590001769154
 31
0.0
  0
LINE
  5
F4
330
1F
100
AcDbEntity
  8
VISIBLE
100
AcDbLine
 10
1.289114387123204
 20
6.99090001769154
 30
0.0
 11
1.289114387123204
 21
7.11590001769154
 31
0.0
  0
LINE
  5
F5
330
1F
100
AcDbEntity
  8
VISIBLE
100
AcDbLine
 10
3.289114387123203
 20
7.11590001769154
 30
0.0
 11
3.289114387123203
 21
6.75840001769154
 31
0.0
  0
POLYLINE
  5
F7
330
1F
100
AcDbEntity
  8
VISIBLE
100
AcDb2dPolyline
 66
     1
 10
0.0
 20
0.0
 30
0.0
 70
   128
  0
VERTEX
  5
F8
330
F7
100
AcDbEntity
  8
VISIBLE
100
AcDbVertex
100
AcDb2dVertex
 10
7.158182646154935
 20
5.556946856484377
 30
0.0
  0
VERTEX
  5
F9
330
F7
100
AcDbEntity
  8
VISIBLE
100
AcDbVertex
100
AcDb2dVertex
 10
7.120747104339803
 20
5.530697090473
 30
0.0
  0
VERTEX
  5
FA
330
F7
100
AcDbEntity
  8
VISIBLE
100
AcDbVertex
100
AcDb2dVertex
 10
7.078127143963946
 20
5.5098516880522
 30
0.0
  0
VERTEX
  5
FB
330
F7
100
AcDbEntity
  8
VISIBLE
100
AcDbVertex
100
AcDb2dVertex
 10
7.030322765027358
 20
5.494410649221979
 30
0.0
  0
VERTEX
  5
FC
330
F7
100
AcDbEntity
  8
VISIBLE
100
AcDbVertex
100
AcDb2dVertex
 10
6.989125153250141
 20
5.486069730925297
 30
0.0
  0
VERTEX
  5
FD
330
F7
100
AcDbEntity
  8
VISIBLE
100
AcDbVertex
100
AcDb2dVertex
 10
6.944726956545127
 20
5.481065179947287
 30
0.0
  0
VERTEX
  5
FE
330
F7
100
AcDbEntity
  8
VISIBLE
100
AcDbVertex
100
AcDb2dVertex
 10
6.897128174912317
 20
5.479396996287951
 30
0.0
  0
SEQEND
  5
FF
330
F7
100
AcDbEntity
  8
VISIBLE
  0
POLYLINE
  5
100
330
1F
100
AcDbEntity
  8
VISIBLE
100
AcDb2dPolyline
 66
     1
 10
0.0
 20
0.0
 30
0.0
 70
   128
  0
VERTEX
  5
101
330
100
100
AcDbEntity
  8
VISIBLE
100
AcDbVertex
100
AcDb2dVertex
 10
7.251513001158771
 20
5.772463328425604
 30
0.0
  0
VERTEX
  5
102
330
100
100
AcDbEntity
  8
VISIBLE
100
AcDbVertex
100
AcDb2dVertex
 10
7.248260956788859
 20
5.723060981517053
 30
0.0
  0
VERTEX
  5
103
330
100
100
AcDbEntity
  8
VISIBLE
100
AcDbVertex
100
AcDb2dVertex
 10
7.238504823679125
 20
5.677869010894183
 30
0.0
  0
VERTEX
  5
104
330
100
100
AcDbEntity
  8
VISIBLE
100
AcDbVertex
100
AcDb2dVertex
 10
7.222244601829568
 20
5.636887416556997
 30
0.0
  0
VERTEX
  5
105
330
100
100
AcDbEntity
  8
VISIBLE
100
AcDbVertex
100
AcDb2dVertex
 10
7.204905895877745
 20
5.607641300288398
 30
0.0
  0
VERTEX
  5
106
330
100
100
AcDbEntity
  8
VISIBLE
100
AcDbVertex
100
AcDb2dVertex
 10
7.183551910652866
 20
5.580994446930857
 30
0.0
  0
VERTEX
  5
107
330
100
100
AcDbEntity
  8
VISIBLE
100
AcDbVertex
100
AcDb2dVertex
 10
7.158182646154935
 20
5.556946856484377
 30
0.0
  0
SEQEND
  5
108
330
100
100
AcDbEntity
  8
VISIBLE
  0
POLYLINE
  5
109
330
1F
100
AcDbEntity
  8
VISIBLE
100
AcDb2dPolyline
 66
     1
 10
0.0
 20
0.0
 30
0.0
 70
   128
  0
VERTEX
  5
10A
330
109
100
AcDbEntity
  8
VISIBLE
100
AcDbVertex
100
AcDb2dVertex
 10
7.016834499808542
 20
6.019089918701445
 30
0.0
  0
VERTEX
  5
10B
330
109
100
AcDbEntity
  8
VISIBLE
100
AcDbVertex
100
AcDb2dVertex
 10
7.066458676990057
 20
6.008014384733061
 30
0.0
  0
VERTEX
  5
10C
330
109
100
AcDbEntity
  8
VISIBLE
100
AcDbVertex
100
AcDb2dVertex
 10
7.110195239929696
 20
5.992764922512512
 30
0.0
  0
VERTEX
  5
10D
330
109
100
AcDbEntity
  8
VISIBLE
100
AcDbVertex
100
AcDb2dVertex
 10
7.14804418862746
 20
5.973341532039798
 30
0.0
  0
VERTEX
  5
10E
330
109
100
AcDbEntity
  8
VISIBLE
100
AcDbVertex
100
AcDb2dVertex
 10
7.180005523083351
 20
5.949744213314919
 30
0.0
  0
VERTEX
  5
10F
330
109
100
AcDbEntity
  8
VISIBLE
100
AcDbVertex
100
AcDb2dVertex
 10
7.206079243297366
 20
5.921972966337877
 30
0.0
  0
VERTEX
  5
110
330
109
100
AcDbEntity
  8
VISIBLE
100
AcDbVertex
100
AcDb2dVertex
 10
7.225956512361731
 20
5.890634842396861
 30
0.0
  0
VERTEX
  5
111
330
109
100
AcDbEntity
  8
VISIBLE
100
AcDbVertex
100
AcDb2dVertex
 10
7.24015456169342
 20
5.855270528097811
 30
0.0
  0
VERTEX
  5
112
330
109
100
AcDbEntity
  8
VISIBLE
100
AcDbVertex
100
AcDb2dVertex
 10
7.248673391292434
 20
5.815880023440725
 30
0.0
  0
VERTEX
  5
113
330
109
100
AcDbEntity
  8
VISIBLE
100
AcDbVertex
100
AcDb2dVertex
 10
7.251513001158771
 20
5.772463328425604
 30
0.0
  0
SEQEND
  5
114
330
109
100
AcDbEntity
  8
VISIBLE
  0
LINE
  5
115
330
1F
100
AcDbEntity
  8
VISIBLE
100
AcDbLine
 10
7.016834499808542
 20
6.026078423544728
 30
0.0
 11
7.016834499808542
 21
6.019089918701445
 31
0.0
  0
POLYLINE
  5
116
330
1F
100
AcDbEntity
  8
VISIBLE
100
AcDb2dPolyline
 66
     1
 10
0.0
 20
0.0
 30
0.0
 70
   128
  0
VERTEX
  5
117
330
116
100
AcDbEntity
  8
VISIBLE
100
AcDbVertex
100
AcDb2dVertex
 10
7.165960175738587
 20
6.103177412460941
 30
0.0
  0
VERTEX
  5
118
330
116
100
AcDbEntity
  8
VISIBLE
100
AcDbVertex
100
AcDb2dVertex
 10
7.14525953305682
 20
6.082419539184674
 30
0.0
  0
VERTEX
  5
119
330
116
100
AcDbEntity
  8
VISIBLE
100
AcDbVertex
100
AcDb2dVertex
 10
7.121283280466231
 20
6.064583792733544
 30
0.0
  0
VERTEX
  5
11A
330
116
100
AcDbEntity
  8
VISIBLE
100
AcDbVertex
100
AcDb2dVertex
 10
7.094031417966819
 20
6.049670173107552
 30
0.0
  0
VERTEX
  5
11B
330
116
100
AcDbEntity
  8
VISIBLE
100
AcDbVertex
100
AcDb2dVertex
 10
7.057707920106245
 20
6.035844836519651
 30
0.0
  0
VERTEX
  5
11C
330
116
100
AcDbEntity
  8
VISIBLE
100
AcDbVertex
100
AcDb2dVertex
 10
7.016834499808542
 20
6.026078423544728
 30
0.0
  0
SEQEND
  5
11D
330
116
100
AcDbEntity
  8
VISIBLE
  0
POLYLINE
  5
11E
330
1F
100
AcDbEntity
  8
VISIBLE
100
AcDb2dPolyline
 66
     1
 10
0.0
 20
0.0
 30
0.0
 70
   128
  0
VERTEX
  5
11F
330
11E
100
AcDbEntity
  8
VISIBLE
100
AcDbVertex
100
AcDb2dVertex
 10
7.217021348222571
 20
6.254444726971992
 30
0.0
  0
VERTEX
  5
120
330
11E
100
AcDbEntity
  8
VISIBLE
100
AcDbVertex
100
AcDb2dVertex
 10
7.215242150034684
 20
6.221313823598194
 30
0.0
  0
VERTEX
  5
121
330
11E
100
AcDbEntity
  8
VISIBLE
100
AcDbVertex
100
AcDb2dVertex
 10
7.209904555471025
 20
6.190429501600711
 30
0.0
  0
VERTEX
  5
122
330
11E
100
AcDbEntity
  8
VISIBLE
100
AcDbVertex
100
AcDb2dVertex
 10
7.201008564531594
 20
6.161791760979544
 30
0.0
  0
VERTEX
  5
123
330
11E
100
AcDbEntity
  8
VISIBLE
100
AcDbVertex
100
AcDb2dVertex
 10
7.185955730883316
 20
6.130924301567942
 30
0.0
  0
VERTEX
  5
124
330
11E
100
AcDbEntity
  8
VISIBLE
100
AcDbVertex
100
AcDb2dVertex
 10
7.165960175738587
 20
6.103177412460941
 30
0.0
  0
SEQEND
  5
125
330
11E
100
AcDbEntity
  8
VISIBLE
  0
POLYLINE
  5
126
330
1F
100
AcDbEntity
  8
VISIBLE
100
AcDb2dPolyline
 66
     1
 10
0.0
 20
0.0
 30
0.0
 70
   128
  0
VERTEX
  5
127
330
126
100
AcDbEntity
  8
VISIBLE
100
AcDbVertex
100
AcDb2dVertex
 10
7.125381760519528
 20
6.448093941822949
 30
0.0
  0
VERTEX
  5
128
330
126
100
AcDbEntity
  8
VISIBLE
100
AcDbVertex
100
AcDb2dVertex
 10
7.156400742739366
 20
6.422727322436527
 30
0.0
  0
VERTEX
  5
129
330
126
100
AcDbEntity
  8
VISIBLE
100
AcDbVertex
100
AcDb2dVertex
 10
7.181033463913944
 20
6.392411939878501
 30
0.0
  0
VERTEX
  5
12A
330
126
100
AcDbEntity
  8
VISIBLE
100
AcDbVertex
100
AcDb2dVertex
 10
7.199279924043261
 20
6.357147794148871
 30
0.0
  0
VERTEX
  5
12B
330
126
100
AcDbEntity
  8
VISIBLE
100
AcDbVertex
100
AcDb2dVertex
 10
7.209136270809544
 20
6.32596854221796
 30
0.0
  0
VERTEX
  5
12C
330
126
100
AcDbEntity
  8
VISIBLE
100
AcDbVertex
100
AcDb2dVertex
 10
7.215050078869313
 20
6.291734186492334
 30
0.0
  0
VERTEX
  5
12D
330
126
100
AcDbEntity
  8
VISIBLE
100
AcDbVertex
100
AcDb2dVertex
 10
7.217021348222571
 20
6.254444726971992
 30
0.0
  0
SEQEND
  5
12E
330
126
100
AcDbEntity
  8
VISIBLE
  0
POLYLINE
  5
12F
330
1F
100
AcDbEntity
  8
VISIBLE
100
AcDb2dPolyline
 66
     1
 10
0.0
 20
0.0
 30
0.0
 70
   128
  0
VERTEX
  5
130
330
12F
100
AcDbEntity
  8
VISIBLE
100
AcDbVertex
100
AcDb2dVertex
 10
6.828821175960233
 20
6.50941243593175
 30
0.0
  0
VERTEX
  5
131
330
12F
100
AcDbEntity
  8
VISIBLE
100
AcDbVertex
100
AcDb2dVertex
 10
6.88397873946058
 20
6.508210593447218
 30
0.0
  0
VERTEX
  5
132
330
12F
100
AcDbEntity
  8
VISIBLE
100
AcDbVertex
100
AcDb2dVertex
 10
6.934695671722122
 20
6.50460506599362
 30
0.0
  0
VERTEX
  5
133
330
12F
100
AcDbEntity
  8
VISIBLE
100
AcDbVertex
100
AcDb2dVertex
 10
6.980971972744858
 20
6.498595853570958
 30
0.0
  0
VERTEX
  5
134
330
12F
100
AcDbEntity
  8
VISIBLE
100
AcDbVertex
100
AcDb2dVertex
 10
7.022807642528789
 20
6.49018295617923
 30
0.0
  0
VERTEX
  5
135
330
12F
100
AcDbEntity
  8
VISIBLE
100
AcDbVertex
100
AcDb2dVertex
 10
7.061872633150604
 20
6.478791342607017
 30
0.0
  0
VERTEX
  5
136
330
12F
100
AcDbEntity
  8
VISIBLE
100
AcDbVertex
100
AcDb2dVertex
 10
7.096064005814184
 20
6.464761671154923
 30
0.0
  0
VERTEX
  5
137
330
12F
100
AcDbEntity
  8
VISIBLE
100
AcDbVertex
100
AcDb2dVertex
 10
7.125381760519528
 20
6.448093941822949
 30
0.0
  0
SEQEND
  5
138
330
12F
100
AcDbEntity
  8
VISIBLE
  0
LINE
  5
139
330
1F
100
AcDbEntity
  8
VISIBLE
100
AcDbLine
 10
6.537783764583533
 20
6.50941243593175
 30
0.0
 11
6.828821175960233
 21
6.50941243593175
 31
0.0
  0
LINE
  5
13A
330
1F
100
AcDbEntity
  8
VISIBLE
100
AcDbLine
 10
6.537783764583533
 20
5.479396996287951
 30
0.0
 11
6.537783764583533
 21
6.50941243593175
 31
0.0
  0
LINE
  5
13B
330
1F
100
AcDbEntity
  8
VISIBLE
100
AcDbLine
 10
6.897128174912317
 20
5.479396996287951
 30
0.0
 11
6.537783764583533
 21
5.479396996287951
 31
0.0
  0
LINE
  5
13C
330
1F
100
AcDbEntity
  8
VISIBLE
100
AcDbLine
 10
8.184372266380054
 20
5.784601059266065
 30
0.0
 11
8.184372266380054
 21
5.659601059266065
 31
0.0
  0
LINE
  5
13D
330
1F
100
AcDbEntity
  8
VISIBLE
100
AcDbLine
 10
8.059372266380054
 20
5.659601059266065
 30
0.0
 11
8.184372266380054
 21
5.659601059266065
 31
0.0
  0
LINE
  5
13E
330
1F
100
AcDbEntity
  8
VISIBLE
100
AcDbLine
 10
8.059372266380054
 20
5.659601059266065
 30
0.0
 11
8.059372266380054
 21
5.534601059266065
 31
0.0
  0
LINE
  5
13F
330
1F
100
AcDbEntity
  8
VISIBLE
100
AcDbLine
 10
8.059372266380054
 20
5.534601059266065
 30
0.0
 11
8.184372266380054
 21
5.534601059266065
 31
0.0
  0
LINE
  5
140
330
1F
100
AcDbEntity
  8
VISIBLE
100
AcDbLine
 10
8.184372266380054
 20
5.534601059266065
 30
0.0
 11
8.184372266380054
 21
5.409601059266065
 31
0.0
  0
LINE
  5
141
330
1F
100
AcDbEntity
  8
VISIBLE
100
AcDbLine
 10
8.059372266380054
 20
5.409601059266065
 30
0.0
 11
8.184372266380054
 21
5.409601059266065
 31
0.0
  0
LINE
  5
142
330
1F
100
AcDbEntity
  8
VISIBLE
100
AcDbLine
 10
8.059372266380054
 20
5.409601059266065
 30
0.0
 11
8.059372266380054
 21
5.284601059266065
 31
0.0
  0
LINE
  5
143
330
1F
100
AcDbEntity
  8
VISIBLE
100
AcDbLine
 10
8.059372266380054
 20
5.284601059266065
 30
0.0
 11
8.184372266380054
 21
5.284601059266065
 31
0.0
  0
LINE
  5
144
330
1F
100
AcDbEntity
  8
VISIBLE
100
AcDbLine
 10
8.184372266380054
 20
5.284601059266065
 30
0.0
 11
8.184372266380054
 21
5.159601059266065
 31
0.0
  0
LINE
  5
145
330
1F
100
AcDbEntity
  8
VISIBLE
100
AcDbLine
 10
8.059372266380054
 20
5.159601059266065
 30
0.0
 11
8.184372266380054
 21
5.159601059266065
 31
0.0
  0
LINE
  5
146
330
1F
100
AcDbEntity
  8
VISIBLE
100
AcDbLine
 10
8.059372266380054
 20
5.159601059266065
 30
0.0
 11
8.059372266380054
 21
5.034601059266065
 31
0.0
  0
LINE
  5
147
330
1F
100
AcDbEntity
  8
VISIBLE
100
AcDbLine
 10
8.059372266380054
 20
5.034601059266065
 30
0.0
 11
8.184372266380054
 21
5.034601059266065
 31
0.0
  0
LINE
  5
148
330
1F
100
AcDbEntity
  8
VISIBLE
100
AcDbLine
 10
8.184372266380054
 20
5.034601059266065
 30
0.0
 11
8.184372266380054
 21
4.677101059266064
 31
0.0
  0
LINE
  5
149
330
1F
100
AcDbEntity
  8
VISIBLE
100
AcDbLine
 10
8.184372266380054
 20
4.677101059266064
 30
0.0
 11
8.494372266380054
 21
4.677101059266064
 31
0.0
  0
LINE
  5
14A
330
1F
100
AcDbEntity
  8
VISIBLE
100
AcDbLine
 10
8.494372266380054
 20
4.517101059266065
 30
0.0
 11
8.494372266380054
 21
4.677101059266064
 31
0.0
  0
LINE
  5
14B
330
1F
100
AcDbEntity
  8
VISIBLE
100
AcDbLine
 10
7.369372266380053
 20
4.517101059266065
 30
0.0
 11
8.494372266380054
 21
4.517101059266065
 31
0.0
  0
LINE
  5
14C
330
1F
100
AcDbEntity
  8
VISIBLE
100
AcDbLine
 10
7.369372266380053
 20
4.517101059266065
 30
0.0
 11
7.369372266380053
 21
4.675223540434789
 31
0.0
  0
LINE
  5
14D
330
1F
100
AcDbEntity
  8
VISIBLE
100
AcDbLine
 10
7.369372266380053
 20
4.675223540434789
 30
0.0
 11
7.559372266380055
 21
4.675223540434789
 31
0.0
  0
LINE
  5
14E
330
1F
100
AcDbEntity
  8
VISIBLE
100
AcDbLine
 10
7.559372266380055
 20
4.675223540434789
 30
0.0
 11
7.559372266380055
 21
4.827101059266065
 31
0.0
  0
ARC
  5
14F
330
1F
100
AcDbEntity
  8
VISIBLE
100
AcDbCircle
 10
-6.809372266380054
 20
9.409444408191312
 30
0.000000000000002
 40
4.64331461
210
2.449293598294705E-16
220
6.123233995736766E-17
230
-1.0
100
AcDbArc
 50
260.7047186841786
 51
279.2952813158214
  0
LINE
  5
150
330
1F
100
AcDbEntity
  8
VISIBLE
100
AcDbLine
 10
6.059372266380054
 20
4.827101059266065
 30
0.0
 11
6.059372266380054
 21
4.677101059266064
 31
0.0
  0
LINE
  5
151
330
1F
100
AcDbEntity
  8
VISIBLE
100
AcDbLine
 10
6.059372266380054
 20
4.677101059266064
 30
0.0
 11
6.249372266380054
 21
4.677101059266064
 31
0.0
  0
LINE
  5
152
330
1F
100
AcDbEntity
  8
VISIBLE
100
AcDbLine
 10
6.249372266380054
 20
4.677101059266064
 30
0.0
 11
6.249372266380054
 21
4.517101059266065
 31
0.0
  0
LINE
  5
153
330
1F
100
AcDbEntity
  8
VISIBLE
100
AcDbLine
 10
5.124372266380054
 20
4.517101059266065
 30
0.0
 11
6.249372266380054
 21
4.517101059266065
 31
0.0
  0
LINE
  5
154
330
1F
100
AcDbEntity
  8
VISIBLE
100
AcDbLine
 10
5.124372266380054
 20
4.517101059266065
 30
0.0
 11
5.124372266380054
 21
4.677101059266064
 31
0.0
  0
LINE
  5
155
330
1F
100
AcDbEntity
  8
VISIBLE
100
AcDbLine
 10
5.434372266380054
 20
4.677101059266064
 30
0.0
 11
5.124372266380054
 21
4.677101059266064
 31
0.0
  0
LINE
  5
156
330
1F
100
AcDbEntity
  8
VISIBLE
100
AcDbLine
 10
5.434372266380054
 20
5.034601059266065
 30
0.0
 11
5.434372266380054
 21
4.677101059266064
 31
0.0
  0
LINE
  5
157
330
1F
100
AcDbEntity
  8
VISIBLE
100
AcDbLine
 10
5.559372266380054
 20
5.034601059266065
 30
0.0
 11
5.434372266380054
 21
5.034601059266065
 31
0.0
  0
LINE
  5
158
330
1F
100
AcDbEntity
  8
VISIBLE
100
AcDbLine
 10
5.559372266380054
 20
5.159601059266065
 30
0.0
 11
5.559372266380054
 21
5.034601059266065
 31
0.0
  0
LINE
  5
159
330
1F
100
AcDbEntity
  8
VISIBLE
100
AcDbLine
 10
5.559372266380054
 20
5.159601059266065
 30
0.0
 11
5.434372266380054
 21
5.159601059266065
 31
0.0
  0
LINE
  5
15A
330
1F
100
AcDbEntity
  8
VISIBLE
100
AcDbLine
 10
5.434372266380054
 20
5.284601059266065
 30
0.0
 11
5.434372266380054
 21
5.159601059266065
 31
0.0
  0
LINE
  5
15B
330
1F
100
AcDbEntity
  8
VISIBLE
100
AcDbLine
 10
5.559372266380054
 20
5.284601059266065
 30
0.0
 11
5.434372266380054
 21
5.284601059266065
 31
0.0
  0
LINE
  5
15C
330
1F
100
AcDbEntity
  8
VISIBLE
100
AcDbLine
 10
5.559372266380054
 20
5.409601059266065
 30
0.0
 11
5.559372266380054
 21
5.284601059266065
 31
0.0
  0
LINE
  5
15D
330
1F
100
AcDbEntity
  8
VISIBLE
100
AcDbLine
 10
5.559372266380054
 20
5.409601059266065
 30
0.0
 11
5.434372266380054
 21
5.409601059266065
 31
0.0
  0
LINE
  5
15E
330
1F
100
AcDbEntity
  8
VISIBLE
100
AcDbLine
 10
5.434372266380054
 20
5.534601059266065
 30
0.0
 11
5.434372266380054
 21
5.409601059266065
 31
0.0
  0
LINE
  5
15F
330
1F
100
AcDbEntity
  8
VISIBLE
100
AcDbLine
 10
5.559372266380054
 20
5.534601059266065
 30
0.0
 11
5.434372266380054
 21
5.534601059266065
 31
0.0
  0
LINE
  5
160
330
1F
100
AcDbEntity
  8
VISIBLE
100
AcDbLine
 10
5.559372266380054
 20
5.659601059266065
 30
0.0
 11
5.559372266380054
 21
5.534601059266065
 31
0.0
  0
LINE
  5
161
330
1F
100
AcDbEntity
  8
VISIBLE
100
AcDbLine
 10
5.559372266380054
 20
5.659601059266065
 30
0.0
 11
5.434372266380054
 21
5.659601059266065
 31
0.0
  0
LINE
  5
162
330
1F
100
AcDbEntity
  8
VISIBLE
100
AcDbLine
 10
5.434372266380054
 20
5.784601059266065
 30
0.0
 11
5.434372266380054
 21
5.659601059266065
 31
0.0
  0
LINE
  5
163
330
1F
100
AcDbEntity
  8
VISIBLE
100
AcDbLine
 10
5.434372266380054
 20
5.784601059266065
 30
0.0
 11
5.559372266380054
 21
5.784601059266065
 31
0.0
  0
LINE
  5
164
330
1F
100
AcDbEntity
  8
VISIBLE
100
AcDbLine
 10
5.559372266380054
 20
6.034601059266065
 30
0.0
 11
5.559372266380054
 21
5.784601059266065
 31
0.0
  0
LINE
  5
165
330
1F
100
AcDbEntity
  8
VISIBLE
100
AcDbLine
 10
5.434372266380054
 20
6.034601059266065
 30
0.0
 11
5.559372266380054
 21
6.034601059266065
 31
0.0
  0
LINE
  5
166
330
1F
100
AcDbEntity
  8
VISIBLE
100
AcDbLine
 10
5.434372266380054
 20
6.159601059266065
 30
0.0
 11
5.434372266380054
 21
6.034601059266065
 31
0.0
  0
LINE
  5
167
330
1F
100
AcDbEntity
  8
VISIBLE
100
AcDbLine
 10
5.559372266380054
 20
6.159601059266065
 30
0.0
 11
5.434372266380054
 21
6.159601059266065
 31
0.0
  0
LINE
  5
168
330
1F
100
AcDbEntity
  8
VISIBLE
100
AcDbLine
 10
5.559372266380054
 20
6.159601059266065
 30
0.0
 11
5.559372266380054
 21
6.284601059266065
 31
0.0
  0
LINE
  5
169
330
1F
100
AcDbEntity
  8
VISIBLE
100
AcDbLine
 10
5.559372266380054
 20
6.284601059266065
 30
0.0
 11
5.434372266380054
 21
6.284601059266065
 31
0.0
  0
LINE
  5
16A
330
1F
100
AcDbEntity
  8
VISIBLE
100
AcDbLine
 10
5.434372266380054
 20
6.409601059266065
 30
0.0
 11
5.434372266380054
 21
6.284601059266065
 31
0.0
  0
LINE
  5
16B
330
1F
100
AcDbEntity
  8
VISIBLE
100
AcDbLine
 10
5.559372266380054
 20
6.409601059266065
 30
0.0
 11
5.434372266380054
 21
6.409601059266065
 31
0.0
  0
LINE
  5
16C
330
1F
100
AcDbEntity
  8
VISIBLE
100
AcDbLine
 10
5.559372266380054
 20
6.409601059266065
 30
0.0
 11
5.559372266380054
 21
6.534601059266065
 31
0.0
  0
LINE
  5
16D
330
1F
100
AcDbEntity
  8
VISIBLE
100
AcDbLine
 10
5.559372266380054
 20
6.534601059266065
 30
0.0
 11
5.434372266380054
 21
6.534601059266065
 31
0.0
  0
LINE
  5
16E
330
1F
100
AcDbEntity
  8
VISIBLE
100
AcDbLine
 10
5.434372266380054
 20
6.659601059266065
 30
0.0
 11
5.434372266380054
 21
6.534601059266065
 31
0.0
  0
LINE
  5
16F
330
1F
100
AcDbEntity
  8
VISIBLE
100
AcDbLine
 10
5.559372266380054
 20
6.659601059266065
 30
0.0
 11
5.434372266380054
 21
6.659601059266065
 31
0.0
  0
LINE
  5
170
330
1F
100
AcDbEntity
  8
VISIBLE
100
AcDbLine
 10
5.559372266380054
 20
6.659601059266065
 30
0.0
 11
5.559372266380054
 21
6.784601059266065
 31
0.0
  0
LINE
  5
171
330
1F
100
AcDbEntity
  8
VISIBLE
100
AcDbLine
 10
5.559372266380054
 20
6.784601059266065
 30
0.0
 11
5.434372266380054
 21
6.784601059266065
 31
0.0
  0
LINE
  5
172
330
1F
100
AcDbEntity
  8
VISIBLE
100
AcDbLine
 10
5.434372266380054
 20
7.142101059266065
 30
0.0
 11
5.434372266380054
 21
6.784601059266065
 31
0.0
  0
LINE
  5
173
330
1F
100
AcDbEntity
  8
VISIBLE
100
AcDbLine
 10
5.434372266380054
 20
7.142101059266065
 30
0.0
 11
5.559372266380054
 21
7.142101059266065
 31
0.0
  0
LINE
  5
174
330
1F
100
AcDbEntity
  8
VISIBLE
100
AcDbLine
 10
5.559372266380054
 20
7.017101059266065
 30
0.0
 11
5.559372266380054
 21
7.142101059266065
 31
0.0
  0
LINE
  5
175
330
1F
100
AcDbEntity
  8
VISIBLE
100
AcDbLine
 10
5.559372266380054
 20
7.017101059266065
 30
0.0
 11
5.684372266380054
 21
7.017101059266065
 31
0.0
  0
LINE
  5
176
330
1F
100
AcDbEntity
  8
VISIBLE
100
AcDbLine
 10
5.684372266380054
 20
7.017101059266065
 30
0.0
 11
5.684372266380054
 21
7.142101059266065
 31
0.0
  0
LINE
  5
177
330
1F
100
AcDbEntity
  8
VISIBLE
100
AcDbLine
 10
5.684372266380054
 20
7.142101059266065
 30
0.0
 11
5.809372266380054
 21
7.142101059266065
 31
0.0
  0
LINE
  5
178
330
1F
100
AcDbEntity
  8
VISIBLE
100
AcDbLine
 10
5.809372266380054
 20
7.017101059266065
 30
0.0
 11
5.809372266380054
 21
7.142101059266065
 31
0.0
  0
LINE
  5
179
330
1F
100
AcDbEntity
  8
VISIBLE
100
AcDbLine
 10
5.809372266380054
 20
7.017101059266065
 30
0.0
 11
5.934372266380054
 21
7.017101059266065
 31
0.0
  0
LINE
  5
17A
330
1F
100
AcDbEntity
  8
VISIBLE
100
AcDbLine
 10
5.934372266380054
 20
7.017101059266065
 30
0.0
 11
5.934372266380054
 21
7.142101059266065
 31
0.0
  0
LINE
  5
17B
330
1F
100
AcDbEntity
  8
VISIBLE
100
AcDbLine
 10
5.934372266380054
 20
7.142101059266065
 30
0.0
 11
6.059372266380054
 21
7.142101059266065
 31
0.0
  0
LINE
  5
17C
330
1F
100
AcDbEntity
  8
VISIBLE
100
AcDbLine
 10
6.059372266380054
 20
7.017101059266065
 30
0.0
 11
6.059372266380054
 21
7.142101059266065
 31
0.0
  0
LINE
  5
17D
330
1F
100
AcDbEntity
  8
VISIBLE
100
AcDbLine
 10
6.059372266380054
 20
7.017101059266065
 30
0.0
 11
6.184372266380054
 21
7.017101059266065
 31
0.0
  0
LINE
  5
17E
330
1F
100
AcDbEntity
  8
VISIBLE
100
AcDbLine
 10
6.184372266380054
 20
7.017101059266065
 30
0.0
 11
6.184372266380054
 21
7.142101059266065
 31
0.0
  0
LINE
  5
17F
330
1F
100
AcDbEntity
  8
VISIBLE
100
AcDbLine
 10
6.184372266380054
 20
7.142101059266065
 30
0.0
 11
6.309372266380054
 21
7.142101059266065
 31
0.0
  0
LINE
  5
180
330
1F
100
AcDbEntity
  8
VISIBLE
100
AcDbLine
 10
6.309372266380054
 20
7.017101059266065
 30
0.0
 11
6.309372266380054
 21
7.142101059266065
 31
0.0
  0
LINE
  5
181
330
1F
100
AcDbEntity
  8
VISIBLE
100
AcDbLine
 10
6.309372266380054
 20
7.017101059266065
 30
0.0
 11
6.434372266380054
 21
7.017101059266065
 31
0.0
  0
LINE
  5
182
330
1F
100
AcDbEntity
  8
VISIBLE
100
AcDbLine
 10
6.434372266380054
 20
7.017101059266065
 30
0.0
 11
6.434372266380054
 21
7.142101059266065
 31
0.0
  0
LINE
  5
183
330
1F
100
AcDbEntity
  8
VISIBLE
100
AcDbLine
 10
6.434372266380054
 20
7.142101059266065
 30
0.0
 11
6.559372266380054
 21
7.142101059266065
 31
0.0
  0
LINE
  5
184
330
1F
100
AcDbEntity
  8
VISIBLE
100
AcDbLine
 10
6.559372266380054
 20
7.017101059266065
 30
0.0
 11
6.559372266380054
 21
7.142101059266065
 31
0.0
  0
LINE
  5
185
330
1F
100
AcDbEntity
  8
VISIBLE
100
AcDbLine
 10
6.559372266380054
 20
7.017101059266065
 30
0.0
 11
7.059372266380054
 21
7.017101059266065
 31
0.0
  0
LINE
  5
186
330
1F
100
AcDbEntity
  8
VISIBLE
100
AcDbLine
 10
7.059372266380054
 20
7.017101059266065
 30
0.0
 11
7.059372266380054
 21
7.142101059266065
 31
0.0
  0
LINE
  5
187
330
1F
100
AcDbEntity
  8
VISIBLE
100
AcDbLine
 10
7.059372266380054
 20
7.142101059266065
 30
0.0
 11
7.184372266380055
 21
7.142101059266065
 31
0.0
  0
LINE
  5
188
330
1F
100
AcDbEntity
  8
VISIBLE
100
AcDbLine
 10
7.184372266380055
 20
7.017101059266065
 30
0.0
 11
7.184372266380055
 21
7.142101059266065
 31
0.0
  0
LINE
  5
189
330
1F
100
AcDbEntity
  8
VISIBLE
100
AcDbLine
 10
7.184372266380055
 20
7.017101059266065
 30
0.0
 11
7.309372266380053
 21
7.017101059266065
 31
0.0
  0
LINE
  5
18A
330
1F
100
AcDbEntity
  8
VISIBLE
100
AcDbLine
 10
7.309372266380053
 20
7.017101059266065
 30
0.0
 11
7.309372266380053
 21
7.142101059266065
 31
0.0
  0
LINE
  5
18B
330
1F
100
AcDbEntity
  8
VISIBLE
100
AcDbLine
 10
7.309372266380053
 20
7.142101059266065
 30
0.0
 11
7.434372266380053
 21
7.142101059266065
 31
0.0
  0
LINE
  5
18C
330
1F
100
AcDbEntity
  8
VISIBLE
100
AcDbLine
 10
7.434372266380053
 20
7.017101059266065
 30
0.0
 11
7.434372266380053
 21
7.142101059266065
 31
0.0
  0
LINE
  5
18D
330
1F
100
AcDbEntity
  8
VISIBLE
100
AcDbLine
 10
7.434372266380053
 20
7.017101059266065
 30
0.0
 11
7.559372266380055
 21
7.017101059266065
 31
0.0
  0
LINE
  5
18E
330
1F
100
AcDbEntity
  8
VISIBLE
100
AcDbLine
 10
7.559372266380055
 20
7.017101059266065
 30
0.0
 11
7.559372266380055
 21
7.142101059266065
 31
0.0
  0
LINE
  5
18F
330
1F
100
AcDbEntity
  8
VISIBLE
100
AcDbLine
 10
7.559372266380055
 20
7.142101059266065
 30
0.0
 11
7.684372266380055
 21
7.142101059266065
 31
0.0
  0
LINE
  5
190
330
1F
100
AcDbEntity
  8
VISIBLE
100
AcDbLine
 10
7.684372266380055
 20
7.017101059266065
 30
0.0
 11
7.684372266380055
 21
7.142101059266065
 31
0.0
  0
LINE
  5
191
330
1F
100
AcDbEntity
  8
VISIBLE
100
AcDbLine
 10
7.684372266380055
 20
7.017101059266065
 30
0.0
 11
7.809372266380053
 21
7.017101059266065
 31
0.0
  0
LINE
  5
192
330
1F
100
AcDbEntity
  8
VISIBLE
100
AcDbLine
 10
7.809372266380053
 20
7.017101059266065
 30
0.0
 11
7.809372266380053
 21
7.142101059266065
 31
0.0
  0
LINE
  5
193
330
1F
100
AcDbEntity
  8
VISIBLE
100
AcDbLine
 10
7.809372266380053
 20
7.142101059266065
 30
0.0
 11
7.934372266380053
 21
7.142101059266065
 31
0.0
  0
LINE
  5
194
330
1F
100
AcDbEntity
  8
VISIBLE
100
AcDbLine
 10
7.934372266380053
 20
7.017101059266065
 30
0.0
 11
7.934372266380053
 21
7.142101059266065
 31
0.0
  0
LINE
  5
195
330
1F
100
AcDbEntity
  8
VISIBLE
100
AcDbLine
 10
7.934372266380053
 20
7.017101059266065
 30
0.0
 11
8.059372266380054
 21
7.017101059266065
 31
0.0
  0
LINE
  5
196
330
1F
100
AcDbEntity
  8
VISIBLE
100
AcDbLine
 10
8.059372266380054
 20
7.017101059266065
 30
0.0
 11
8.059372266380054
 21
7.142101059266065
 31
0.0
  0
LINE
  5
197
330
1F
100
AcDbEntity
  8
VISIBLE
100
AcDbLine
 10
8.059372266380054
 20
7.142101059266065
 30
0.0
 11
8.184372266380054
 21
7.142101059266065
 31
0.0
  0
LINE
  5
198
330
1F
100
AcDbEntity
  8
VISIBLE
100
AcDbLine
 10
8.184372266380054
 20
7.142101059266065
 30
0.0
 11
8.184372266380054
 21
6.784601059266065
 31
0.0
  0
LINE
  5
199
330
1F
100
AcDbEntity
  8
VISIBLE
100
AcDbLine
 10
8.059372266380054
 20
6.784601059266065
 30
0.0
 11
8.184372266380054
 21
6.784601059266065
 31
0.0
  0
LINE
  5
19A
330
1F
100
AcDbEntity
  8
VISIBLE
100
AcDbLine
 10
8.059372266380054
 20
6.784601059266065
 30
0.0
 11
8.059372266380054
 21
6.659601059266065
 31
0.0
  0
LINE
  5
19B
330
1F
100
AcDbEntity
  8
VISIBLE
100
AcDbLine
 10
8.059372266380054
 20
6.659601059266065
 30
0.0
 11
8.184372266380054
 21
6.659601059266065
 31
0.0
  0
LINE
  5
19C
330
1F
100
AcDbEntity
  8
VISIBLE
100
AcDbLine
 10
8.184372266380054
 20
6.659601059266065
 30
0.0
 11
8.184372266380054
 21
6.534601059266065
 31
0.0
  0
LINE
  5
19D
330
1F
100
AcDbEntity
  8
VISIBLE
100
AcDbLine
 10
8.059372266380054
 20
6.534601059266065
 30
0.0
 11
8.184372266380054
 21
6.534601059266065
 31
0.0
  0
LINE
  5
19E
330
1F
100
AcDbEntity
  8
VISIBLE
100
AcDbLine
 10
8.059372266380054
 20
6.534601059266065
 30
0.0
 11
8.059372266380054
 21
6.409601059266065
 31
0.0
  0
LINE
  5
19F
330
1F
100
AcDbEntity
  8
VISIBLE
100
AcDbLine
 10
8.059372266380054
 20
6.409601059266065
 30
0.0
 11
8.184372266380054
 21
6.409601059266065
 31
0.0
  0
LINE
  5
1A0
330
1F
100
AcDbEntity
  8
VISIBLE
100
AcDbLine
 10
8.184372266380054
 20
6.409601059266065
 30
0.0
 11
8.184372266380054
 21
6.284601059266065
 31
0.0
  0
LINE
  5
1A1
330
1F
100
AcDbEntity
  8
VISIBLE
100
AcDbLine
 10
8.059372266380054
 20
6.284601059266065
 30
0.0
 11
8.184372266380054
 21
6.284601059266065
 31
0.0
  0
LINE
  5
1A2
330
1F
100
AcDbEntity
  8
VISIBLE
100
AcDbLine
 10
8.059372266380054
 20
6.284601059266065
 30
0.0
 11
8.059372266380054
 21
6.159601059266065
 31
0.0
  0
LINE
  5
1A3
330
1F
100
AcDbEntity
  8
VISIBLE
100
AcDbLine
 10
8.059372266380054
 20
6.159601059266065
 30
0.0
 11
8.184372266380054
 21
6.159601059266065
 31
0.0
  0
LINE
  5
1A4
330
1F
100
AcDbEntity
  8
VISIBLE
100
AcDbLine
 10
8.184372266380054
 20
6.159601059266065
 30
0.0
 11
8.184372266380054
 21
6.034601059266065
 31
0.0
  0
LINE
  5
1A5
330
1F
100
AcDbEntity
  8
VISIBLE
100
AcDbLine
 10
8.184372266380054
 20
6.034601059266065
 30
0.0
 11
8.059372266380054
 21
6.034601059266065
 31
0.0
  0
LINE
  5
1A6
330
1F
100
AcDbEntity
  8
VISIBLE
100
AcDbLine
 10
8.059372266380054
 20
6.034601059266065
 30
0.0
 11
8.059372266380054
 21
5.784601059266065
 31
0.0
  0
LINE
  5
1A7
330
1F
100
AcDbEntity
  8
VISIBLE
100
AcDbLine
 10
8.184372266380054
 20
5.784601059266065
 30
0.0
 11
8.059372266380054
 21
5.784601059266065
 31
0.0
  0
POLYLINE
  5
1A8
330
1F
100
AcDbEntity
  8
VISIBLE
100
AcDb2dPolyline
 66
     1
 10
0.0
 20
0.0
 30
0.0
 70
   128
  0
VERTEX
  5
1A9
330
1A8
100
AcDbEntity
  8
VISIBLE
100
AcDbVertex
100
AcDb2dVertex
 10
7.031036945135214
 20
6.367387982665042
 30
0.0
  0
VERTEX
  5
1AA
330
1A8
100
AcDbEntity
  8
VISIBLE
100
AcDbVertex
100
AcDb2dVertex
 10
7.005339286035499
 20
6.380360250752059
 30
0.0
  0
VERTEX
  5
1AB
330
1A8
100
AcDbEntity
  8
VISIBLE
100
AcDbVertex
100
AcDb2dVertex
 10
6.97453576017143
 20
6.390661757762337
 30
0.0
  0
VERTEX
  5
1AC
330
1A8
100
AcDbEntity
  8
VISIBLE
100
AcDbVertex
100
AcDb2dVertex
 10
6.938626367543009
 20
6.398292503695877
 30
0.0
  0
VERTEX
  5
1AD
330
1A8
100
AcDbEntity
  8
VISIBLE
100
AcDbVertex
100
AcDb2dVertex
 10
6.88974966641165
 20
6.40385715703625
 30
0.0
  0
VERTEX
  5
1AE
330
1A8
100
AcDbEntity
  8
VISIBLE
100
AcDbVertex
100
AcDb2dVertex
 10
6.833780760042562
 20
6.405712041483041
 30
0.0
  0
SEQEND
  5
1AF
330
1A8
100
AcDbEntity
  8
VISIBLE
  0
POLYLINE
  5
1B0
330
1F
100
AcDbEntity
  8
VISIBLE
100
AcDb2dPolyline
 66
     1
 10
0.0
 20
0.0
 30
0.0
 70
   128
  0
VERTEX
  5
1B1
330
1B0
100
AcDbEntity
  8
VISIBLE
100
AcDbVertex
100
AcDb2dVertex
 10
7.093031746164333
 20
6.242271202406274
 30
0.0
  0
VERTEX
  5
1B2
330
1B0
100
AcDbEntity
  8
VISIBLE
100
AcDbVertex
100
AcDb2dVertex
 10
7.090871571764029
 20
6.272984954788771
 30
0.0
  0
VERTEX
  5
1B3
330
1B0
100
AcDbEntity
  8
VISIBLE
100
AcDbVertex
100
AcDb2dVertex
 10
7.084391048563119
 20
6.300320979927157
 30
0.0
  0
VERTEX
  5
1B4
330
1B0
100
AcDbEntity
  8
VISIBLE
100
AcDbVertex
100
AcDb2dVertex
 10
7.073590176561601
 20
6.324279277821432
 30
0.0
  0
VERTEX
  5
1B5
330
1B0
100
AcDbEntity
  8
VISIBLE
100
AcDbVertex
100
AcDb2dVertex
 10
7.055314109218217
 20
6.348179513514179
 30
0.0
  0
VERTEX
  5
1B6
330
1B0
100
AcDbEntity
  8
VISIBLE
100
AcDbVertex
100
AcDb2dVertex
 10
7.031036945135214
 20
6.367387982665042
 30
0.0
  0
SEQEND
  5
1B7
330
1B0
100
AcDbEntity
  8
VISIBLE
  0
POLYLINE
  5
1B8
330
1F
100
AcDbEntity
  8
VISIBLE
100
AcDb2dPolyline
 66
     1
 10
0.0
 20
0.0
 30
0.0
 70
   128
  0
VERTEX
  5
1B9
330
1B8
100
AcDbEntity
  8
VISIBLE
100
AcDbVertex
100
AcDb2dVertex
 10
7.037349143058178
 20
6.108249714363323
 30
0.0
  0
VERTEX
  5
1BA
330
1B8
100
AcDbEntity
  8
VISIBLE
100
AcDbVertex
100
AcDb2dVertex
 10
7.056197085514022
 20
6.125001446024481
 30
0.0
  0
VERTEX
  5
1BB
330
1B8
100
AcDbEntity
  8
VISIBLE
100
AcDbVertex
100
AcDb2dVertex
 10
7.071164569228956
 20
6.145547229450537
 30
0.0
  0
VERTEX
  5
1BC
330
1B8
100
AcDbEntity
  8
VISIBLE
100
AcDbVertex
100
AcDb2dVertex
 10
7.08225159420298
 20
6.169887064641491
 30
0.0
  0
VERTEX
  5
1BD
330
1B8
100
AcDbEntity
  8
VISIBLE
100
AcDbVertex
100
AcDb2dVertex
 10
7.090336708173994
 20
6.203444106500941
 30
0.0
  0
VERTEX
  5
1BE
330
1B8
100
AcDbEntity
  8
VISIBLE
100
AcDbVertex
100
AcDb2dVertex
 10
7.093031746164333
 20
6.242271202406274
 30
0.0
  0
SEQEND
  5
1BF
330
1B8
100
AcDbEntity
  8
VISIBLE
  0
POLYLINE
  5
1C0
330
1F
100
AcDbEntity
  8
VISIBLE
100
AcDb2dPolyline
 66
     1
 10
0.0
 20
0.0
 30
0.0
 70
   128
  0
VERTEX
  5
1C1
330
1C0
100
AcDbEntity
  8
VISIBLE
100
AcDbVertex
100
AcDb2dVertex
 10
6.85474627457241
 20
6.068460323884634
 30
0.0
  0
VERTEX
  5
1C2
330
1C0
100
AcDbEntity
  8
VISIBLE
100
AcDbVertex
100
AcDb2dVertex
 10
6.899647603548693
 20
6.069846763090647
 30
0.0
  0
VERTEX
  5
1C3
330
1C0
100
AcDbEntity
  8
VISIBLE
100
AcDbVertex
100
AcDb2dVertex
 10
6.939584458994097
 20
6.074006080708686
 30
0.0
  0
VERTEX
  5
1C4
330
1C0
100
AcDbEntity
  8
VISIBLE
100
AcDbVertex
100
AcDb2dVertex
 10
6.974556840908621
 20
6.080938276738751
 30
0.0
  0
VERTEX
  5
1C5
330
1C0
100
AcDbEntity
  8
VISIBLE
100
AcDbVertex
100
AcDb2dVertex
 10
7.009400894837436
 20
6.092668189051868
 30
0.0
  0
VERTEX
  5
1C6
330
1C0
100
AcDbEntity
  8
VISIBLE
100
AcDbVertex
100
AcDb2dVertex
 10
7.037349143058178
 20
6.108249714363323
 30
0.0
  0
SEQEND
  5
1C7
330
1C0
100
AcDbEntity
  8
VISIBLE
  0
LINE
  5
1C8
330
1F
100
AcDbEntity
  8
VISIBLE
100
AcDbLine
 10
6.657490089479759
 20
6.068460323884634
 30
0.0
 11
6.85474627457241
 21
6.068460323884634
 31
0.0
  0
LINE
  5
1C9
330
1F
100
AcDbEntity
  8
VISIBLE
100
AcDbLine
 10
6.657490089479759
 20
6.405712041483041
 30
0.0
 11
6.657490089479759
 21
6.068460323884634
 31
0.0
  0
LINE
  5
1CA
330
1F
100
AcDbEntity
  8
VISIBLE
100
AcDbLine
 10
6.833780760042562
 20
6.405712041483041
 30
0.0
 11
6.657490089479759
 21
6.405712041483041
 31
0.0
  0
POLYLINE
  5
1CB
330
1F
100
AcDbEntity
  8
VISIBLE
100
AcDb2dPolyline
 66
     1
 10
0.0
 20
0.0
 30
0.0
 70
   128
  0
VERTEX
  5
1CC
330
1CB
100
AcDbEntity
  8
VISIBLE
100
AcDbVertex
100
AcDb2dVertex
 10
7.123240121938522
 20
5.781029882749628
 30
0.0
  0
VERTEX
  5
1CD
330
1CB
100
AcDbEntity
  8
VISIBLE
100
AcDbVertex
100
AcDb2dVertex
 10
7.120993540562206
 20
5.815031588894666
 30
0.0
  0
VERTEX
  5
1CE
330
1CB
100
AcDbEntity
  8
VISIBLE
100
AcDbVertex
100
AcDb2dVertex
 10
7.11425379643326
 20
5.845498464202842
 30
0.0
  0
VERTEX
  5
1CF
330
1CB
100
AcDbEntity
  8
VISIBLE
100
AcDbVertex
100
AcDb2dVertex
 10
7.10302088955168
 20
5.872430508674158
 30
0.0
  0
VERTEX
  5
1D0
330
1CB
100
AcDbEntity
  8
VISIBLE
100
AcDbVertex
100
AcDb2dVertex
 10
7.084013779514561
 20
5.899633827365736
 30
0.0
  0
VERTEX
  5
1D1
330
1CB
100
AcDbEntity
  8
VISIBLE
100
AcDbVertex
100
AcDb2dVertex
 10
7.058765528868237
 20
5.921927157815807
 30
0.0
  0
SEQEND
  5
1D2
330
1CB
100
AcDbEntity
  8
VISIBLE
  0
POLYLINE
  5
1D3
330
1F
100
AcDbEntity
  8
VISIBLE
100
AcDb2dPolyline
 66
     1
 10
0.0
 20
0.0
 30
0.0
 70
   128
  0
VERTEX
  5
1D4
330
1D3
100
AcDbEntity
  8
VISIBLE
100
AcDbVertex
100
AcDb2dVertex
 10
7.060230860528926
 20
5.629762568238579
 30
0.0
  0
VERTEX
  5
1D5
330
1D3
100
AcDbEntity
  8
VISIBLE
100
AcDbVertex
100
AcDb2dVertex
 10
7.08155879541317
 20
5.649682181630676
 30
0.0
  0
VERTEX
  5
1D6
330
1D3
100
AcDbEntity
  8
VISIBLE
100
AcDbVertex
100
AcDb2dVertex
 10
7.098495684880068
 20
5.673419412326583
 30
0.0
  0
VERTEX
  5
1D7
330
1D3
100
AcDbEntity
  8
VISIBLE
100
AcDbVertex
100
AcDb2dVertex
 10
7.111041528929623
 20
5.700974260326299
 30
0.0
  0
VERTEX
  5
1D8
330
1D3
100
AcDbEntity
  8
VISIBLE
100
AcDbVertex
100
AcDb2dVertex
 10
7.120190473686297
 20
5.73835067788755
 30
0.0
  0
VERTEX
  5
1D9
330
1D3
100
AcDbEntity
  8
VISIBLE
100
AcDbVertex
100
AcDb2dVertex
 10
7.123240121938522
 20
5.781029882749628
 30
0.0
  0
SEQEND
  5
1DA
330
1D3
100
AcDbEntity
  8
VISIBLE
  0
POLYLINE
  5
1DB
330
1F
100
AcDbEntity
  8
VISIBLE
100
AcDb2dPolyline
 66
     1
 10
0.0
 20
0.0
 30
0.0
 70
   128
  0
VERTEX
  5
1DC
330
1DB
100
AcDbEntity
  8
VISIBLE
100
AcDbVertex
100
AcDb2dVertex
 10
6.872555690140775
 20
5.581519341255918
 30
0.0
  0
VERTEX
  5
1DD
330
1DB
100
AcDbEntity
  8
VISIBLE
100
AcDbVertex
100
AcDb2dVertex
 10
6.916949237861922
 20
5.583200349698336
 30
0.0
  0
VERTEX
  5
1DE
330
1DB
100
AcDbEntity
  8
VISIBLE
100
AcDbVertex
100
AcDb2dVertex
 10
6.957046002321373
 20
5.58824337502559
 30
0.0
  0
VERTEX
  5
1DF
330
1DB
100
AcDbEntity
  8
VISIBLE
100
AcDbVertex
100
AcDb2dVertex
 10
6.992845983519131
 20
5.59664841723768
 30
0.0
  0
VERTEX
  5
1E0
330
1DB
100
AcDbEntity
  8
VISIBLE
100
AcDbVertex
100
AcDb2dVertex
 10
7.029522603766366
 20
5.610870520552169
 30
0.0
  0
VERTEX
  5
1E1
330
1DB
100
AcDbEntity
  8
VISIBLE
100
AcDbVertex
100
AcDb2dVertex
 10
7.060230860528926
 20
5.629762568238579
 30
0.0
  0
SEQEND
  5
1E2
330
1DB
100
AcDbEntity
  8
VISIBLE
  0
LINE
  5
1E3
330
1F
100
AcDbEntity
  8
VISIBLE
100
AcDbLine
 10
6.657490089479759
 20
5.581519341255918
 30
0.0
 11
6.872555690140775
 21
5.581519341255918
 31
0.0
  0
LINE
  5
1E4
330
1F
100
AcDbEntity
  8
VISIBLE
100
AcDbLine
 10
6.862636521976116
 20
5.967014285836984
 30
0.0
 11
6.657490089479759
 21
5.967014285836984
 31
0.0
  0
POLYLINE
  5
1E5
330
1F
100
AcDbEntity
  8
VISIBLE
100
AcDb2dPolyline
 66
     1
 10
0.0
 20
0.0
 30
0.0
 70
   128
  0
VERTEX
  5
1E6
330
1E5
100
AcDbEntity
  8
VISIBLE
100
AcDbVertex
100
AcDb2dVertex
 10
7.058765528868237
 20
5.921927157815807
 30
0.0
  0
VERTEX
  5
1E7
330
1E5
100
AcDbEntity
  8
VISIBLE
100
AcDbVertex
100
AcDb2dVertex
 10
7.032354170590033
 20
5.937188649682886
 30
0.0
  0
VERTEX
  5
1E8
330
1E5
100
AcDbEntity
  8
VISIBLE
100
AcDbVertex
100
AcDb2dVertex
 10
7.001261125247898
 20
5.949308069694979
 30
0.0
  0
VERTEX
  5
1E9
330
1E5
100
AcDbEntity
  8
VISIBLE
100
AcDbVertex
100
AcDb2dVertex
 10
6.965486392841832
 20
5.958285417852085
 30
0.0
  0
VERTEX
  5
1EA
330
1E5
100
AcDbEntity
  8
VISIBLE
100
AcDbVertex
100
AcDb2dVertex
 10
6.91731296073335
 20
5.964832068840759
 30
0.0
  0
VERTEX
  5
1EB
330
1E5
100
AcDbEntity
  8
VISIBLE
100
AcDbVertex
100
AcDb2dVertex
 10
6.862636521976116
 20
5.967014285836984
 30
0.0
  0
SEQEND
  5
1EC
330
1E5
100
AcDbEntity
  8
VISIBLE
  0
LINE
  5
1ED
330
1F
100
AcDbEntity
  8
VISIBLE
100
AcDbLine
 10
6.657490089479759
 20
5.967014285836984
 30
0.0
 11
6.657490089479759
 21
5.581519341255918
 31
0.0
  0
LINE
  5
1EF
330
1F
100
AcDbEntity
  8
VISIBLE
100
AcDbLine
 10
7.412839563088405
 20
2.990840479560907
 30
0.0
 11
7.412839563088405
 21
3.115840479560907
 31
0.0
  0
LINE
  5
1F0
330
1F
100
AcDbEntity
  8
VISIBLE
100
AcDbLine
 10
7.537839563088405
 20
2.990840479560907
 30
0.0
 11
7.537839563088405
 21
3.115840479560907
 31
0.0
  0
LINE
  5
1F1
330
1F
100
AcDbEntity
  8
VISIBLE
100
AcDbLine
 10
7.537839563088405
 20
2.990840479560907
 30
0.0
 11
7.662839563088405
 21
2.990840479560907
 31
0.0
  0
LINE
  5
1F2
330
1F
100
AcDbEntity
  8
VISIBLE
100
AcDbLine
 10
7.662839563088405
 20
2.990840479560907
 30
0.0
 11
7.662839563088405
 21
3.115840479560907
 31
0.0
  0
LINE
  5
1F3
330
1F
100
AcDbEntity
  8
VISIBLE
100
AcDbLine
 10
7.787839563088405
 20
2.990840479560907
 30
0.0
 11
7.787839563088405
 21
3.115840479560907
 31
0.0
  0
LINE
  5
1F4
330
1F
100
AcDbEntity
  8
VISIBLE
100
AcDbLine
 10
7.787839563088405
 20
2.990840479560907
 30
0.0
 11
7.912839563088405
 21
2.990840479560907
 31
0.0
  0
LINE
  5
1F5
330
1F
100
AcDbEntity
  8
VISIBLE
100
AcDbLine
 10
7.912839563088405
 20
2.990840479560907
 30
0.0
 11
7.912839563088405
 21
3.115840479560907
 31
0.0
  0
LINE
  5
1F6
330
1F
100
AcDbEntity
  8
VISIBLE
100
AcDbLine
 10
8.037839563088406
 20
2.990840479560907
 30
0.0
 11
8.037839563088406
 21
3.115840479560907
 31
0.0
  0
LINE
  5
1F7
330
1F
100
AcDbEntity
  8
VISIBLE
100
AcDbLine
 10
8.037839563088406
 20
2.990840479560907
 30
0.0
 11
8.287839563088406
 21
2.990840479560907
 31
0.0
  0
LINE
  5
1F8
330
1F
100
AcDbEntity
  8
VISIBLE
100
AcDbLine
 10
8.287839563088406
 20
2.990840479560907
 30
0.0
 11
8.287839563088406
 21
3.115840479560907
 31
0.0
  0
LINE
  5
1F9
330
1F
100
AcDbEntity
  8
VISIBLE
100
AcDbLine
 10
8.412839563088406
 20
2.990840479560907
 30
0.0
 11
8.412839563088406
 21
3.115840479560907
 31
0.0
  0
LINE
  5
1FA
330
1F
100
AcDbEntity
  8
VISIBLE
100
AcDbLine
 10
8.412839563088406
 20
2.990840479560907
 30
0.0
 11
8.537839563088406
 21
2.990840479560907
 31
0.0
  0
LINE
  5
1FB
330
1F
100
AcDbEntity
  8
VISIBLE
100
AcDbLine
 10
8.537839563088406
 20
2.990840479560907
 30
0.0
 11
8.537839563088406
 21
3.115840479560907
 31
0.0
  0
LINE
  5
1FC
330
1F
100
AcDbEntity
  8
VISIBLE
100
AcDbLine
 10
8.662839563088406
 20
2.990840479560907
 30
0.0
 11
8.662839563088406
 21
3.115840479560907
 31
0.0
  0
LINE
  5
1FD
330
1F
100
AcDbEntity
  8
VISIBLE
100
AcDbLine
 10
8.662839563088406
 20
2.990840479560907
 30
0.0
 11
8.787839563088406
 21
2.990840479560907
 31
0.0
  0
LINE
  5
1FE
330
1F
100
AcDbEntity
  8
VISIBLE
100
AcDbLine
 10
8.787839563088406
 20
2.990840479560907
 30
0.0
 11
8.787839563088406
 21
3.115840479560907
 31
0.0
  0
LINE
  5
1FF
330
1F
100
AcDbEntity
  8
VISIBLE
100
AcDbLine
 10
8.912839563088406
 20
2.990840479560907
 30
0.0
 11
8.912839563088406
 21
3.115840479560907
 31
0.0
  0
LINE
  5
200
330
1F
100
AcDbEntity
  8
VISIBLE
100
AcDbLine
 10
8.912839563088406
 20
2.990840479560907
 30
0.0
 11
9.287839563088406
 21
2.990840479560907
 31
0.0
  0
LINE
  5
201
330
1F
100
AcDbEntity
  8
VISIBLE
100
AcDbLine
 10
9.287839563088406
 20
2.758340479560907
 30
0.0
 11
9.287839563088406
 21
2.990840479560907
 31
0.0
  0
LINE
  5
202
330
1F
100
AcDbEntity
  8
VISIBLE
100
AcDbLine
 10
9.287839563088406
 20
2.758340479560907
 30
0.0
 11
9.412839563088406
 21
2.758340479560907
 31
0.0
  0
LINE
  5
203
330
1F
100
AcDbEntity
  8
VISIBLE
100
AcDbLine
 10
9.287839563088406
 20
2.633340479560907
 30
0.0
 11
9.412839563088406
 21
2.633340479560907
 31
0.0
  0
LINE
  5
204
330
1F
100
AcDbEntity
  8
VISIBLE
100
AcDbLine
 10
9.287839563088406
 20
2.508340479560907
 30
0.0
 11
9.287839563088406
 21
2.633340479560907
 31
0.0
  0
LINE
  5
205
330
1F
100
AcDbEntity
  8
VISIBLE
100
AcDbLine
 10
9.287839563088406
 20
2.508340479560907
 30
0.0
 11
9.412839563088406
 21
2.508340479560907
 31
0.0
  0
LINE
  5
206
330
1F
100
AcDbEntity
  8
VISIBLE
100
AcDbLine
 10
9.287839563088406
 20
2.258340479560907
 30
0.0
 11
9.287839563088406
 21
2.383340479560907
 31
0.0
  0
LINE
  5
207
330
1F
100
AcDbEntity
  8
VISIBLE
100
AcDbLine
 10
9.287839563088406
 20
2.258340479560907
 30
0.0
 11
9.412839563088406
 21
2.258340479560907
 31
0.0
  0
LINE
  5
208
330
1F
100
AcDbEntity
  8
VISIBLE
100
AcDbLine
 10
9.287839563088406
 20
2.133340479560907
 30
0.0
 11
9.412839563088406
 21
2.133340479560907
 31
0.0
  0
LINE
  5
209
330
1F
100
AcDbEntity
  8
VISIBLE
100
AcDbLine
 10
9.287839563088406
 20
2.008340479560907
 30
0.0
 11
9.287839563088406
 21
2.133340479560907
 31
0.0
  0
LINE
  5
20A
330
1F
100
AcDbEntity
  8
VISIBLE
100
AcDbLine
 10
9.287839563088406
 20
2.008340479560907
 30
0.0
 11
9.412839563088406
 21
2.008340479560907
 31
0.0
  0
LINE
  5
20B
330
1F
100
AcDbEntity
  8
VISIBLE
100
AcDbLine
 10
9.287839563088406
 20
1.758340479560907
 30
0.0
 11
9.412839563088406
 21
1.758340479560907
 31
0.0
  0
LINE
  5
20C
330
1F
100
AcDbEntity
  8
VISIBLE
100
AcDbLine
 10
9.287839563088406
 20
1.633340479560907
 30
0.0
 11
9.287839563088406
 21
1.758340479560907
 31
0.0
  0
LINE
  5
20D
330
1F
100
AcDbEntity
  8
VISIBLE
100
AcDbLine
 10
9.287839563088406
 20
1.633340479560907
 30
0.0
 11
9.412839563088406
 21
1.633340479560907
 31
0.0
  0
LINE
  5
20E
330
1F
100
AcDbEntity
  8
VISIBLE
100
AcDbLine
 10
9.287839563088406
 20
1.508340479560907
 30
0.0
 11
9.412839563088406
 21
1.508340479560907
 31
0.0
  0
LINE
  5
20F
330
1F
100
AcDbEntity
  8
VISIBLE
100
AcDbLine
 10
9.287839563088406
 20
1.383340479560907
 30
0.0
 11
9.287839563088406
 21
1.508340479560907
 31
0.0
  0
LINE
  5
210
330
1F
100
AcDbEntity
  8
VISIBLE
100
AcDbLine
 10
9.287839563088406
 20
1.383340479560907
 30
0.0
 11
9.412839563088406
 21
1.383340479560907
 31
0.0
  0
LINE
  5
211
330
1F
100
AcDbEntity
  8
VISIBLE
100
AcDbLine
 10
9.287839563088406
 20
1.258340479560907
 30
0.0
 11
9.412839563088406
 21
1.258340479560907
 31
0.0
  0
LINE
  5
212
330
1F
100
AcDbEntity
  8
VISIBLE
100
AcDbLine
 10
9.287839563088406
 20
1.133340479560907
 30
0.0
 11
9.287839563088406
 21
1.258340479560907
 31
0.0
  0
LINE
  5
213
330
1F
100
AcDbEntity
  8
VISIBLE
100
AcDbLine
 10
9.287839563088406
 20
1.133340479560907
 30
0.0
 11
9.412839563088406
 21
1.133340479560907
 31
0.0
  0
LINE
  5
214
330
1F
100
AcDbEntity
  8
VISIBLE
100
AcDbLine
 10
9.287839563088406
 20
1.008340479560907
 30
0.0
 11
9.412839563088406
 21
1.008340479560907
 31
0.0
  0
LINE
  5
215
330
1F
100
AcDbEntity
  8
VISIBLE
100
AcDbLine
 10
9.287839563088406
 20
0.925840479560907
 30
0.0
 11
9.287839563088406
 21
1.008340479560907
 31
0.0
  0
LINE
  5
216
330
1F
100
AcDbEntity
  8
VISIBLE
100
AcDbLine
 10
7.287839563088405
 20
1.008340479560907
 30
0.0
 11
7.287839563088405
 21
0.925840479560907
 31
0.0
  0
LINE
  5
217
330
1F
100
AcDbEntity
  8
VISIBLE
100
AcDbLine
 10
7.287839563088405
 20
1.008340479560907
 30
0.0
 11
7.162839563088405
 21
1.008340479560907
 31
0.0
  0
LINE
  5
218
330
1F
100
AcDbEntity
  8
VISIBLE
100
AcDbLine
 10
7.287839563088405
 20
1.133340479560907
 30
0.0
 11
7.162839563088405
 21
1.133340479560907
 31
0.0
  0
LINE
  5
219
330
1F
100
AcDbEntity
  8
VISIBLE
100
AcDbLine
 10
7.287839563088405
 20
1.258340479560907
 30
0.0
 11
7.287839563088405
 21
1.133340479560907
 31
0.0
  0
LINE
  5
21A
330
1F
100
AcDbEntity
  8
VISIBLE
100
AcDbLine
 10
7.287839563088405
 20
1.258340479560907
 30
0.0
 11
7.162839563088405
 21
1.258340479560907
 31
0.0
  0
LINE
  5
21B
330
1F
100
AcDbEntity
  8
VISIBLE
100
AcDbLine
 10
7.287839563088405
 20
1.383340479560907
 30
0.0
 11
7.162839563088405
 21
1.383340479560907
 31
0.0
  0
LINE
  5
21C
330
1F
100
AcDbEntity
  8
VISIBLE
100
AcDbLine
 10
7.287839563088405
 20
1.508340479560907
 30
0.0
 11
7.287839563088405
 21
1.383340479560907
 31
0.0
  0
LINE
  5
21D
330
1F
100
AcDbEntity
  8
VISIBLE
100
AcDbLine
 10
7.287839563088405
 20
1.508340479560907
 30
0.0
 11
7.162839563088405
 21
1.508340479560907
 31
0.0
  0
LINE
  5
21E
330
1F
100
AcDbEntity
  8
VISIBLE
100
AcDbLine
 10
7.287839563088405
 20
1.633340479560907
 30
0.0
 11
7.162839563088405
 21
1.633340479560907
 31
0.0
  0
LINE
  5
21F
330
1F
100
AcDbEntity
  8
VISIBLE
100
AcDbLine
 10
7.287839563088405
 20
1.758340479560907
 30
0.0
 11
7.287839563088405
 21
1.633340479560907
 31
0.0
  0
LINE
  5
220
330
1F
100
AcDbEntity
  8
VISIBLE
100
AcDbLine
 10
7.287839563088405
 20
1.758340479560907
 30
0.0
 11
7.162839563088405
 21
1.758340479560907
 31
0.0
  0
LINE
  5
221
330
1F
100
AcDbEntity
  8
VISIBLE
100
AcDbLine
 10
7.287839563088405
 20
2.008340479560907
 30
0.0
 11
7.162839563088405
 21
2.008340479560907
 31
0.0
  0
LINE
  5
222
330
1F
100
AcDbEntity
  8
VISIBLE
100
AcDbLine
 10
7.287839563088405
 20
2.133340479560907
 30
0.0
 11
7.287839563088405
 21
2.008340479560907
 31
0.0
  0
LINE
  5
223
330
1F
100
AcDbEntity
  8
VISIBLE
100
AcDbLine
 10
7.287839563088405
 20
2.133340479560907
 30
0.0
 11
7.162839563088405
 21
2.133340479560907
 31
0.0
  0
LINE
  5
224
330
1F
100
AcDbEntity
  8
VISIBLE
100
AcDbLine
 10
7.287839563088405
 20
2.258340479560907
 30
0.0
 11
7.162839563088405
 21
2.258340479560907
 31
0.0
  0
LINE
  5
225
330
1F
100
AcDbEntity
  8
VISIBLE
100
AcDbLine
 10
7.287839563088405
 20
2.383340479560907
 30
0.0
 11
7.287839563088405
 21
2.258340479560907
 31
0.0
  0
LINE
  5
226
330
1F
100
AcDbEntity
  8
VISIBLE
100
AcDbLine
 10
7.287839563088405
 20
2.383340479560907
 30
0.0
 11
7.162839563088405
 21
2.383340479560907
 31
0.0
  0
LINE
  5
227
330
1F
100
AcDbEntity
  8
VISIBLE
100
AcDbLine
 10
7.287839563088405
 20
2.508340479560907
 30
0.0
 11
7.162839563088405
 21
2.508340479560907
 31
0.0
  0
LINE
  5
228
330
1F
100
AcDbEntity
  8
VISIBLE
100
AcDbLine
 10
7.287839563088405
 20
2.633340479560907
 30
0.0
 11
7.287839563088405
 21
2.508340479560907
 31
0.0
  0
LINE
  5
229
330
1F
100
AcDbEntity
  8
VISIBLE
100
AcDbLine
 10
7.287839563088405
 20
2.633340479560907
 30
0.0
 11
7.162839563088405
 21
2.633340479560907
 31
0.0
  0
LINE
  5
22A
330
1F
100
AcDbEntity
  8
VISIBLE
100
AcDbLine
 10
7.287839563088405
 20
2.758340479560907
 30
0.0
 11
7.162839563088405
 21
2.758340479560907
 31
0.0
  0
LINE
  5
22B
330
1F
100
AcDbEntity
  8
VISIBLE
100
AcDbLine
 10
7.287839563088405
 20
2.990840479560907
 30
0.0
 11
7.287839563088405
 21
2.758340479560907
 31
0.0
  0
LINE
  5
22C
330
1F
100
AcDbEntity
  8
VISIBLE
100
AcDbLine
 10
7.287839563088405
 20
2.990840479560907
 30
0.0
 11
7.412839563088405
 21
2.990840479560907
 31
0.0
  0
CIRCLE
  5
22D
330
1F
100
AcDbEntity
  8
VISIBLE
100
AcDbCircle
 10
-7.737839563088404
 20
1.495840479560907
 30
-0.0000000000000018
 40
0.05
210
-2.449293598294706E-16
220
6.123233995736766E-17
230
-1.0
  0
CIRCLE
  5
22E
330
1F
100
AcDbEntity
  8
VISIBLE
100
AcDbCircle
 10
-7.737839563088404
 20
2.605840479560907
 30
-0.0000000000000017
 40
0.05
210
-2.449293598294706E-16
220
6.123233995736766E-17
230
-1.0
  0
ARC
  5
22F
330
1F
100
AcDbEntity
  8
VISIBLE
100
AcDbCircle
 10
-7.737839563088404
 20
2.245840479560907
 30
-0.0000000000000018
 40
0.25
210
-2.449293598294706E-16
220
6.123233995736766E-17
230
-1.0
100
AcDbArc
 50
298.2569481283289
 51
241.7430518716711
  0
ARC
  5
230
330
1F
100
AcDbEntity
  8
VISIBLE
100
AcDbCircle
 10
-7.737839563088404
 20
2.005840479560907
 30
-0.0000000000000018
 40
0.12
210
-2.449293598294706E-16
220
6.123233995736766E-17
230
-1.0
100
AcDbArc
 50
170.5067996753531
 51
9.493200324646661
  0
LINE
  5
231
330
1F
100
AcDbEntity
  8
VISIBLE
100
AcDbLine
 10
7.287839563088405
 20
0.925840479560907
 30
0.0
 11
9.287839563088406
 21
0.925840479560907
 31
0.0
  0
LINE
  5
232
330
1F
100
AcDbEntity
  8
VISIBLE
100
AcDbLine
 10
8.537839563088406
 20
3.115840479560907
 30
0.0
 11
8.662839563088406
 21
3.115840479560907
 31
0.0
  0
LINE
  5
233
330
1F
100
AcDbEntity
  8
VISIBLE
100
AcDbLine
 10
8.787839563088406
 20
3.115840479560907
 30
0.0
 11
8.912839563088406
 21
3.115840479560907
 31
0.0
  0
LINE
  5
234
330
1F
100
AcDbEntity
  8
VISIBLE
100
AcDbLine
 10
7.412839563088405
 20
3.115840479560907
 30
0.0
 11
7.537839563088405
 21
3.115840479560907
 31
0.0
  0
LINE
  5
235
330
1F
100
AcDbEntity
  8
VISIBLE
100
AcDbLine
 10
7.662839563088405
 20
3.115840479560907
 30
0.0
 11
7.787839563088405
 21
3.115840479560907
 31
0.0
  0
LINE
  5
236
330
1F
100
AcDbEntity
  8
VISIBLE
100
AcDbLine
 10
7.912839563088405
 20
3.115840479560907
 30
0.0
 11
8.037839563088406
 21
3.115840479560907
 31
0.0
  0
LINE
  5
237
330
1F
100
AcDbEntity
  8
VISIBLE
100
AcDbLine
 10
8.287839563088406
 20
3.115840479560907
 30
0.0
 11
8.412839563088406
 21
3.115840479560907
 31
0.0
  0
LINE
  5
238
330
1F
100
AcDbEntity
  8
VISIBLE
100
AcDbLine
 10
9.412839563088406
 20
1.383340479560907
 30
0.0
 11
9.412839563088406
 21
1.258340479560907
 31
0.0
  0
LINE
  5
239
330
1F
100
AcDbEntity
  8
VISIBLE
100
AcDbLine
 10
9.412839563088406
 20
1.133340479560907
 30
0.0
 11
9.412839563088406
 21
1.008340479560907
 31
0.0
  0
LINE
  5
23A
330
1F
100
AcDbEntity
  8
VISIBLE
100
AcDbLine
 10
9.412839563088406
 20
2.758340479560907
 30
0.0
 11
9.412839563088406
 21
2.633340479560907
 31
0.0
  0
LINE
  5
23B
330
1F
100
AcDbEntity
  8
VISIBLE
100
AcDbLine
 10
9.412839563088406
 20
2.508340479560907
 30
0.0
 11
9.412839563088406
 21
2.383340479560907
 31
0.0
  0
LINE
  5
23C
330
1F
100
AcDbEntity
  8
VISIBLE
100
AcDbLine
 10
9.412839563088406
 20
2.258340479560907
 30
0.0
 11
9.412839563088406
 21
2.133340479560907
 31
0.0
  0
LINE
  5
23D
330
1F
100
AcDbEntity
  8
VISIBLE
100
AcDbLine
 10
9.412839563088406
 20
2.008340479560907
 30
0.0
 11
9.412839563088406
 21
1.758340479560907
 31
0.0
  0
LINE
  5
23E
330
1F
100
AcDbEntity
  8
VISIBLE
100
AcDbLine
 10
9.412839563088406
 20
1.633340479560907
 30
0.0
 11
9.412839563088406
 21
1.508340479560907
 31
0.0
  0
LINE
  5
23F
330
1F
100
AcDbEntity
  8
VISIBLE
100
AcDbLine
 10
9.287839563088406
 20
2.383340479560907
 30
0.0
 11
9.412839563088406
 21
2.383340479560907
 31
0.0
  0
LINE
  5
240
330
1F
100
AcDbEntity
  8
VISIBLE
100
AcDbLine
 10
7.162839563088405
 20
1.133340479560907
 30
0.0
 11
7.162839563088405
 21
1.008340479560907
 31
0.0
  0
LINE
  5
241
330
1F
100
AcDbEntity
  8
VISIBLE
100
AcDbLine
 10
7.162839563088405
 20
1.383340479560907
 30
0.0
 11
7.162839563088405
 21
1.258340479560907
 31
0.0
  0
LINE
  5
242
330
1F
100
AcDbEntity
  8
VISIBLE
100
AcDbLine
 10
7.162839563088405
 20
1.633340479560907
 30
0.0
 11
7.162839563088405
 21
1.508340479560907
 31
0.0
  0
LINE
  5
243
330
1F
100
AcDbEntity
  8
VISIBLE
100
AcDbLine
 10
7.162839563088405
 20
2.008340479560907
 30
0.0
 11
7.162839563088405
 21
1.758340479560907
 31
0.0
  0
LINE
  5
244
330
1F
100
AcDbEntity
  8
VISIBLE
100
AcDbLine
 10
7.162839563088405
 20
2.258340479560907
 30
0.0
 11
7.162839563088405
 21
2.133340479560907
 31
0.0
  0
LINE
  5
245
330
1F
100
AcDbEntity
  8
VISIBLE
100
AcDbLine
 10
7.162839563088405
 20
2.508340479560907
 30
0.0
 11
7.162839563088405
 21
2.383340479560907
 31
0.0
  0
LINE
  5
246
330
1F
100
AcDbEntity
  8
VISIBLE
100
AcDbLine
 10
7.162839563088405
 20
2.758340479560907
 30
0.0
 11
7.162839563088405
 21
2.633340479560907
 31
0.0
  0
LINE
  5
248
330
1F
100
AcDbEntity
  8
VISIBLE
100
AcDbLine
 10
0.2375
 20
0.9054030833389173
 30
0.0
 11
0.2375
 21
0.9879030833389173
 31
0.0
  0
LINE
  5
249
330
1F
100
AcDbEntity
  8
VISIBLE
100
AcDbLine
 10
0.2375
 20
0.9879030833389173
 30
0.0
 11
0.1125000000000003
 21
0.9879030833389173
 31
0.0
  0
LINE
  5
24A
330
1F
100
AcDbEntity
  8
VISIBLE
100
AcDbLine
 10
0.2375
 20
1.112903083338917
 30
0.0
 11
0.1125000000000003
 21
1.112903083338917
 31
0.0
  0
LINE
  5
24B
330
1F
100
AcDbEntity
  8
VISIBLE
100
AcDbLine
 10
0.2375
 20
1.112903083338917
 30
0.0
 11
0.2375
 21
1.237903083338917
 31
0.0
  0
LINE
  5
24C
330
1F
100
AcDbEntity
  8
VISIBLE
100
AcDbLine
 10
0.2375
 20
1.237903083338917
 30
0.0
 11
0.1125000000000003
 21
1.237903083338917
 31
0.0
  0
LINE
  5
24D
330
1F
100
AcDbEntity
  8
VISIBLE
100
AcDbLine
 10
0.2375
 20
1.362903083338917
 30
0.0
 11
0.1125000000000003
 21
1.362903083338917
 31
0.0
  0
LINE
  5
24E
330
1F
100
AcDbEntity
  8
VISIBLE
100
AcDbLine
 10
0.2375
 20
1.362903083338917
 30
0.0
 11
0.2375
 21
1.487903083338917
 31
0.0
  0
LINE
  5
24F
330
1F
100
AcDbEntity
  8
VISIBLE
100
AcDbLine
 10
0.2375
 20
1.487903083338917
 30
0.0
 11
0.1125000000000003
 21
1.487903083338917
 31
0.0
  0
LINE
  5
250
330
1F
100
AcDbEntity
  8
VISIBLE
100
AcDbLine
 10
0.2375
 20
1.612903083338917
 30
0.0
 11
0.1125000000000003
 21
1.612903083338917
 31
0.0
  0
LINE
  5
251
330
1F
100
AcDbEntity
  8
VISIBLE
100
AcDbLine
 10
0.2375
 20
1.612903083338917
 30
0.0
 11
0.2375
 21
1.737903083338917
 31
0.0
  0
LINE
  5
252
330
1F
100
AcDbEntity
  8
VISIBLE
100
AcDbLine
 10
0.2375
 20
1.737903083338917
 30
0.0
 11
0.1125000000000003
 21
1.737903083338917
 31
0.0
  0
LINE
  5
253
330
1F
100
AcDbEntity
  8
VISIBLE
100
AcDbLine
 10
0.2375
 20
1.987903083338917
 30
0.0
 11
0.1125000000000003
 21
1.987903083338917
 31
0.0
  0
LINE
  5
254
330
1F
100
AcDbEntity
  8
VISIBLE
100
AcDbLine
 10
0.2375
 20
1.987903083338917
 30
0.0
 11
0.2375
 21
2.112903083338917
 31
0.0
  0
LINE
  5
255
330
1F
100
AcDbEntity
  8
VISIBLE
100
AcDbLine
 10
0.2375
 20
2.112903083338917
 30
0.0
 11
0.1125000000000003
 21
2.112903083338917
 31
0.0
  0
LINE
  5
256
330
1F
100
AcDbEntity
  8
VISIBLE
100
AcDbLine
 10
0.2375
 20
2.237903083338917
 30
0.0
 11
0.1125000000000003
 21
2.237903083338917
 31
0.0
  0
LINE
  5
257
330
1F
100
AcDbEntity
  8
VISIBLE
100
AcDbLine
 10
0.2375
 20
2.237903083338917
 30
0.0
 11
0.2375
 21
2.362903083338917
 31
0.0
  0
LINE
  5
258
330
1F
100
AcDbEntity
  8
VISIBLE
100
AcDbLine
 10
0.2375
 20
2.487903083338917
 30
0.0
 11
0.1125000000000003
 21
2.487903083338917
 31
0.0
  0
LINE
  5
259
330
1F
100
AcDbEntity
  8
VISIBLE
100
AcDbLine
 10
0.2375
 20
2.487903083338917
 30
0.0
 11
0.2375
 21
2.612903083338917
 31
0.0
  0
LINE
  5
25A
330
1F
100
AcDbEntity
  8
VISIBLE
100
AcDbLine
 10
0.2375
 20
2.612903083338917
 30
0.0
 11
0.1125000000000003
 21
2.612903083338917
 31
0.0
  0
LINE
  5
25B
330
1F
100
AcDbEntity
  8
VISIBLE
100
AcDbLine
 10
0.2375
 20
2.737903083338917
 30
0.0
 11
0.1125000000000003
 21
2.737903083338917
 31
0.0
  0
LINE
  5
25C
330
1F
100
AcDbEntity
  8
VISIBLE
100
AcDbLine
 10
0.2375
 20
2.737903083338917
 30
0.0
 11
0.2375
 21
2.970403083338917
 31
0.0
  0
LINE
  5
25D
330
1F
100
AcDbEntity
  8
VISIBLE
100
AcDbLine
 10
0.6125
 20
2.970403083338917
 30
0.0
 11
0.2375
 21
2.970403083338917
 31
0.0
  0
LINE
  5
25E
330
1F
100
AcDbEntity
  8
VISIBLE
100
AcDbLine
 10
0.6125
 20
2.970403083338917
 30
0.0
 11
0.6125
 21
3.095403083338917
 31
0.0
  0
LINE
  5
25F
330
1F
100
AcDbEntity
  8
VISIBLE
100
AcDbLine
 10
0.7375
 20
2.970403083338917
 30
0.0
 11
0.7375
 21
3.095403083338917
 31
0.0
  0
LINE
  5
260
330
1F
100
AcDbEntity
  8
VISIBLE
100
AcDbLine
 10
0.8625
 20
2.970403083338917
 30
0.0
 11
0.7375
 21
2.970403083338917
 31
0.0
  0
LINE
  5
261
330
1F
100
AcDbEntity
  8
VISIBLE
100
AcDbLine
 10
0.8625
 20
2.970403083338917
 30
0.0
 11
0.8625
 21
3.095403083338917
 31
0.0
  0
LINE
  5
262
330
1F
100
AcDbEntity
  8
VISIBLE
100
AcDbLine
 10
0.9875
 20
2.970403083338917
 30
0.0
 11
0.9875
 21
3.095403083338917
 31
0.0
  0
LINE
  5
263
330
1F
100
AcDbEntity
  8
VISIBLE
100
AcDbLine
 10
1.1125
 20
2.970403083338917
 30
0.0
 11
0.9875
 21
2.970403083338917
 31
0.0
  0
LINE
  5
264
330
1F
100
AcDbEntity
  8
VISIBLE
100
AcDbLine
 10
1.1125
 20
2.970403083338917
 30
0.0
 11
1.1125
 21
3.095403083338917
 31
0.0
  0
LINE
  5
265
330
1F
100
AcDbEntity
  8
VISIBLE
100
AcDbLine
 10
1.2375
 20
2.970403083338917
 30
0.0
 11
1.2375
 21
3.095403083338917
 31
0.0
  0
LINE
  5
266
330
1F
100
AcDbEntity
  8
VISIBLE
100
AcDbLine
 10
1.4875
 20
2.970403083338917
 30
0.0
 11
1.2375
 21
2.970403083338917
 31
0.0
  0
LINE
  5
267
330
1F
100
AcDbEntity
  8
VISIBLE
100
AcDbLine
 10
1.4875
 20
2.970403083338917
 30
0.0
 11
1.4875
 21
3.095403083338917
 31
0.0
  0
LINE
  5
268
330
1F
100
AcDbEntity
  8
VISIBLE
100
AcDbLine
 10
1.6125
 20
2.970403083338917
 30
0.0
 11
1.6125
 21
3.095403083338917
 31
0.0
  0
LINE
  5
269
330
1F
100
AcDbEntity
  8
VISIBLE
100
AcDbLine
 10
1.7375
 20
2.970403083338917
 30
0.0
 11
1.6125
 21
2.970403083338917
 31
0.0
  0
LINE
  5
26A
330
1F
100
AcDbEntity
  8
VISIBLE
100
AcDbLine
 10
1.7375
 20
2.970403083338917
 30
0.0
 11
1.7375
 21
3.095403083338917
 31
0.0
  0
LINE
  5
26B
330
1F
100
AcDbEntity
  8
VISIBLE
100
AcDbLine
 10
1.8625
 20
2.970403083338917
 30
0.0
 11
1.8625
 21
3.095403083338917
 31
0.0
  0
LINE
  5
26C
330
1F
100
AcDbEntity
  8
VISIBLE
100
AcDbLine
 10
1.9875
 20
2.970403083338917
 30
0.0
 11
1.8625
 21
2.970403083338917
 31
0.0
  0
LINE
  5
26D
330
1F
100
AcDbEntity
  8
VISIBLE
100
AcDbLine
 10
1.9875
 20
2.970403083338917
 30
0.0
 11
1.9875
 21
3.095403083338917
 31
0.0
  0
LINE
  5
26E
330
1F
100
AcDbEntity
  8
VISIBLE
100
AcDbLine
 10
2.1125
 20
2.970403083338917
 30
0.0
 11
2.1125
 21
3.095403083338917
 31
0.0
  0
LINE
  5
26F
330
1F
100
AcDbEntity
  8
VISIBLE
100
AcDbLine
 10
2.2375
 20
2.970403083338917
 30
0.0
 11
2.1125
 21
2.970403083338917
 31
0.0
  0
LINE
  5
270
330
1F
100
AcDbEntity
  8
VISIBLE
100
AcDbLine
 10
2.2375
 20
2.737903083338917
 30
0.0
 11
2.2375
 21
2.970403083338917
 31
0.0
  0
LINE
  5
271
330
1F
100
AcDbEntity
  8
VISIBLE
100
AcDbLine
 10
2.2375
 20
2.737903083338917
 30
0.0
 11
2.3625
 21
2.737903083338917
 31
0.0
  0
LINE
  5
272
330
1F
100
AcDbEntity
  8
VISIBLE
100
AcDbLine
 10
2.2375
 20
2.612903083338917
 30
0.0
 11
2.3625
 21
2.612903083338917
 31
0.0
  0
LINE
  5
273
330
1F
100
AcDbEntity
  8
VISIBLE
100
AcDbLine
 10
2.2375
 20
2.487903083338917
 30
0.0
 11
2.2375
 21
2.612903083338917
 31
0.0
  0
LINE
  5
274
330
1F
100
AcDbEntity
  8
VISIBLE
100
AcDbLine
 10
2.2375
 20
2.487903083338917
 30
0.0
 11
2.3625
 21
2.487903083338917
 31
0.0
  0
LINE
  5
275
330
1F
100
AcDbEntity
  8
VISIBLE
100
AcDbLine
 10
2.2375
 20
2.362903083338917
 30
0.0
 11
2.3625
 21
2.362903083338917
 31
0.0
  0
LINE
  5
276
330
1F
100
AcDbEntity
  8
VISIBLE
100
AcDbLine
 10
2.2375
 20
2.237903083338917
 30
0.0
 11
2.2375
 21
2.362903083338917
 31
0.0
  0
LINE
  5
277
330
1F
100
AcDbEntity
  8
VISIBLE
100
AcDbLine
 10
2.2375
 20
2.237903083338917
 30
0.0
 11
2.3625
 21
2.237903083338917
 31
0.0
  0
LINE
  5
278
330
1F
100
AcDbEntity
  8
VISIBLE
100
AcDbLine
 10
2.2375
 20
2.112903083338917
 30
0.0
 11
2.3625
 21
2.112903083338917
 31
0.0
  0
LINE
  5
279
330
1F
100
AcDbEntity
  8
VISIBLE
100
AcDbLine
 10
2.2375
 20
1.987903083338917
 30
0.0
 11
2.2375
 21
2.112903083338917
 31
0.0
  0
LINE
  5
27A
330
1F
100
AcDbEntity
  8
VISIBLE
100
AcDbLine
 10
2.2375
 20
1.987903083338917
 30
0.0
 11
2.3625
 21
1.987903083338917
 31
0.0
  0
LINE
  5
27B
330
1F
100
AcDbEntity
  8
VISIBLE
100
AcDbLine
 10
2.2375
 20
1.737903083338917
 30
0.0
 11
2.3625
 21
1.737903083338917
 31
0.0
  0
LINE
  5
27C
330
1F
100
AcDbEntity
  8
VISIBLE
100
AcDbLine
 10
2.2375
 20
1.612903083338917
 30
0.0
 11
2.2375
 21
1.737903083338917
 31
0.0
  0
LINE
  5
27D
330
1F
100
AcDbEntity
  8
VISIBLE
100
AcDbLine
 10
2.2375
 20
1.612903083338917
 30
0.0
 11
2.3625
 21
1.612903083338917
 31
0.0
  0
LINE
  5
27E
330
1F
100
AcDbEntity
  8
VISIBLE
100
AcDbLine
 10
2.2375
 20
1.487903083338917
 30
0.0
 11
2.3625
 21
1.487903083338917
 31
0.0
  0
LINE
  5
27F
330
1F
100
AcDbEntity
  8
VISIBLE
100
AcDbLine
 10
2.2375
 20
1.362903083338917
 30
0.0
 11
2.2375
 21
1.487903083338917
 31
0.0
  0
LINE
  5
280
330
1F
100
AcDbEntity
  8
VISIBLE
100
AcDbLine
 10
2.2375
 20
1.362903083338917
 30
0.0
 11
2.3625
 21
1.362903083338917
 31
0.0
  0
LINE
  5
281
330
1F
100
AcDbEntity
  8
VISIBLE
100
AcDbLine
 10
2.2375
 20
1.237903083338917
 30
0.0
 11
2.3625
 21
1.237903083338917
 31
0.0
  0
LINE
  5
282
330
1F
100
AcDbEntity
  8
VISIBLE
100
AcDbLine
 10
2.2375
 20
1.112903083338917
 30
0.0
 11
2.2375
 21
1.237903083338917
 31
0.0
  0
LINE
  5
283
330
1F
100
AcDbEntity
  8
VISIBLE
100
AcDbLine
 10
2.2375
 20
1.112903083338917
 30
0.0
 11
2.3625
 21
1.112903083338917
 31
0.0
  0
LINE
  5
284
330
1F
100
AcDbEntity
  8
VISIBLE
100
AcDbLine
 10
2.2375
 20
0.9879030833389173
 30
0.0
 11
2.3625
 21
0.9879030833389173
 31
0.0
  0
LINE
  5
285
330
1F
100
AcDbEntity
  8
VISIBLE
100
AcDbLine
 10
2.2375
 20
0.9054030833389173
 30
0.0
 11
2.2375
 21
0.9879030833389173
 31
0.0
  0
CIRCLE
  5
286
330
1F
100
AcDbEntity
  8
VISIBLE
100
AcDbCircle
 10
1.7875
 20
1.475403083338917
 30
0.0
 40
0.05
  0
CIRCLE
  5
287
330
1F
100
AcDbEntity
  8
VISIBLE
100
AcDbCircle
 10
1.7875
 20
2.585403083338917
 30
0.0
 40
0.05
  0
ARC
  5
288
330
1F
100
AcDbEntity
  8
VISIBLE
100
AcDbCircle
 10
1.7875
 20
2.225403083338917
 30
0.0
 40
0.25
100
AcDbArc
 50
298.256948128329
 51
241.7430518716714
  0
ARC
  5
289
330
1F
100
AcDbEntity
  8
VISIBLE
100
AcDbCircle
 10
1.7875
 20
1.985403083338917
 30
0.0
 40
0.12
100
AcDbArc
 50
170.5067996753532
 51
9.493200324646798
  0
LINE
  5
28A
330
1F
100
AcDbEntity
  8
VISIBLE
100
AcDbLine
 10
2.2375
 20
0.9054030833389173
 30
0.0
 11
0.2375
 21
0.9054030833389173
 31
0.0
  0
LINE
  5
28B
330
1F
100
AcDbEntity
  8
VISIBLE
100
AcDbLine
 10
0.9875
 20
3.095403083338917
 30
0.0
 11
0.8625
 21
3.095403083338917
 31
0.0
  0
LINE
  5
28C
330
1F
100
AcDbEntity
  8
VISIBLE
100
AcDbLine
 10
0.7375
 20
3.095403083338917
 30
0.0
 11
0.6125
 21
3.095403083338917
 31
0.0
  0
LINE
  5
28D
330
1F
100
AcDbEntity
  8
VISIBLE
100
AcDbLine
 10
2.1125
 20
3.095403083338917
 30
0.0
 11
1.9875
 21
3.095403083338917
 31
0.0
  0
LINE
  5
28E
330
1F
100
AcDbEntity
  8
VISIBLE
100
AcDbLine
 10
1.8625
 20
3.095403083338917
 30
0.0
 11
1.7375
 21
3.095403083338917
 31
0.0
  0
LINE
  5
28F
330
1F
100
AcDbEntity
  8
VISIBLE
100
AcDbLine
 10
1.6125
 20
3.095403083338917
 30
0.0
 11
1.4875
 21
3.095403083338917
 31
0.0
  0
LINE
  5
290
330
1F
100
AcDbEntity
  8
VISIBLE
100
AcDbLine
 10
1.2375
 20
3.095403083338917
 30
0.0
 11
1.1125
 21
3.095403083338917
 31
0.0
  0
LINE
  5
291
330
1F
100
AcDbEntity
  8
VISIBLE
100
AcDbLine
 10
0.1125000000000003
 20
1.362903083338917
 30
0.0
 11
0.1125000000000003
 21
1.237903083338917
 31
0.0
  0
LINE
  5
292
330
1F
100
AcDbEntity
  8
VISIBLE
100
AcDbLine
 10
0.1125000000000003
 20
1.112903083338917
 30
0.0
 11
0.1125000000000003
 21
0.9879030833389173
 31
0.0
  0
LINE
  5
293
330
1F
100
AcDbEntity
  8
VISIBLE
100
AcDbLine
 10
0.1125000000000003
 20
2.737903083338917
 30
0.0
 11
0.1125000000000003
 21
2.612903083338917
 31
0.0
  0
LINE
  5
294
330
1F
100
AcDbEntity
  8
VISIBLE
100
AcDbLine
 10
0.1125000000000003
 20
2.487903083338917
 30
0.0
 11
0.1125000000000003
 21
2.362903083338917
 31
0.0
  0
LINE
  5
295
330
1F
100
AcDbEntity
  8
VISIBLE
100
AcDbLine
 10
0.1125000000000003
 20
2.237903083338917
 30
0.0
 11
0.1125000000000003
 21
2.112903083338917
 31
0.0
  0
LINE
  5
296
330
1F
100
AcDbEntity
  8
VISIBLE
100
AcDbLine
 10
0.1125000000000003
 20
1.987903083338917
 30
0.0
 11
0.1125000000000003
 21
1.737903083338917
 31
0.0
  0
LINE
  5
297
330
1F
100
AcDbEntity
  8
VISIBLE
100
AcDbLine
 10
0.1125000000000003
 20
1.612903083338917
 30
0.0
 11
0.1125000000000003
 21
1.487903083338917
 31
0.0
  0
LINE
  5
298
330
1F
100
AcDbEntity
  8
VISIBLE
100
AcDbLine
 10
0.2375
 20
2.362903083338917
 30
0.0
 11
0.1125000000000003
 21
2.362903083338917
 31
0.0
  0
LINE
  5
299
330
1F
100
AcDbEntity
  8
VISIBLE
100
AcDbLine
 10
2.3625
 20
1.612903083338917
 30
0.0
 11
2.3625
 21
1.487903083338917
 31
0.0
  0
LINE
  5
29A
330
1F
100
AcDbEntity
  8
VISIBLE
100
AcDbLine
 10
2.3625
 20
1.362903083338917
 30
0.0
 11
2.3625
 21
1.237903083338917
 31
0.0
  0
LINE
  5
29B
330
1F
100
AcDbEntity
  8
VISIBLE
100
AcDbLine
 10
2.3625
 20
1.112903083338917
 30
0.0
 11
2.3625
 21
0.9879030833389173
 31
0.0
  0
LINE
  5
29C
330
1F
100
AcDbEntity
  8
VISIBLE
100
AcDbLine
 10
2.3625
 20
2.737903083338917
 30
0.0
 11
2.3625
 21
2.612903083338917
 31
0.0
  0
LINE
  5
29D
330
1F
100
AcDbEntity
  8
VISIBLE
100
AcDbLine
 10
2.3625
 20
2.487903083338917
 30
0.0
 11
2.3625
 21
2.362903083338917
 31
0.0
  0
LINE
  5
29E
330
1F
100
AcDbEntity
  8
VISIBLE
100
AcDbLine
 10
2.3625
 20
2.237903083338917
 30
0.0
 11
2.3625
 21
2.112903083338917
 31
0.0
  0
LINE
  5
29F
330
1F
100
AcDbEntity
  8
VISIBLE
100
AcDbLine
 10
2.3625
 20
1.987903083338917
 30
0.0
 11
2.3625
 21
1.737903083338917
 31
0.0
  0
CIRCLE
  5
2A1
330
1F
100
AcDbEntity
  8
VISIBLE
100
AcDbCircle
 10
5.064804403550939
 20
2.030424363745827
 30
0.0
 40
0.05
  0
CIRCLE
  5
2A2
330
1F
100
AcDbEntity
  8
VISIBLE
100
AcDbCircle
 10
3.954804403550939
 20
2.030424363745827
 30
0.0
 40
0.05
  0
ARC
  5
2A3
330
1F
100
AcDbEntity
  8
VISIBLE
100
AcDbCircle
 10
4.464804403550938
 20
2.030424363745827
 30
0.0
 40
0.12
100
AcDbArc
 50
80.50679967535362
 51
279.4932003246464
  0
ARC
  5
2A4
330
1F
100
AcDbEntity
  8
VISIBLE
100
AcDbCircle
 10
4.704804403550939
 20
2.030424363745827
 30
0.0
 40
0.25
100
AcDbArc
 50
208.2569481283285
 51
151.7430518716713
  0
LINE
  5
2A5
330
1F
100
AcDbEntity
  8
VISIBLE
100
AcDbLine
 10
5.954804403550939
 20
1.405424363745827
 30
0.0
 11
5.954804403550939
 21
1.530424363745827
 31
0.0
  0
LINE
  5
2A6
330
1F
100
AcDbEntity
  8
VISIBLE
100
AcDbLine
 10
6.079804403550939
 20
1.405424363745827
 30
0.0
 11
5.954804403550939
 21
1.405424363745827
 31
0.0
  0
LINE
  5
2A7
330
1F
100
AcDbEntity
  8
VISIBLE
100
AcDbLine
 10
6.079804403550939
 20
1.280424363745827
 30
0.0
 11
5.954804403550939
 21
1.280424363745827
 31
0.0
  0
LINE
  5
2A8
330
1F
100
AcDbEntity
  8
VISIBLE
100
AcDbLine
 10
5.954804403550939
 20
1.155424363745827
 30
0.0
 11
5.954804403550939
 21
1.280424363745827
 31
0.0
  0
LINE
  5
2A9
330
1F
100
AcDbEntity
  8
VISIBLE
100
AcDbLine
 10
6.079804403550939
 20
1.155424363745827
 30
0.0
 11
5.954804403550939
 21
1.155424363745827
 31
0.0
  0
LINE
  5
2AA
330
1F
100
AcDbEntity
  8
VISIBLE
100
AcDbLine
 10
5.954804403550939
 20
1.030424363745827
 30
0.0
 11
6.079804403550939
 21
1.030424363745827
 31
0.0
  0
LINE
  5
2AB
330
1F
100
AcDbEntity
  8
VISIBLE
100
AcDbLine
 10
5.954804403550939
 20
0.9054243637458268
 30
0.0
 11
5.954804403550939
 21
1.030424363745827
 31
0.0
  0
LINE
  5
2AC
330
1F
100
AcDbEntity
  8
VISIBLE
100
AcDbLine
 10
5.829804403550939
 20
0.9054243637458268
 30
0.0
 11
5.829804403550939
 21
1.030424363745827
 31
0.0
  0
LINE
  5
2AD
330
1F
100
AcDbEntity
  8
VISIBLE
100
AcDbLine
 10
5.704804403550939
 20
1.030424363745827
 30
0.0
 11
5.829804403550939
 21
1.030424363745827
 31
0.0
  0
LINE
  5
2AE
330
1F
100
AcDbEntity
  8
VISIBLE
100
AcDbLine
 10
5.704804403550939
 20
0.9054243637458268
 30
0.0
 11
5.704804403550939
 21
1.030424363745827
 31
0.0
  0
LINE
  5
2AF
330
1F
100
AcDbEntity
  8
VISIBLE
100
AcDbLine
 10
5.579804403550939
 20
0.9054243637458268
 30
0.0
 11
5.579804403550939
 21
1.030424363745827
 31
0.0
  0
LINE
  5
2B0
330
1F
100
AcDbEntity
  8
VISIBLE
100
AcDbLine
 10
5.454804403550939
 20
1.030424363745827
 30
0.0
 11
5.579804403550939
 21
1.030424363745827
 31
0.0
  0
LINE
  5
2B1
330
1F
100
AcDbEntity
  8
VISIBLE
100
AcDbLine
 10
5.454804403550939
 20
0.9054243637458268
 30
0.0
 11
5.454804403550939
 21
1.030424363745827
 31
0.0
  0
LINE
  5
2B2
330
1F
100
AcDbEntity
  8
VISIBLE
100
AcDbLine
 10
5.329804403550939
 20
0.9054243637458268
 30
0.0
 11
5.329804403550939
 21
1.030424363745827
 31
0.0
  0
LINE
  5
2B3
330
1F
100
AcDbEntity
  8
VISIBLE
100
AcDbLine
 10
5.204804403550939
 20
1.030424363745827
 30
0.0
 11
5.329804403550939
 21
1.030424363745827
 31
0.0
  0
LINE
  5
2B4
330
1F
100
AcDbEntity
  8
VISIBLE
100
AcDbLine
 10
5.204804403550939
 20
0.9054243637458268
 30
0.0
 11
5.204804403550939
 21
1.030424363745827
 31
0.0
  0
LINE
  5
2B5
330
1F
100
AcDbEntity
  8
VISIBLE
100
AcDbLine
 10
5.079804403550939
 20
0.9054243637458268
 30
0.0
 11
5.079804403550939
 21
1.030424363745827
 31
0.0
  0
LINE
  5
2B6
330
1F
100
AcDbEntity
  8
VISIBLE
100
AcDbLine
 10
4.954804403550939
 20
1.030424363745827
 30
0.0
 11
5.079804403550939
 21
1.030424363745827
 31
0.0
  0
LINE
  5
2B7
330
1F
100
AcDbEntity
  8
VISIBLE
100
AcDbLine
 10
4.954804403550939
 20
0.9054243637458268
 30
0.0
 11
4.954804403550939
 21
1.030424363745827
 31
0.0
  0
LINE
  5
2B8
330
1F
100
AcDbEntity
  8
VISIBLE
100
AcDbLine
 10
4.454804403550939
 20
0.9054243637458268
 30
0.0
 11
4.454804403550939
 21
1.030424363745827
 31
0.0
  0
LINE
  5
2B9
330
1F
100
AcDbEntity
  8
VISIBLE
100
AcDbLine
 10
4.329804403550939
 20
1.030424363745827
 30
0.0
 11
4.454804403550939
 21
1.030424363745827
 31
0.0
  0
LINE
  5
2BA
330
1F
100
AcDbEntity
  8
VISIBLE
100
AcDbLine
 10
4.329804403550939
 20
0.9054243637458268
 30
0.0
 11
4.329804403550939
 21
1.030424363745827
 31
0.0
  0
LINE
  5
2BB
330
1F
100
AcDbEntity
  8
VISIBLE
100
AcDbLine
 10
4.204804403550939
 20
0.9054243637458268
 30
0.0
 11
4.204804403550939
 21
1.030424363745827
 31
0.0
  0
LINE
  5
2BC
330
1F
100
AcDbEntity
  8
VISIBLE
100
AcDbLine
 10
4.079804403550939
 20
1.030424363745827
 30
0.0
 11
4.204804403550939
 21
1.030424363745827
 31
0.0
  0
LINE
  5
2BD
330
1F
100
AcDbEntity
  8
VISIBLE
100
AcDbLine
 10
4.079804403550939
 20
0.9054243637458268
 30
0.0
 11
4.079804403550939
 21
1.030424363745827
 31
0.0
  0
LINE
  5
2BE
330
1F
100
AcDbEntity
  8
VISIBLE
100
AcDbLine
 10
3.954804403550939
 20
0.9054243637458268
 30
0.0
 11
3.954804403550939
 21
1.030424363745827
 31
0.0
  0
LINE
  5
2BF
330
1F
100
AcDbEntity
  8
VISIBLE
100
AcDbLine
 10
3.829804403550939
 20
1.030424363745827
 30
0.0
 11
3.954804403550939
 21
1.030424363745827
 31
0.0
  0
LINE
  5
2C0
330
1F
100
AcDbEntity
  8
VISIBLE
100
AcDbLine
 10
3.829804403550939
 20
0.9054243637458268
 30
0.0
 11
3.829804403550939
 21
1.030424363745827
 31
0.0
  0
LINE
  5
2C1
330
1F
100
AcDbEntity
  8
VISIBLE
100
AcDbLine
 10
3.704804403550939
 20
0.9054243637458268
 30
0.0
 11
3.704804403550939
 21
1.030424363745827
 31
0.0
  0
LINE
  5
2C2
330
1F
100
AcDbEntity
  8
VISIBLE
100
AcDbLine
 10
3.579804403550939
 20
1.030424363745827
 30
0.0
 11
3.704804403550939
 21
1.030424363745827
 31
0.0
  0
LINE
  5
2C3
330
1F
100
AcDbEntity
  8
VISIBLE
100
AcDbLine
 10
3.579804403550939
 20
0.9054243637458268
 30
0.0
 11
3.579804403550939
 21
1.030424363745827
 31
0.0
  0
LINE
  5
2C4
330
1F
100
AcDbEntity
  8
VISIBLE
100
AcDbLine
 10
3.454804403550939
 20
0.9054243637458268
 30
0.0
 11
3.579804403550939
 21
0.9054243637458268
 31
0.0
  0
LINE
  5
2C5
330
1F
100
AcDbEntity
  8
VISIBLE
100
AcDbLine
 10
3.454804403550939
 20
0.9054243637458268
 30
0.0
 11
3.454804403550939
 21
1.030424363745827
 31
0.0
  0
LINE
  5
2C6
330
1F
100
AcDbEntity
  8
VISIBLE
100
AcDbLine
 10
3.329804403550939
 20
1.030424363745827
 30
0.0
 11
3.454804403550939
 21
1.030424363745827
 31
0.0
  0
LINE
  5
2C7
330
1F
100
AcDbEntity
  8
VISIBLE
100
AcDbLine
 10
3.329804403550939
 20
1.155424363745827
 30
0.0
 11
3.329804403550939
 21
1.030424363745827
 31
0.0
  0
LINE
  5
2C8
330
1F
100
AcDbEntity
  8
VISIBLE
100
AcDbLine
 10
3.329804403550939
 20
1.155424363745827
 30
0.0
 11
3.454804403550939
 21
1.155424363745827
 31
0.0
  0
LINE
  5
2C9
330
1F
100
AcDbEntity
  8
VISIBLE
100
AcDbLine
 10
3.454804403550939
 20
1.155424363745827
 30
0.0
 11
3.454804403550939
 21
1.280424363745827
 31
0.0
  0
LINE
  5
2CA
330
1F
100
AcDbEntity
  8
VISIBLE
100
AcDbLine
 10
3.329804403550939
 20
1.280424363745827
 30
0.0
 11
3.454804403550939
 21
1.280424363745827
 31
0.0
  0
LINE
  5
2CB
330
1F
100
AcDbEntity
  8
VISIBLE
100
AcDbLine
 10
3.329804403550939
 20
1.405424363745827
 30
0.0
 11
3.329804403550939
 21
1.280424363745827
 31
0.0
  0
LINE
  5
2CC
330
1F
100
AcDbEntity
  8
VISIBLE
100
AcDbLine
 10
3.329804403550939
 20
1.405424363745827
 30
0.0
 11
3.454804403550939
 21
1.405424363745827
 31
0.0
  0
LINE
  5
2CD
330
1F
100
AcDbEntity
  8
VISIBLE
100
AcDbLine
 10
3.454804403550939
 20
1.405424363745827
 30
0.0
 11
3.454804403550939
 21
1.530424363745827
 31
0.0
  0
LINE
  5
2CE
330
1F
100
AcDbEntity
  8
VISIBLE
100
AcDbLine
 10
3.329804403550939
 20
1.530424363745827
 30
0.0
 11
3.454804403550939
 21
1.530424363745827
 31
0.0
  0
LINE
  5
2CF
330
1F
100
AcDbEntity
  8
VISIBLE
100
AcDbLine
 10
3.329804403550939
 20
1.655424363745827
 30
0.0
 11
3.329804403550939
 21
1.530424363745827
 31
0.0
  0
LINE
  5
2D0
330
1F
100
AcDbEntity
  8
VISIBLE
100
AcDbLine
 10
3.329804403550939
 20
1.655424363745827
 30
0.0
 11
3.454804403550939
 21
1.655424363745827
 31
0.0
  0
LINE
  5
2D1
330
1F
100
AcDbEntity
  8
VISIBLE
100
AcDbLine
 10
3.454804403550939
 20
1.655424363745827
 30
0.0
 11
3.454804403550939
 21
1.780424363745827
 31
0.0
  0
LINE
  5
2D2
330
1F
100
AcDbEntity
  8
VISIBLE
100
AcDbLine
 10
3.329804403550939
 20
1.780424363745827
 30
0.0
 11
3.454804403550939
 21
1.780424363745827
 31
0.0
  0
LINE
  5
2D3
330
1F
100
AcDbEntity
  8
VISIBLE
100
AcDbLine
 10
3.329804403550939
 20
2.030424363745827
 30
0.0
 11
3.329804403550939
 21
1.780424363745827
 31
0.0
  0
LINE
  5
2D4
330
1F
100
AcDbEntity
  8
VISIBLE
100
AcDbLine
 10
3.329804403550939
 20
2.030424363745827
 30
0.0
 11
3.454804403550939
 21
2.030424363745827
 31
0.0
  0
LINE
  5
2D5
330
1F
100
AcDbEntity
  8
VISIBLE
100
AcDbLine
 10
3.454804403550939
 20
2.030424363745827
 30
0.0
 11
3.454804403550939
 21
2.155424363745827
 31
0.0
  0
LINE
  5
2D6
330
1F
100
AcDbEntity
  8
VISIBLE
100
AcDbLine
 10
3.329804403550939
 20
2.155424363745827
 30
0.0
 11
3.454804403550939
 21
2.155424363745827
 31
0.0
  0
LINE
  5
2D7
330
1F
100
AcDbEntity
  8
VISIBLE
100
AcDbLine
 10
3.329804403550939
 20
2.280424363745827
 30
0.0
 11
3.329804403550939
 21
2.155424363745827
 31
0.0
  0
LINE
  5
2D8
330
1F
100
AcDbEntity
  8
VISIBLE
100
AcDbLine
 10
3.329804403550939
 20
2.280424363745827
 30
0.0
 11
3.454804403550939
 21
2.280424363745827
 31
0.0
  0
LINE
  5
2D9
330
1F
100
AcDbEntity
  8
VISIBLE
100
AcDbLine
 10
3.454804403550939
 20
2.280424363745827
 30
0.0
 11
3.454804403550939
 21
2.405424363745827
 31
0.0
  0
LINE
  5
2DA
330
1F
100
AcDbEntity
  8
VISIBLE
100
AcDbLine
 10
3.329804403550939
 20
2.405424363745827
 30
0.0
 11
3.454804403550939
 21
2.405424363745827
 31
0.0
  0
LINE
  5
2DB
330
1F
100
AcDbEntity
  8
VISIBLE
100
AcDbLine
 10
3.329804403550939
 20
2.530424363745827
 30
0.0
 11
3.329804403550939
 21
2.405424363745827
 31
0.0
  0
LINE
  5
2DC
330
1F
100
AcDbEntity
  8
VISIBLE
100
AcDbLine
 10
3.329804403550939
 20
2.530424363745827
 30
0.0
 11
3.454804403550939
 21
2.530424363745827
 31
0.0
  0
LINE
  5
2DD
330
1F
100
AcDbEntity
  8
VISIBLE
100
AcDbLine
 10
3.454804403550939
 20
2.530424363745827
 30
0.0
 11
3.454804403550939
 21
2.655424363745827
 31
0.0
  0
LINE
  5
2DE
330
1F
100
AcDbEntity
  8
VISIBLE
100
AcDbLine
 10
3.329804403550939
 20
2.655424363745827
 30
0.0
 11
3.454804403550939
 21
2.655424363745827
 31
0.0
  0
LINE
  5
2DF
330
1F
100
AcDbEntity
  8
VISIBLE
100
AcDbLine
 10
3.329804403550939
 20
3.030424363745827
 30
0.0
 11
3.329804403550939
 21
2.655424363745827
 31
0.0
  0
LINE
  5
2E0
330
1F
100
AcDbEntity
  8
VISIBLE
100
AcDbLine
 10
3.329804403550939
 20
3.030424363745827
 30
0.0
 11
3.454804403550939
 21
3.030424363745827
 31
0.0
  0
LINE
  5
2E1
330
1F
100
AcDbEntity
  8
VISIBLE
100
AcDbLine
 10
3.454804403550939
 20
3.155424363745827
 30
0.0
 11
3.454804403550939
 21
3.030424363745827
 31
0.0
  0
LINE
  5
2E2
330
1F
100
AcDbEntity
  8
VISIBLE
100
AcDbLine
 10
3.454804403550939
 20
3.155424363745827
 30
0.0
 11
3.579804403550939
 21
3.155424363745827
 31
0.0
  0
LINE
  5
2E3
330
1F
100
AcDbEntity
  8
VISIBLE
100
AcDbLine
 10
3.579804403550939
 20
3.155424363745827
 30
0.0
 11
3.579804403550939
 21
3.030424363745827
 31
0.0
  0
LINE
  5
2E4
330
1F
100
AcDbEntity
  8
VISIBLE
100
AcDbLine
 10
3.579804403550939
 20
3.030424363745827
 30
0.0
 11
3.704804403550939
 21
3.030424363745827
 31
0.0
  0
LINE
  5
2E5
330
1F
100
AcDbEntity
  8
VISIBLE
100
AcDbLine
 10
3.704804403550939
 20
3.155424363745827
 30
0.0
 11
3.704804403550939
 21
3.030424363745827
 31
0.0
  0
LINE
  5
2E6
330
1F
100
AcDbEntity
  8
VISIBLE
100
AcDbLine
 10
3.704804403550939
 20
3.155424363745827
 30
0.0
 11
3.829804403550939
 21
3.155424363745827
 31
0.0
  0
LINE
  5
2E7
330
1F
100
AcDbEntity
  8
VISIBLE
100
AcDbLine
 10
3.829804403550939
 20
3.155424363745827
 30
0.0
 11
3.829804403550939
 21
3.030424363745827
 31
0.0
  0
LINE
  5
2E8
330
1F
100
AcDbEntity
  8
VISIBLE
100
AcDbLine
 10
3.829804403550939
 20
3.030424363745827
 30
0.0
 11
3.954804403550939
 21
3.030424363745827
 31
0.0
  0
LINE
  5
2E9
330
1F
100
AcDbEntity
  8
VISIBLE
100
AcDbLine
 10
3.954804403550939
 20
3.155424363745827
 30
0.0
 11
3.954804403550939
 21
3.030424363745827
 31
0.0
  0
LINE
  5
2EA
330
1F
100
AcDbEntity
  8
VISIBLE
100
AcDbLine
 10
3.954804403550939
 20
3.155424363745827
 30
0.0
 11
4.079804403550939
 21
3.155424363745827
 31
0.0
  0
LINE
  5
2EB
330
1F
100
AcDbEntity
  8
VISIBLE
100
AcDbLine
 10
4.079804403550939
 20
3.155424363745827
 30
0.0
 11
4.079804403550939
 21
3.030424363745827
 31
0.0
  0
LINE
  5
2EC
330
1F
100
AcDbEntity
  8
VISIBLE
100
AcDbLine
 10
4.079804403550939
 20
3.030424363745827
 30
0.0
 11
4.204804403550939
 21
3.030424363745827
 31
0.0
  0
LINE
  5
2ED
330
1F
100
AcDbEntity
  8
VISIBLE
100
AcDbLine
 10
4.204804403550939
 20
3.155424363745827
 30
0.0
 11
4.204804403550939
 21
3.030424363745827
 31
0.0
  0
LINE
  5
2EE
330
1F
100
AcDbEntity
  8
VISIBLE
100
AcDbLine
 10
4.204804403550939
 20
3.155424363745827
 30
0.0
 11
4.329804403550939
 21
3.155424363745827
 31
0.0
  0
LINE
  5
2EF
330
1F
100
AcDbEntity
  8
VISIBLE
100
AcDbLine
 10
4.329804403550939
 20
3.155424363745827
 30
0.0
 11
4.329804403550939
 21
3.030424363745827
 31
0.0
  0
LINE
  5
2F0
330
1F
100
AcDbEntity
  8
VISIBLE
100
AcDbLine
 10
4.329804403550939
 20
3.030424363745827
 30
0.0
 11
4.454804403550939
 21
3.030424363745827
 31
0.0
  0
LINE
  5
2F1
330
1F
100
AcDbEntity
  8
VISIBLE
100
AcDbLine
 10
4.454804403550939
 20
3.155424363745827
 30
0.0
 11
4.454804403550939
 21
3.030424363745827
 31
0.0
  0
LINE
  5
2F2
330
1F
100
AcDbEntity
  8
VISIBLE
100
AcDbLine
 10
4.454804403550939
 20
3.155424363745827
 30
0.0
 11
4.954804403550939
 21
3.155424363745827
 31
0.0
  0
LINE
  5
2F3
330
1F
100
AcDbEntity
  8
VISIBLE
100
AcDbLine
 10
4.954804403550939
 20
3.155424363745827
 30
0.0
 11
4.954804403550939
 21
3.030424363745827
 31
0.0
  0
LINE
  5
2F4
330
1F
100
AcDbEntity
  8
VISIBLE
100
AcDbLine
 10
4.954804403550939
 20
3.030424363745827
 30
0.0
 11
5.079804403550939
 21
3.030424363745827
 31
0.0
  0
LINE
  5
2F5
330
1F
100
AcDbEntity
  8
VISIBLE
100
AcDbLine
 10
5.079804403550939
 20
3.155424363745827
 30
0.0
 11
5.079804403550939
 21
3.030424363745827
 31
0.0
  0
LINE
  5
2F6
330
1F
100
AcDbEntity
  8
VISIBLE
100
AcDbLine
 10
5.079804403550939
 20
3.155424363745827
 30
0.0
 11
5.204804403550939
 21
3.155424363745827
 31
0.0
  0
LINE
  5
2F7
330
1F
100
AcDbEntity
  8
VISIBLE
100
AcDbLine
 10
5.204804403550939
 20
3.155424363745827
 30
0.0
 11
5.204804403550939
 21
3.030424363745827
 31
0.0
  0
LINE
  5
2F8
330
1F
100
AcDbEntity
  8
VISIBLE
100
AcDbLine
 10
5.204804403550939
 20
3.030424363745827
 30
0.0
 11
5.329804403550939
 21
3.030424363745827
 31
0.0
  0
LINE
  5
2F9
330
1F
100
AcDbEntity
  8
VISIBLE
100
AcDbLine
 10
5.329804403550939
 20
3.155424363745827
 30
0.0
 11
5.329804403550939
 21
3.030424363745827
 31
0.0
  0
LINE
  5
2FA
330
1F
100
AcDbEntity
  8
VISIBLE
100
AcDbLine
 10
5.329804403550939
 20
3.155424363745827
 30
0.0
 11
5.454804403550939
 21
3.155424363745827
 31
0.0
  0
LINE
  5
2FB
330
1F
100
AcDbEntity
  8
VISIBLE
100
AcDbLine
 10
5.454804403550939
 20
3.155424363745827
 30
0.0
 11
5.454804403550939
 21
3.030424363745827
 31
0.0
  0
LINE
  5
2FC
330
1F
100
AcDbEntity
  8
VISIBLE
100
AcDbLine
 10
5.454804403550939
 20
3.030424363745827
 30
0.0
 11
5.579804403550939
 21
3.030424363745827
 31
0.0
  0
LINE
  5
2FD
330
1F
100
AcDbEntity
  8
VISIBLE
100
AcDbLine
 10
5.579804403550939
 20
3.155424363745827
 30
0.0
 11
5.579804403550939
 21
3.030424363745827
 31
0.0
  0
LINE
  5
2FE
330
1F
100
AcDbEntity
  8
VISIBLE
100
AcDbLine
 10
5.579804403550939
 20
3.155424363745827
 30
0.0
 11
5.704804403550939
 21
3.155424363745827
 31
0.0
  0
LINE
  5
2FF
330
1F
100
AcDbEntity
  8
VISIBLE
100
AcDbLine
 10
5.704804403550939
 20
3.155424363745827
 30
0.0
 11
5.704804403550939
 21
3.030424363745827
 31
0.0
  0
LINE
  5
300
330
1F
100
AcDbEntity
  8
VISIBLE
100
AcDbLine
 10
5.704804403550939
 20
3.030424363745827
 30
0.0
 11
5.829804403550939
 21
3.030424363745827
 31
0.0
  0
LINE
  5
301
330
1F
100
AcDbEntity
  8
VISIBLE
100
AcDbLine
 10
5.829804403550939
 20
3.155424363745827
 30
0.0
 11
5.829804403550939
 21
3.030424363745827
 31
0.0
  0
LINE
  5
302
330
1F
100
AcDbEntity
  8
VISIBLE
100
AcDbLine
 10
5.829804403550939
 20
3.155424363745827
 30
0.0
 11
5.954804403550939
 21
3.155424363745827
 31
0.0
  0
LINE
  5
303
330
1F
100
AcDbEntity
  8
VISIBLE
100
AcDbLine
 10
5.954804403550939
 20
3.155424363745827
 30
0.0
 11
5.954804403550939
 21
3.030424363745827
 31
0.0
  0
LINE
  5
304
330
1F
100
AcDbEntity
  8
VISIBLE
100
AcDbLine
 10
5.954804403550939
 20
3.030424363745827
 30
0.0
 11
6.079804403550939
 21
3.030424363745827
 31
0.0
  0
LINE
  5
305
330
1F
100
AcDbEntity
  8
VISIBLE
100
AcDbLine
 10
6.079804403550939
 20
3.030424363745827
 30
0.0
 11
6.079804403550939
 21
2.655424363745827
 31
0.0
  0
LINE
  5
306
330
1F
100
AcDbEntity
  8
VISIBLE
100
AcDbLine
 10
6.079804403550939
 20
2.655424363745827
 30
0.0
 11
5.954804403550939
 21
2.655424363745827
 31
0.0
  0
LINE
  5
307
330
1F
100
AcDbEntity
  8
VISIBLE
100
AcDbLine
 10
5.954804403550939
 20
2.530424363745827
 30
0.0
 11
5.954804403550939
 21
2.655424363745827
 31
0.0
  0
LINE
  5
308
330
1F
100
AcDbEntity
  8
VISIBLE
100
AcDbLine
 10
6.079804403550939
 20
2.530424363745827
 30
0.0
 11
5.954804403550939
 21
2.530424363745827
 31
0.0
  0
LINE
  5
309
330
1F
100
AcDbEntity
  8
VISIBLE
100
AcDbLine
 10
6.079804403550939
 20
2.405424363745827
 30
0.0
 11
5.954804403550939
 21
2.405424363745827
 31
0.0
  0
LINE
  5
30A
330
1F
100
AcDbEntity
  8
VISIBLE
100
AcDbLine
 10
5.954804403550939
 20
2.280424363745827
 30
0.0
 11
5.954804403550939
 21
2.405424363745827
 31
0.0
  0
LINE
  5
30B
330
1F
100
AcDbEntity
  8
VISIBLE
100
AcDbLine
 10
6.079804403550939
 20
2.280424363745827
 30
0.0
 11
5.954804403550939
 21
2.280424363745827
 31
0.0
  0
LINE
  5
30C
330
1F
100
AcDbEntity
  8
VISIBLE
100
AcDbLine
 10
6.079804403550939
 20
2.155424363745827
 30
0.0
 11
5.954804403550939
 21
2.155424363745827
 31
0.0
  0
LINE
  5
30D
330
1F
100
AcDbEntity
  8
VISIBLE
100
AcDbLine
 10
5.954804403550939
 20
2.030424363745827
 30
0.0
 11
5.954804403550939
 21
2.155424363745827
 31
0.0
  0
LINE
  5
30E
330
1F
100
AcDbEntity
  8
VISIBLE
100
AcDbLine
 10
6.079804403550939
 20
2.030424363745827
 30
0.0
 11
5.954804403550939
 21
2.030424363745827
 31
0.0
  0
LINE
  5
30F
330
1F
100
AcDbEntity
  8
VISIBLE
100
AcDbLine
 10
6.079804403550939
 20
1.780424363745827
 30
0.0
 11
5.954804403550939
 21
1.780424363745827
 31
0.0
  0
LINE
  5
310
330
1F
100
AcDbEntity
  8
VISIBLE
100
AcDbLine
 10
5.954804403550939
 20
1.655424363745827
 30
0.0
 11
5.954804403550939
 21
1.780424363745827
 31
0.0
  0
LINE
  5
311
330
1F
100
AcDbEntity
  8
VISIBLE
100
AcDbLine
 10
6.079804403550939
 20
1.655424363745827
 30
0.0
 11
5.954804403550939
 21
1.655424363745827
 31
0.0
  0
LINE
  5
312
330
1F
100
AcDbEntity
  8
VISIBLE
100
AcDbLine
 10
6.079804403550939
 20
1.530424363745827
 30
0.0
 11
5.954804403550939
 21
1.530424363745827
 31
0.0
  0
LINE
  5
313
330
1F
100
AcDbEntity
  8
VISIBLE
100
AcDbLine
 10
3.704804403550939
 20
0.9054243637458268
 30
0.0
 11
3.829804403550939
 21
0.9054243637458268
 31
0.0
  0
LINE
  5
314
330
1F
100
AcDbEntity
  8
VISIBLE
100
AcDbLine
 10
3.954804403550939
 20
0.9054243637458268
 30
0.0
 11
4.079804403550939
 21
0.9054243637458268
 31
0.0
  0
LINE
  5
315
330
1F
100
AcDbEntity
  8
VISIBLE
100
AcDbLine
 10
4.204804403550939
 20
0.9054243637458268
 30
0.0
 11
4.329804403550939
 21
0.9054243637458268
 31
0.0
  0
LINE
  5
316
330
1F
100
AcDbEntity
  8
VISIBLE
100
AcDbLine
 10
4.454804403550939
 20
0.9054243637458268
 30
0.0
 11
4.954804403550939
 21
0.9054243637458268
 31
0.0
  0
LINE
  5
317
330
1F
100
AcDbEntity
  8
VISIBLE
100
AcDbLine
 10
5.079804403550939
 20
0.9054243637458268
 30
0.0
 11
5.204804403550939
 21
0.9054243637458268
 31
0.0
  0
LINE
  5
318
330
1F
100
AcDbEntity
  8
VISIBLE
100
AcDbLine
 10
5.329804403550939
 20
0.9054243637458268
 30
0.0
 11
5.454804403550939
 21
0.9054243637458268
 31
0.0
  0
LINE
  5
319
330
1F
100
AcDbEntity
  8
VISIBLE
100
AcDbLine
 10
5.579804403550939
 20
0.9054243637458268
 30
0.0
 11
5.704804403550939
 21
0.9054243637458268
 31
0.0
  0
LINE
  5
31A
330
1F
100
AcDbEntity
  8
VISIBLE
100
AcDbLine
 10
5.829804403550939
 20
0.9054243637458268
 30
0.0
 11
5.954804403550939
 21
0.9054243637458268
 31
0.0
  0
LINE
  5
31B
330
1F
100
AcDbEntity
  8
VISIBLE
100
AcDbLine
 10
6.079804403550939
 20
1.155424363745827
 30
0.0
 11
6.079804403550939
 21
1.030424363745827
 31
0.0
  0
LINE
  5
31C
330
1F
100
AcDbEntity
  8
VISIBLE
100
AcDbLine
 10
6.079804403550939
 20
2.530424363745827
 30
0.0
 11
6.079804403550939
 21
2.405424363745827
 31
0.0
  0
LINE
  5
31D
330
1F
100
AcDbEntity
  8
VISIBLE
100
AcDbLine
 10
6.079804403550939
 20
2.280424363745827
 30
0.0
 11
6.079804403550939
 21
2.155424363745827
 31
0.0
  0
LINE
  5
31E
330
1F
100
AcDbEntity
  8
VISIBLE
100
AcDbLine
 10
6.079804403550939
 20
2.030424363745827
 30
0.0
 11
6.079804403550939
 21
1.780424363745827
 31
0.0
  0
LINE
  5
31F
330
1F
100
AcDbEntity
  8
VISIBLE
100
AcDbLine
 10
6.079804403550939
 20
1.655424363745827
 30
0.0
 11
6.079804403550939
 21
1.530424363745827
 31
0.0
  0
LINE
  5
320
330
1F
100
AcDbEntity
  8
VISIBLE
100
AcDbLine
 10
6.079804403550939
 20
1.405424363745827
 30
0.0
 11
6.079804403550939
 21
1.280424363745827
 31
0.0
  0
ENDSEC
  0
SECTION
  2
OBJECTS
  0
DICTIONARY
  5
C
330
0
100
AcDbDictionary
  3
ACAD_GROUP
350
D
  3
ACAD_LAYOUT
350
1A
  3
ACAD_MATERIAL
350
43
  3
ACAD_MLEADERSTYLE
350
344
  3
ACAD_MLINESTYLE
350
17
  3
ACAD_PLOTSETTINGS
350
19
  3
ACAD_SCALELIST
350
47
  3
ACAD_VISUALSTYLE
350
2A
  3
ACDBHEADERROUNDTRIPXREC
350
323
  3
ACDBVARIABLEDICTIONARY
350
6C
  3
ONSHAPE_DATA
350
321
  0
DICTIONARY
  5
D
102
{ACAD_REACTORS
330
C
102
}
330
C
100
AcDbDictionary
  0
DICTIONARY
  5
1A
102
{ACAD_REACTORS
330
C
102
}
330
C
100
AcDbDictionary
  0
DICTIONARY
  5
43
102
{ACAD_REACTORS
330
C
102
}
330
C
100
AcDbDictionary
  3
BYBLOCK
350
45
  3
BYLAYER
350
44
  3
GLOBAL
350
46
  0
DICTIONARY
  5
344
102
{ACAD_REACTORS
330
C
102
}
330
C
100
AcDbDictionary
  0
DICTIONARY
  5
17
102
{ACAD_REACTORS
330
C
102
}
330
C
100
AcDbDictionary
  3
STANDARD
350
18
  0
DICTIONARY
  5
19
102
{ACAD_REACTORS
330
C
102
}
330
C
100
AcDbDictionary
  0
DICTIONARY
  5
47
102
{ACAD_REACTORS
330
C
102
}
330
C
100
AcDbDictionary
  3
A0
350
48
  3
A1
350
49
  3
A2
350
4A
  3
A3
350
4B
  3
A4
350
4C
  3
A5
350
4D
  3
A6
350
4E
  3
A7
350
4F
  3
A8
350
50
  3
A9
350
51
  3
B0
350
52
  3
B1
350
53
  3
B2
350
54
  3
B3
350
55
  3
B4
350
56
  3
B5
350
57
  3
B6
350
58
  3
B7
350
59
  3
B8
350
5A
  3
B9
350
5B
  3
C0
350
5C
  3
C1
350
5D
  3
C2
350
5E
  3
C3
350
5F
  3
C4
350
60
  3
C5
350
61
  3
C6
350
62
  3
C7
350
63
  3
C8
350
64
  3
C9
350
65
  3
D0
350
66
  3
D1
350
67
  3
D2
350
68
  0
DICTIONARY
  5
2A
102
{ACAD_REACTORS
330
C
102
}
330
C
100
AcDbDictionary
  3
2DWIREFRAME
350
2F
  3
BASIC
350
32
  3
BRIGHTEN
350
36
  3
COLORCHANGE
350
3A
  3
CONCEPTUAL
350
34
  3
DIM
350
35
  3
EDGECOLOROFF
350
3D
  3
FACEPATTERN
350
39
  3
FLAT
350
2B
  3
FLATWITHEDGES
350
2C
  3
GOURAUD
350
2D
  3
GOURAUDWITHEDGES
350
2E
  3
HIDDEN
350
31
  3
JITTEROFF
350
3B
  3
LINEPATTERN
350
38
  3
OVERHANGOFF
350
3C
  3
REALISTIC
350
33
  3
SHADED
350
42
  3
SHADED_WITH_EDGES
350
41
  3
SHADES_OF_GRAY
350
3E
  3
SKETCHY
350
3F
  3
THICKEN
350
37
  3
WIREFRAME
350
30
  3
X-RAY
350
40
  0
DICTIONARY
  5
323
102
{ACAD_REACTORS
330
C
102
}
330
C
100
AcDbDictionary
  3
CEPSNTYPE
350
32C
  3
DIMSTYLEDATA
350
342
  3
FINGERPRINTGUID
350
32D
  3
HYPERLINKBASE
350
326
  3
INSUNITS
350
32B
  3
LAYOUTDICT
350
328
  3
LWETCUNION
350
32A
  3
PLOTSETDICT
350
329
  3
PSVPSCALE
350
32F
  3
PUCSBASE
350
332
  3
PUCSORGBACK
350
338
  3
PUCSORGBOTTOM
350
334
  3
PUCSORGFRONT
350
337
  3
PUCSORGLEFT
350
335
  3
PUCSORGRIGHT
350
336
  3
PUCSORGTOP
350
333
  3
PUCSORTHOREF
350
330
  3
PUCSORTHOVIEW
350
331
  3
STYLESHEET
350
327
  3
TSTACKALIGN
350
324
  3
TSTACKSIZE
350
325
  3
UCSBASE
350
33B
  3
UCSORGBACK
350
341
  3
UCSORGBOTTOM
350
33D
  3
UCSORGFRONT
350
340
  3
UCSORGLEFT
350
33E
  3
UCSORGRIGHT
350
33F
  3
UCSORGTOP
350
33C
  3
UCSORTHOREF
350
339
  3
UCSORTHOVIEW
350
33A
  3
VERSIONGUID
350
32E
  0
DICTIONARY
  5
6C
102
{ACAD_REACTORS
330
C
102
}
330
C
100
AcDbDictionary
  3
CANNOSCALE
350
349
  3
CTABLESTYLE
350
343
  3
DIMASSOC
350
347
  3
HIDETEXT
350
348
  3
MSLTSCALE
350
34A
  3
OLEFRAME
350
6D
  0
DICTIONARY
  5
321
102
{ACAD_REACTORS
330
C
102
}
330
C
100
AcDbDictionary
280
     1
  3
DIM_UNITS
360
322
  0
MATERIAL
  5
45
102
{ACAD_REACTORS
330
43
102
}
102
{ACAD_XDICTIONARY
360
34D
102
}
330
43
100
AcDbMaterial
  1
BYBLOCK
  0
MATERIAL
  5
44
102
{ACAD_REACTORS
330
43
102
}
102
{ACAD_XDICTIONARY
360
34B
102
}
330
43
100
AcDbMaterial
  1
BYLAYER
  0
MATERIAL
  5
46
102
{ACAD_REACTORS
330
43
102
}
102
{ACAD_XDICTIONARY
360
34F
102
}
330
43
100
AcDbMaterial
  1
GLOBAL
  0
MLINESTYLE
  5
18
102
{ACAD_REACTORS
330
17
102
}
330
17
100
AcDbMlineStyle
  2
Standard
 70
     0
  3

 62
   256
 51
90.0
 52
90.0
 71
     2
 49
0.5
 62
   256
  6
BYLAYER
 49
-0.5
 62
   256
  6
BYLAYER
  0
ACAD_PROXY_OBJECT
  5
48
102
{ACAD_REACTORS
330
47
102
}
330
47
100
AcDbProxyObject
 90
      499
 91
      503
 93
       41
310
903313A31580
  0
ACAD_PROXY_OBJECT
  5
49
102
{ACAD_REACTORS
330
47
102
}
330
47
100
AcDbProxyObject
 90
      499
 91
      503
 93
      105
310
903313A324000000000000004000
  0
ACAD_PROXY_OBJECT
  5
4A
102
{ACAD_REACTORS
330
47
102
}
330
47
100
AcDbProxyObject
 90
      499
 91
      503
 93
      105
310
903313A344000000000000104000
  0
ACAD_PROXY_OBJECT
  5
4B
102
{ACAD_REACTORS
330
47
102
}
330
47
100
AcDbProxyObject
 90
      499
 91
      503
 93
      105
310
903313A354000000000000144000
  0
ACAD_PROXY_OBJECT
  5
4C
102
{ACAD_REACTORS
330
47
102
}
330
47
100
AcDbProxyObject
 90
      499
 91
      503
 93
      105
310
903313A384000000000000204000
  0
ACAD_PROXY_OBJECT
  5
4D
102
{ACAD_REACTORS
330
47
102
}
330
47
100
AcDbProxyObject
 90
      499
 91
      503
 93
      113
310
904313A31304000000000000244000
  0
ACAD_PROXY_OBJECT
  5
4E
102
{ACAD_REACTORS
330
47
102
}
330
47
100
AcDbProxyObject
 90
      499
 91
      503
 93
      113
310
904313A31364000000000000304000
  0
ACAD_PROXY_OBJECT
  5
4F
102
{ACAD_REACTORS
330
47
102
}
330
47
100
AcDbProxyObject
 90
      499
 91
      503
 93
      113
310
904313A32304000000000000344000
  0
ACAD_PROXY_OBJECT
  5
50
102
{ACAD_REACTORS
330
47
102
}
330
47
100
AcDbProxyObject
 90
      499
 91
      503
 93
      113
310
904313A333040000000000003E4000
  0
ACAD_PROXY_OBJECT
  5
51
102
{ACAD_REACTORS
330
47
102
}
330
47
100
AcDbProxyObject
 90
      499
 91
      503
 93
      113
310
904313A34304000000000000444000
  0
ACAD_PROXY_OBJECT
  5
52
102
{ACAD_REACTORS
330
47
102
}
330
47
100
AcDbProxyObject
 90
      499
 91
      503
 93
      113
310
904313A35304000000000000494000
  0
ACAD_PROXY_OBJECT
  5
53
102
{ACAD_REACTORS
330
47
102
}
330
47
100
AcDbProxyObject
 90
      499
 91
      503
 93
      121
310
905313A3130304000000000000594000
  0
ACAD_PROXY_OBJECT
  5
54
102
{ACAD_REACTORS
330
47
102
}
330
47
100
AcDbProxyObject
 90
      499
 91
      503
 93
      105
310
903323A310000000000000010100
  0
ACAD_PROXY_OBJECT
  5
55
102
{ACAD_REACTORS
330
47
102
}
330
47
100
AcDbProxyObject
 90
      499
 91
      503
 93
      105
310
903343A310000000000000410100
  0
ACAD_PROXY_OBJECT
  5
56
102
{ACAD_REACTORS
330
47
102
}
330
47
100
AcDbProxyObject
 90
      499
 91
      503
 93
      105
310
903383A310000000000000810100
  0
ACAD_PROXY_OBJECT
  5
57
102
{ACAD_REACTORS
330
47
102
}
330
47
100
AcDbProxyObject
 90
      499
 91
      503
 93
      113
310
90431303A310000000000000910100
  0
ACAD_PROXY_OBJECT
  5
58
102
{ACAD_REACTORS
330
47
102
}
330
47
100
AcDbProxyObject
 90
      499
 91
      503
 93
      121
310
9053130303A310000000000001650100
  0
ACAD_PROXY_OBJECT
  5
59
102
{ACAD_REACTORS
330
47
102
}
330
47
100
AcDbProxyObject
 90
      499
 91
      503
 93
      257
310
90E312F31323822203D2031272D3022000000000000200FC000000000000284000
  0
ACAD_PROXY_OBJECT
  5
5A
102
{ACAD_REACTORS
330
47
102
}
330
47
100
AcDbProxyObject
 90
      499
 91
      503
 93
      249
310
90D312F363422203D2031272D3022000000000000240FC000000000000284000
  0
ACAD_PROXY_OBJECT
  5
5B
102
{ACAD_REACTORS
330
47
102
}
330
47
100
AcDbProxyObject
 90
      499
 91
      503
 93
      249
310
90D312F333222203D2031272D3022000000000000280FC000000000000284000
  0
ACAD_PROXY_OBJECT
  5
5C
102
{ACAD_REACTORS
330
47
102
}
330
47
100
AcDbProxyObject
 90
      499
 91
      503
 93
      249
310
90D312F313622203D2031272D30220000000000002C0FC000000000000284000
  0
ACAD_PROXY_OBJECT
  5
5D
102
{ACAD_REACTORS
330
47
102
}
330
47
100
AcDbProxyObject
 90
      499
 91
      503
 93
      249
310
90D332F333222203D2031272D30220000000000002E0FC000000000000284000
  0
ACAD_PROXY_OBJECT
  5
5E
102
{ACAD_REACTORS
330
47
102
}
330
47
100
AcDbProxyObject
 90
      499
 91
      503
 93
      241
310
90C312F3822203D2031272D3022000000000000300FC000000000000284000
  0
ACAD_PROXY_OBJECT
  5
5F
102
{ACAD_REACTORS
330
47
102
}
330
47
100
AcDbProxyObject
 90
      499
 91
      503
 93
      249
310
90D332F313622203D2031272D3022000000000000320FC000000000000284000
  0
ACAD_PROXY_OBJECT
  5
60
102
{ACAD_REACTORS
330
47
102
}
330
47
100
AcDbProxyObject
 90
      499
 91
      503
 93
      241
310
90C312F3422203D2031272D3022000000000000340FC000000000000284000
  0
ACAD_PROXY_OBJECT
  5
61
102
{ACAD_REACTORS
330
47
102
}
330
47
100
AcDbProxyObject
 90
      499
 91
      503
 93
      241
310
90C332F3822203D2031272D3022000000000000360FC000000000000284000
  0
ACAD_PROXY_OBJECT
  5
62
102
{ACAD_REACTORS
330
47
102
}
330
47
100
AcDbProxyObject
 90
      499
 91
      503
 93
      241
310
90C312F3222203D2031272D3022000000000000380FC000000000000284000
  0
ACAD_PROXY_OBJECT
  5
63
102
{ACAD_REACTORS
330
47
102
}
330
47
100
AcDbProxyObject
 90
      499
 91
      503
 93
      241
310
90C332F3422203D2031272D30220000000000003A0FC000000000000284000
  0
ACAD_PROXY_OBJECT
  5
64
102
{ACAD_REACTORS
330
47
102
}
330
47
100
AcDbProxyObject
 90
      499
 91
      503
 93
      161
310
90A3122203D2031272D30224000000000000284000
  0
ACAD_PROXY_OBJECT
  5
65
102
{ACAD_REACTORS
330
47
102
}
330
47
100
AcDbProxyObject
 90
      499
 91
      503
 93
      257
310
90E312D312F3222203D2031272D30220000000000003E0FC000000000000284000
  0
ACAD_PROXY_OBJECT
  5
66
102
{ACAD_REACTORS
330
47
102
}
330
47
100
AcDbProxyObject
 90
      499
 91
      503
 93
      225
310
90A3322203D2031272D302200000000000002100000000000000284000
  0
ACAD_PROXY_OBJECT
  5
67
102
{ACAD_REACTORS
330
47
102
}
330
47
100
AcDbProxyObject
 90
      499
 91
      503
 93
      225
310
90A3622203D2031272D302200000000000006100000000000000284000
  0
ACAD_PROXY_OBJECT
  5
68
102
{ACAD_REACTORS
330
47
102
}
330
47
100
AcDbProxyObject
 90
      499
 91
      503
 93
      249
310
90D31272D3022203D2031272D30220000000000000A100000000000000284000
  0
ACAD_PROXY_OBJECT
  5
2F
102
{ACAD_REACTORS
330
2A
102
}
330
2A
100
AcDbProxyObject
 90
      499
 91
      501
 93
      436
310
42CC9915DA5C99599C985B595049028333333333333E33F0000000000000F90107901411070040501600405405064090741402480A0340
1001
ACAD
1000
AcDbSavedByObjectVersion
1070
     0
  0
ACAD_PROXY_OBJECT
  5
32
102
{ACAD_REACTORS
330
2A
102
}
330
2A
100
AcDbProxyObject
 90
      499
 91
      501
 93
      388
310
4150985CDA58D07406404333333333333E33F0000000000000F90107A41107004050150841D405064090741402480A0350
1001
ACAD
1000
AcDbSavedByObjectVersion
1070
     0
  0
ACAD_PROXY_OBJECT
  5
36
102
{ACAD_REACTORS
330
2A
102
}
330
2A
100
AcDbProxyObject
 90
      499
 91
      501
 93
      428
310
42109C9A59DA1D195B90C409028333333333333E33F0000000000000F9010790141107004050150841D405064090741402480A029950
1001
ACAD
1000
AcDbSavedByObjectVersion
1070
     0
  0
ACAD_PROXY_OBJECT
  5
3A
102
{ACAD_REACTORS
330
2A
102
}
330
2A
100
AcDbProxyObject
 90
      499
 91
      501
 93
      452
310
42D0DBDB1BDC90DA185B99D95104090240C333333333333E33F0000000000000F90108901411070040501508421405064090741402480A0350
1001
ACAD
1000
AcDbSavedByObjectVersion
1070
     0
  0
ACAD_PROXY_OBJECT
  5
34
102
{ACAD_REACTORS
330
2A
102
}
330
2A
100
AcDbProxyObject
 90
      499
 91
      501
 93
      500
310
4290DBDB98D95C1D1D585B10940D028333333333333E33F0000000000000F90107902409070040501000000000018199010841D405064090740C02480A0340
1001
ACAD
1000
AcDbSavedByObjectVersion
1070
     0
  0
ACAD_PROXY_OBJECT
  5
35
102
{ACAD_REACTORS
330
2A
102
}
330
2A
100
AcDbProxyObject
 90
      499
 91
      501
 93
      412
310
40D11A5B50B409028333333333333E33F0000000000000F9010790141107004050150841D405064090741402480A02677FFFFFD0
1001
ACAD
1000
AcDbSavedByObjectVersion
1070
     0
  0
ACAD_PROXY_OBJECT
  5
3D
102
{ACAD_REACTORS
330
2A
102
}
330
2A
100
AcDbProxyObject
 90
      499
 91
      501
 93
      452
310
43115919D950DBDB1BDC93D999916409028333333333333E33F0000000000000F9010790141107004050150841D405064090741402480A0350
1001
ACAD
1000
AcDbSavedByObjectVersion
1070
     0
  0
ACAD_PROXY_OBJECT
  5
39
102
{ACAD_REACTORS
330
2A
102
}
330
2A
100
AcDbProxyObject
 90
      499
 91
      501
 93
      444
310
42D19858D95C185D1D195C9B90F409028333333333333E33F0000000000000F9010790141107004050150841D405064090741402480A0350
1001
ACAD
1000
AcDbSavedByObjectVersion
1070
     0
  0
ACAD_PROXY_OBJECT
  5
2B
102
{ACAD_REACTORS
330
2A
102
}
330
2A
100
AcDbProxyObject
 90
      499
 91
      501
 93
      380
310
41119B185D240901404333333333333E33F0000000000000F9010740A907004050150841D405064090741402480A1B50
1001
ACAD
1000
AcDbSavedByObjectVersion
1070
     0
  0
ACAD_PROXY_OBJECT
  5
2C
102
{ACAD_REACTORS
330
2A
102
}
330
2A
100
AcDbProxyObject
 90
      499
 91
      501
 93
      468
310
43519B185D15DA5D1A115919D95CD0140901404333333333333E33F0000000000000F90107409019070040501600405405064090741402480A1B50
1001
ACAD
1000
AcDbSavedByObjectVersion
1070
     0
  0
ACAD_PROXY_OBJECT
  5
2D
102
{ACAD_REACTORS
330
2A
102
}
330
2A
100
AcDbProxyObject
 90
      499
 91
      501
 93
      404
310
41D1DBDD5C985D5910240902404333333333333E33F0000000000000F9010740A9070040501641D405064090741402480A1B50
1001
ACAD
1000
AcDbSavedByObjectVersion
1070
     0
  0
ACAD_PROXY_OBJECT
  5
2E
102
{ACAD_REACTORS
330
2A
102
}
330
2A
100
AcDbProxyObject
 90
      499
 91
      501
 93
      492
310
4411DBDD5C985D5915DA5D1A115919D95CD0340902404333333333333E33F0000000000000F90107409019070040501600405405064090741402480A1B50
1001
ACAD
1000
AcDbSavedByObjectVersion
1070
     0
  0
ACAD_PROXY_OBJECT
  5
31
102
{ACAD_REACTORS
330
2A
102
}
330
2A
100
AcDbProxyObject
 90
      499
 91
      501
 93
      476
310
41921A5919195B90640502408333333333333E33F0000000000000F901079024090700405020000000000001110200405405064090740C02480A0340
1001
ACAD
1000
AcDbSavedByObjectVersion
1070
     0
  0
ACAD_PROXY_OBJECT
  5
3B
102
{ACAD_REACTORS
330
2A
102
}
330
2A
100
AcDbProxyObject
 90
      499
 91
      501
 93
      428
310
42529A5D1D195C93D999914409028333333333333E33F0000000000000F9010790141107004050150A41D405064090741402480A0350
1001
ACAD
1000
AcDbSavedByObjectVersion
1070
     0
  0
ACAD_PROXY_OBJECT
  5
38
102
{ACAD_REACTORS
330
2A
102
}
330
2A
100
AcDbProxyObject
 90
      499
 91
      501
 93
      444
310
42D31A5B995C185D1D195C9B90E409028333333333333E33F0000000000000F9010790141107004050750841D405064090741402483A0350
1001
ACAD
1000
AcDbSavedByObjectVersion
1070
     0
  0
ACAD_PROXY_OBJECT
  5
3C
102
{ACAD_REACTORS
330
2A
102
}
330
2A
100
AcDbProxyObject
 90
      499
 91
      501
 93
      444
310
42D3DD995C9A185B99D3D999915409028333333333333E33F0000000000000F9010790141107004050150941D405064090741402480A0350
1001
ACAD
1000
AcDbSavedByObjectVersion
1070
     0
  0
ACAD_PROXY_OBJECT
  5
33
102
{ACAD_REACTORS
330
2A
102
}
330
2A
100
AcDbProxyObject
 90
      499
 91
      501
 93
      428
310
425499585B1A5CDD1A58D08409038333333333333E33F0000000000000F9010740A907004050150800405405064090740C02480A1B40
1001
ACAD
1000
AcDbSavedByObjectVersion
1070
     0
  0
ACAD_PROXY_OBJECT
  5
42
102
{ACAD_REACTORS
330
2A
102
}
330
2A
100
AcDbProxyObject
 90
      499
 91
      501
 93
      420
310
4194DA1859195911B40902404333333333333E33F0000000000000F9010740A41107004050150800405405064090840C02480A0B40
1001
ACAD
1000
AcDbSavedByObjectVersion
1070
     0
  0
ACAD_PROXY_OBJECT
  5
41
102
{ACAD_REACTORS
330
2A
102
}
330
2A
100
AcDbProxyObject
 90
      499
 91
      501
 93
      516
310
4454DA18591959081DDA5D1A08195919D95CD1A40902404333333333333E33F0000000000000F901074090142907004050250800405405064090740C02480A0B40
1001
ACAD
1000
AcDbSavedByObjectVersion
1070
     0
  0
ACAD_PROXY_OBJECT
  5
3E
102
{ACAD_REACTORS
330
2A
102
}
330
2A
100
AcDbProxyObject
 90
      499
 91
      501
 93
      532
310
4394DA1859195CC81BD98811DC985E5174090240C333333333333E33F0000000000000F901079024090741D01000000000000111010841D405064090740C02480A0340
1001
ACAD
1000
AcDbSavedByObjectVersion
1070
     0
  0
ACAD_PROXY_OBJECT
  5
3F
102
{ACAD_REACTORS
330
2A
102
}
330
2A
100
AcDbProxyObject
 90
      499
 91
      501
 93
      476
310
41D4DAD95D18DA1E51840502408333333333333E33F0000000000000F901079024090741D01000000000000111010B41D405064090741802480A0340
1001
ACAD
1000
AcDbSavedByObjectVersion
1070
     0
  0
ACAD_PROXY_OBJECT
  5
37
102
{ACAD_REACTORS
330
2A
102
}
330
2A
100
AcDbProxyObject
 90
      499
 91
      501
 93
      412
310
41D51A1A58DAD95B90D409028333333333333E33F0000000000000F9010790141107004050150C41D405064090741402480A0350
1001
ACAD
1000
AcDbSavedByObjectVersion
1070
     0
  0
ACAD_PROXY_OBJECT
  5
30
102
{ACAD_REACTORS
330
2A
102
}
330
2A
100
AcDbProxyObject
 90
      499
 91
      501
 93
      420
310
4255DA5C99599C985B595059028333333333333E33F0000000000000F90107901411070040501600405405064090740C02480A0340
1001
ACAD
1000
AcDbSavedByObjectVersion
1070
     0
  0
ACAD_PROXY_OBJECT
  5
40
102
{ACAD_REACTORS
330
2A
102
}
330
2A
100
AcDbProxyObject
 90
      499
 91
      501
 93
      404
310
41560B54985E51940902404000000000000E03F0000000000000F9010740501907004050150841D405064090740C02480A1B40
1001
ACAD
1000
AcDbSavedByObjectVersion
1070
     0
  0
XRECORD
  5
32C
102
{ACAD_REACTORS
330
323
102
}
330
323
100
AcDbXrecord
 90
        0
  0
XRECORD
  5
342
102
{ACAD_REACTORS
330
323
102
}
330
323
100
AcDbXrecord
1000
DSTYLE
1002
{
1070
   179
 70
     1
1070
   271
 70
     3
1070
    44
 40
0.08
1070
   371
 70
    13
1070
   372
 70
    13
1070
   272
 70
     3
1070
   340
340
70
1070
   140
 40
0.12
1070
   284
 70
     7
1070
   288
 70
     1
1070
    78
 70
     7
1070
    90
 70
     1
1002
}
  0
XRECORD
  5
32D
102
{ACAD_REACTORS
330
323
102
}
330
323
100
AcDbXrecord
  1
{1FBCDAB0-7940-B32B-E2C0-6FC77C7448F3}
  0
XRECORD
  5
326
102
{ACAD_REACTORS
330
323
102
}
330
323
100
AcDbXrecord
  1

  0
XRECORD
  5
32B
102
{ACAD_REACTORS
330
323
102
}
330
323
100
AcDbXrecord
 90
        1
  0
XRECORD
  5
328
102
{ACAD_REACTORS
330
323
102
}
330
323
100
AcDbXrecord
340
1A
  0
XRECORD
  5
32A
102
{ACAD_REACTORS
330
323
102
}
330
323
100
AcDbXrecord
 90
    10269
  0
XRECORD
  5
329
102
{ACAD_REACTORS
330
323
102
}
330
323
100
AcDbXrecord
340
19
  0
XRECORD
  5
32F
102
{ACAD_REACTORS
330
323
102
}
330
323
100
AcDbXrecord
 40
0.0
  0
XRECORD
  5
332
102
{ACAD_REACTORS
330
323
102
}
330
323
100
AcDbXrecord
340
0
  0
XRECORD
  5
338
102
{ACAD_REACTORS
330
323
102
}
330
323
100
AcDbXrecord
 10
0.0
 20
0.0
 30
0.0
  0
XRECORD
  5
334
102
{ACAD_REACTORS
330
323
102
}
330
323
100
AcDbXrecord
 10
0.0
 20
0.0
 30
0.0
  0
XRECORD
  5
337
102
{ACAD_REACTORS
330
323
102
}
330
323
100
AcDbXrecord
 10
0.0
 20
0.0
 30
0.0
  0
XRECORD
  5
335
102
{ACAD_REACTORS
330
323
102
}
330
323
100
AcDbXrecord
 10
0.0
 20
0.0
 30
0.0
  0
XRECORD
  5
336
102
{ACAD_REACTORS
330
323
102
}
330
323
100
AcDbXrecord
 10
0.0
 20
0.0
 30
0.0
  0
XRECORD
  5
333
102
{ACAD_REACTORS
330
323
102
}
330
323
100
AcDbXrecord
 10
0.0
 20
0.0
 30
0.0
  0
XRECORD
  5
330
102
{ACAD_REACTORS
330
323
102
}
330
323
100
AcDbXrecord
340
0
  0
XRECORD
  5
331
102
{ACAD_REACTORS
330
323
102
}
330
323
100
AcDbXrecord
 70
     0
  0
XRECORD
  5
327
102
{ACAD_REACTORS
330
323
102
}
330
323
100
AcDbXrecord
  1

  0
XRECORD
  5
324
102
{ACAD_REACTORS
330
323
102
}
330
323
100
AcDbXrecord
 90
        1
  0
XRECORD
  5
325
102
{ACAD_REACTORS
330
323
102
}
330
323
100
AcDbXrecord
 90
       70
  0
XRECORD
  5
33B
102
{ACAD_REACTORS
330
323
102
}
330
323
100
AcDbXrecord
340
0
  0
XRECORD
  5
341
102
{ACAD_REACTORS
330
323
102
}
330
323
100
AcDbXrecord
 10
0.0
 20
0.0
 30
0.0
  0
XRECORD
  5
33D
102
{ACAD_REACTORS
330
323
102
}
330
323
100
AcDbXrecord
 10
0.0
 20
0.0
 30
0.0
  0
XRECORD
  5
340
102
{ACAD_REACTORS
330
323
102
}
330
323
100
AcDbXrecord
 10
0.0
 20
0.0
 30
0.0
  0
XRECORD
  5
33E
102
{ACAD_REACTORS
330
323
102
}
330
323
100
AcDbXrecord
 10
0.0
 20
0.0
 30
0.0
  0
XRECORD
  5
33F
102
{ACAD_REACTORS
330
323
102
}
330
323
100
AcDbXrecord
 10
0.0
 20
0.0
 30
0.0
  0
XRECORD
  5
33C
102
{ACAD_REACTORS
330
323
102
}
330
323
100
AcDbXrecord
 10
0.0
 20
0.0
 30
0.0
  0
XRECORD
  5
339
102
{ACAD_REACTORS
330
323
102
}
330
323
100
AcDbXrecord
340
0
  0
XRECORD
  5
33A
102
{ACAD_REACTORS
330
323
102
}
330
323
100
AcDbXrecord
 70
     0
  0
XRECORD
  5
32E
102
{ACAD_REACTORS
330
323
102
}
330
323
100
AcDbXrecord
  1
{FAEB1C32-E019-11D5-929B-00C0DF256EC4}
  0
DICTIONARYVAR
  5
349
102
{ACAD_REACTORS
330
6C
102
}
330
6C
100
DictionaryVariables
280
     0
  1
1:1
  0
DICTIONARYVAR
  5
343
102
{ACAD_REACTORS
330
6C
102
}
330
6C
100
DictionaryVariables
280
     0
  1
Standard
  0
DICTIONARYVAR
  5
347
102
{ACAD_REACTORS
330
6C
102
}
330
6C
100
DictionaryVariables
280
     0
  1
2
  0
DICTIONARYVAR
  5
348
102
{ACAD_REACTORS
330
6C
102
}
330
6C
100
DictionaryVariables
280
     0
  1
1
  0
DICTIONARYVAR
  5
34A
102
{ACAD_REACTORS
330
6C
102
}
330
6C
100
DictionaryVariables
280
     0
  1
1
  0
DICTIONARYVAR
  5
6D
102
{ACAD_REACTORS
330
6C
102
}
330
6C
100
DictionaryVariables
280
     0
  1
0
  0
XRECORD
  5
322
102
{ACAD_REACTORS
330
321
102
}
330
321
100
AcDbXrecord
 70
     1
  0
DICTIONARY
  5
34D
330
45
100
AcDbDictionary
280
     1
  3
ACAD_XREC_ROUNDTRIP
360
34E
  0
DICTIONARY
  5
34B
330
44
100
AcDbDictionary
280
     1
  3
ACAD_XREC_ROUNDTRIP
360
34C
  0
DICTIONARY
  5
34F
330
46
100
AcDbDictionary
280
     1
  3
ACAD_XREC_ROUNDTRIP
360
350
  0
XRECORD
  5
34E
102
{ACAD_REACTORS
330
34D
102
}
330
34D
100
AcDbXrecord
102
MATERIAL
148
0.0
149
0.0
149
0.0
 93
        0
 94
      127
282
     0
 72
     1
 77
     1
171
     1
175
     1
179
     1
273
     0
  0
XRECORD
  5
34C
102
{ACAD_REACTORS
330
34B
102
}
330
34B
100
AcDbXrecord
102
MATERIAL
148
0.0
149
0.0
149
0.0
 93
        0
 94
      127
282
     0
 72
     1
 77
     1
171
     1
175
     1
179
     1
273
     0
  0
XRECORD
  5
350
102
{ACAD_REACTORS
330
34F
102
}
330
34F
100
AcDbXrecord
102
MATERIAL
148
0.0
149
0.0
149
0.0
 93
        0
 94
      127
282
     0
 72
     1
 77
     1
171
     1
175
     1
179
     1
273
     0
  0
ENDSEC
  0
EOF
