  0
SECTION
  2
HEADER
  9
$ACADVER
  1
AC1009
  9
$DWGCODEPAGE
  3
ansi_1252
  9
$INSBASE
 10
0.0
 20
0.0
 30
0.0
  9
$EXTMIN
 10
1.000000000000000E+20
 20
1.000000000000000E+20
 30
1.000000000000000E+20
  9
$EXTMAX
 10
-1.000000000000000E+20
 20
-1.000000000000000E+20
 30
-1.000000000000000E+20
  9
$LIMMIN
 10
0.0
 20
0.0
  9
$LIMMAX
 10
12.0
 20
9.0
  9
$ORTHOMODE
 70
     0
  9
$REGENMODE
 70
     1
  9
$FILLMODE
 70
     1
  9
$QTEXTMODE
 70
     0
  9
$MIRRTEXT
 70
     1
  9
$DRAGMODE
 70
     2
  9
$LTSCALE
 40
0.5
  9
$OSMODE
 70
    23
  9
$ATTMODE
 70
     1
  9
$TEXTSIZE
 40
0.12
  9
$TRACEWID
 40
0.05
  9
$TEXTSTYLE
  7
ONSHAPE-STANDARD
  9
$CLAYER
  8
0
  9
$CELTYPE
  6
BYLAYER
  9
$CECOLOR
 62
   256
  9
$DIMSCALE
 40
1.0
  9
$DIMASZ
 40
0.18
  9
$DIMEXO
 40
0.0625
  9
$DIMDLI
 40
0.38
  9
$DIMRND
 40
0.0
  9
$DIMDLE
 40
0.0
  9
$DIMEXE
 40
0.08
  9
$DIMTP
 40
0.0
  9
$DIMTM
 40
0.0
  9
$DIMTXT
 40
0.12
  9
$DIMCEN
 40
0.09
  9
$DIMTSZ
 40
0.0
  9
$DIMTOL
 70
     0
  9
$DIMLIM
 70
     0
  9
$DIMTIH
 70
     1
  9
$DIMTOH
 70
     1
  9
$DIMSE1
 70
     0
  9
$DIMSE2
 70
     0
  9
$DIMTAD
 70
     0
  9
$DIMZIN
 70
     7
  9
$DIMBLK
  1

  9
$DIMASO
 70
     1
  9
$DIMSHO
 70
     1
  9
$DIMPOST
  1

  9
$DIMAPOST
  1

  9
$DIMALT
 70
     0
  9
$DIMALTD
 70
     2
  9
$DIMALTF
 40
25.4
  9
$DIMLFAC
 40
1.0
  9
$DIMTOFL
 70
     0
  9
$DIMTVP
 40
0.0
  9
$DIMTIX
 70
     0
  9
$DIMSOXD
 70
     0
  9
$DIMSAH
 70
     0
  9
$DIMBLK1
  1

  9
$DIMBLK2
  1

  9
$DIMSTYLE
  2
ONSHAPE-STANDARD
  9
$DIMCLRD
 70
     0
  9
$DIMCLRE
 70
     0
  9
$DIMCLRT
 70
     0
  9
$DIMTFAC
 40
1.0
  9
$DIMGAP
 40
0.09
  9
$LUNITS
 70
     2
  9
$LUPREC
 70
     4
  9
$SKETCHINC
 40
0.1
  9
$FILLETRAD
 40
0.5
  9
$AUNITS
 70
     0
  9
$AUPREC
 70
     0
  9
$MENU
  1
.
  9
$ELEVATION
 40
0.0
  9
$PELEVATION
 40
0.0
  9
$THICKNESS
 40
0.0
  9
$LIMCHECK
 70
     0
  9
$CHAMFERA
 40
0.0
  9
$CHAMFERB
 40
0.0
  9
$SKPOLY
 70
     0
  9
$TDCREATE
 40
2457815.301944433
  9
$TDUPDATE
 40
2457815.301944433
  9
$TDINDWG
 40
0.0
  9
$TDUSRTIMER
 40
0.0
  9
$USRTIMER
 70
     1
  9
$ANGBASE
 50
0.0
  9
$ANGDIR
 70
     0
  9
$PDMODE
 70
     0
  9
$PDSIZE
 40
0.0
  9
$PLINEWID
 40
0.0
  9
$COORDS
 70
     1
  9
$SPLFRAME
 70
     0
  9
$SPLINETYPE
 70
     6
  9
$SPLINESEGS
 70
     8
  9
$ATTDIA
 70
     0
  9
$ATTREQ
 70
     1
  9
$HANDLING
 70
     1
  9
$HANDSEED
  5
328
  9
$SURFTAB1
 70
     6
  9
$SURFTAB2
 70
     6
  9
$SURFTYPE
 70
     6
  9
$SURFU
 70
     6
  9
$SURFV
 70
     6
  9
$UCSNAME
  2

  9
$UCSORG
 10
0.0
 20
0.0
 30
0.0
  9
$UCSXDIR
 10
1.0
 20
0.0
 30
0.0
  9
$UCSYDIR
 10
0.0
 20
1.0
 30
0.0
  9
$PUCSNAME
  2

  9
$PUCSORG
 10
0.0
 20
0.0
 30
0.0
  9
$PUCSXDIR
 10
1.0
 20
0.0
 30
0.0
  9
$PUCSYDIR
 10
0.0
 20
1.0
 30
0.0
  9
$USERI1
 70
     0
  9
$USERI2
 70
     0
  9
$USERI3
 70
     0
  9
$USERI4
 70
     0
  9
$USERI5
 70
     0
  9
$USERR1
 40
0.0
  9
$USERR2
 40
0.0
  9
$USERR3
 40
0.0
  9
$USERR4
 40
0.0
  9
$USERR5
 40
0.0
  9
$WORLDVIEW
 70
     1
  9
$SHADEDGE
 70
     3
  9
$SHADEDIF
 70
    70
  9
$TILEMODE
 70
     1
  9
$MAXACTVP
 70
    64
  9
$PLIMCHECK
 70
     0
  9
$PEXTMIN
 10
1.000000000000000E+20
 20
1.000000000000000E+20
 30
1.000000000000000E+20
  9
$PEXTMAX
 10
-1.000000000000000E+20
 20
-1.000000000000000E+20
 30
-1.000000000000000E+20
  9
$PLIMMIN
 10
0.0
 20
0.0
  9
$PLIMMAX
 10
12.0
 20
9.0
  9
$UNITMODE
 70
     0
  9
$VISRETAIN
 70
     1
  9
$PLINEGEN
 70
     0
  9
$PSLTSCALE
 70
     1
  0
ENDSEC
  0
SECTION
  2
TABLES
  0
TABLE
  2
VPORT
 70
     1
  0
VPORT
  2
*ACTIVE
 70
     0
 10
0.0
 20
0.0
 11
1.0
 21
1.0
 12
4.760362587982601
 22
4.023762711505945
 13
0.0
 23
0.0
 14
0.5
 24
0.5
 15
0.5
 25
0.5
 16
0.0
 26
0.0
 36
1.0
 17
0.0
 27
0.0
 37
0.0
 40
6.361410229430643
 41
1.47253507345696
 42
50.0
 43
0.0
 44
0.0
 50
0.0
 51
0.0
 71
     0
 72
   100
 73
     1
 74
     3
 75
     0
 76
     0
 77
     0
 78
     0
  0
ENDTAB
  0
TABLE
  2
LTYPE
 70
     1
  0
LTYPE
  2
CONTINUOUS
 70
     0
  3
Solid line
 72
    65
 73
     0
 40
0.0
  0
ENDTAB
  0
TABLE
  2
LAYER
 70
     2
  0
LAYER
  2
0
 70
     0
 62
     7
  6
CONTINUOUS
  0
LAYER
  2
VISIBLE
 70
     0
 62
     7
  6
CONTINUOUS
  0
ENDTAB
  0
TABLE
  2
STYLE
 70
     3
  0
STYLE
  2
STANDARD
 70
     0
 40
0.0
 41
1.0
 50
0.0
 71
     0
 42
0.12
  3
txt
  4

  0
STYLE
  2
ONSHAPE-STANDARD
 70
     0
 40
0.0
 41
1.0
 50
0.0
 71
     0
 42
0.12
  3
NotoSans-Regular.ttf
  4

  0
STYLE
  2
ONSHAPE-STANDARD-DIMENSION
 70
     0
 40
0.0
 41
1.0
 50
0.0
 71
     0
 42
0.12
  3

  4

  0
ENDTAB
  0
TABLE
  2
VIEW
 70
     0
  0
ENDTAB
  0
TABLE
  2
UCS
 70
     0
  0
ENDTAB
  0
TABLE
  2
APPID
 70
     1
  0
APPID
  2
ACAD
 70
     0
  0
ENDTAB
  0
TABLE
  2
DIMSTYLE
 70
     2
  0
DIMSTYLE
  2
STANDARD
 70
     0
  3

  4

  5

  6

  7

 40
1.0
 41
0.18
 42
0.0625
 43
0.38
 44
0.18
 45
0.0
 46
0.0
 47
0.0
 48
0.0
140
0.18
141
0.09
142
0.0
143
25.4
144
1.0
145
0.0
146
1.0
147
0.09
 71
     0
 72
     0
 73
     1
 74
     1
 75
     0
 76
     0
 77
     0
 78
     0
170
     0
171
     2
172
     0
173
     0
174
     0
175
     0
176
     0
177
     0
178
     0
  0
DIMSTYLE
  2
ONSHAPE-STANDARD
 70
     0
  3

  4

  5

  6

  7

 40
1.0
 41
0.18
 42
0.0625
 43
0.38
 44
0.08
 45
0.0
 46
0.0
 47
0.0
 48
0.0
140
0.12
141
0.09
142
0.0
143
25.4
144
1.0
145
0.0
146
1.0
147
0.09
 71
     0
 72
     0
 73
     1
 74
     1
 75
     0
 76
     0
 77
     0
 78
     7
170
     0
171
     2
172
     0
173
     0
174
     0
175
     0
176
     0
177
     0
178
     0
  0
ENDTAB
  0
ENDSEC
  0
SECTION
  2
BLOCKS
  0
BLOCK
  8
0
  2
$MODEL_SPACE
 70
     0
 10
0.0
 20
0.0
 30
0.0
  3
$MODEL_SPACE
  1

  0
ENDBLK
  5
21
  8
0
  0
BLOCK
 67
     1
  8
0
  2
$PAPER_SPACE
 70
     0
 10
0.0
 20
0.0
 30
0.0
  3
$PAPER_SPACE
  1

  0
ENDBLK
  5
1D
 67
     1
  8
0
  0
ENDSEC
  0
SECTION
  2
ENTITIES
  0
LINE
  5
73
  8
VISIBLE
 10
3.228499999999999
 20
6.75840001769154
 30
0.0
 11
3.103499999999999
 21
6.75840001769154
 31
0.0
  0
LINE
  5
74
  8
VISIBLE
 10
3.103499999999999
 20
6.63340001769154
 30
0.0
 11
3.103499999999999
 21
6.75840001769154
 31
0.0
  0
LINE
  5
75
  8
VISIBLE
 10
3.228499999999999
 20
6.63340001769154
 30
0.0
 11
3.103499999999999
 21
6.63340001769154
 31
0.0
  0
LINE
  5
76
  8
VISIBLE
 10
3.228499999999999
 20
6.63340001769154
 30
0.0
 11
3.228499999999999
 21
6.50840001769154
 31
0.0
  0
LINE
  5
77
  8
VISIBLE
 10
3.228499999999999
 20
6.50840001769154
 30
0.0
 11
3.103499999999999
 21
6.50840001769154
 31
0.0
  0
LINE
  5
78
  8
VISIBLE
 10
3.103499999999999
 20
6.38340001769154
 30
0.0
 11
3.103499999999999
 21
6.50840001769154
 31
0.0
  0
LINE
  5
79
  8
VISIBLE
 10
3.228499999999999
 20
6.38340001769154
 30
0.0
 11
3.103499999999999
 21
6.38340001769154
 31
0.0
  0
LINE
  5
7A
  8
VISIBLE
 10
3.228499999999999
 20
6.38340001769154
 30
0.0
 11
3.228499999999999
 21
6.25840001769154
 31
0.0
  0
LINE
  5
7B
  8
VISIBLE
 10
3.228499999999999
 20
6.25840001769154
 30
0.0
 11
3.103499999999999
 21
6.25840001769154
 31
0.0
  0
LINE
  5
7C
  8
VISIBLE
 10
3.103499999999999
 20
6.13340001769154
 30
0.0
 11
3.103499999999999
 21
6.25840001769154
 31
0.0
  0
LINE
  5
7D
  8
VISIBLE
 10
3.103499999999999
 20
6.00840001769154
 30
0.0
 11
3.228499999999999
 21
6.00840001769154
 31
0.0
  0
LINE
  5
7E
  8
VISIBLE
 10
3.103499999999999
 20
5.75840001769154
 30
0.0
 11
3.103499999999999
 21
6.00840001769154
 31
0.0
  0
LINE
  5
7F
  8
VISIBLE
 10
3.103499999999999
 20
5.75840001769154
 30
0.0
 11
3.228499999999999
 21
5.75840001769154
 31
0.0
  0
LINE
  5
80
  8
VISIBLE
 10
3.228499999999999
 20
5.75840001769154
 30
0.0
 11
3.228499999999999
 21
5.63340001769154
 31
0.0
  0
LINE
  5
81
  8
VISIBLE
 10
3.228499999999999
 20
5.63340001769154
 30
0.0
 11
3.103499999999999
 21
5.63340001769154
 31
0.0
  0
LINE
  5
82
  8
VISIBLE
 10
3.103499999999999
 20
5.50840001769154
 30
0.0
 11
3.103499999999999
 21
5.63340001769154
 31
0.0
  0
LINE
  5
83
  8
VISIBLE
 10
3.228499999999999
 20
5.50840001769154
 30
0.0
 11
3.103499999999999
 21
5.50840001769154
 31
0.0
  0
LINE
  5
84
  8
VISIBLE
 10
3.228499999999999
 20
5.50840001769154
 30
0.0
 11
3.228499999999999
 21
5.38340001769154
 31
0.0
  0
LINE
  5
85
  8
VISIBLE
 10
3.228499999999999
 20
5.38340001769154
 30
0.0
 11
3.103499999999999
 21
5.38340001769154
 31
0.0
  0
LINE
  5
86
  8
VISIBLE
 10
3.103499999999999
 20
5.25840001769154
 30
0.0
 11
3.103499999999999
 21
5.38340001769154
 31
0.0
  0
LINE
  5
87
  8
VISIBLE
 10
3.228499999999999
 20
5.25840001769154
 30
0.0
 11
3.103499999999999
 21
5.25840001769154
 31
0.0
  0
LINE
  5
88
  8
VISIBLE
 10
3.228499999999999
 20
5.25840001769154
 30
0.0
 11
3.228499999999999
 21
5.13340001769154
 31
0.0
  0
LINE
  5
89
  8
VISIBLE
 10
3.228499999999999
 20
5.13340001769154
 30
0.0
 11
3.103499999999999
 21
5.13340001769154
 31
0.0
  0
LINE
  5
8A
  8
VISIBLE
 10
3.103499999999999
 20
5.00840001769154
 30
0.0
 11
3.103499999999999
 21
5.13340001769154
 31
0.0
  0
LINE
  5
8B
  8
VISIBLE
 10
3.228499999999999
 20
5.00840001769154
 30
0.0
 11
3.103499999999999
 21
5.00840001769154
 31
0.0
  0
LINE
  5
8C
  8
VISIBLE
 10
3.228499999999999
 20
5.00840001769154
 30
0.0
 11
3.228499999999999
 21
4.650900017691539
 31
0.0
  0
LINE
  5
8D
  8
VISIBLE
 10
3.228499999999999
 20
4.650900017691539
 30
0.0
 11
3.5385
 21
4.650900017691539
 31
0.0
  0
LINE
  5
8E
  8
VISIBLE
 10
3.5385
 20
4.49090001769154
 30
0.0
 11
3.5385
 21
4.650900017691539
 31
0.0
  0
LINE
  5
8F
  8
VISIBLE
 10
2.4135
 20
4.49090001769154
 30
0.0
 11
3.5385
 21
4.49090001769154
 31
0.0
  0
LINE
  5
90
  8
VISIBLE
 10
2.4135
 20
4.649022498860264
 30
0.0
 11
2.4135
 21
4.49090001769154
 31
0.0
  0
LINE
  5
91
  8
VISIBLE
 10
2.6035
 20
4.649022498860264
 30
0.0
 11
2.4135
 21
4.649022498860264
 31
0.0
  0
LINE
  5
92
  8
VISIBLE
 10
2.6035
 20
4.800900017691539
 30
0.0
 11
2.6035
 21
4.649022498860264
 31
0.0
  0
ARC
  5
93
  8
VISIBLE
 10
1.8535
 20
9.383243366616789
 30
0.0000000000000003
 40
4.64331461
 50
260.7047186841786
 51
279.2952813158214
  0
LINE
  5
94
  8
VISIBLE
 10
1.1035
 20
4.650900017691539
 30
0.0
 11
1.1035
 21
4.800900017691539
 31
0.0
  0
LINE
  5
95
  8
VISIBLE
 10
1.2935
 20
4.650900017691539
 30
0.0
 11
1.1035
 21
4.650900017691539
 31
0.0
  0
LINE
  5
96
  8
VISIBLE
 10
1.2935
 20
4.49090001769154
 30
0.0
 11
1.2935
 21
4.650900017691539
 31
0.0
  0
LINE
  5
97
  8
VISIBLE
 10
0.1685000000000001
 20
4.49090001769154
 30
0.0
 11
1.2935
 21
4.49090001769154
 31
0.0
  0
LINE
  5
98
  8
VISIBLE
 10
0.1685000000000001
 20
4.49090001769154
 30
0.0
 11
0.1685000000000001
 21
4.650900017691539
 31
0.0
  0
LINE
  5
99
  8
VISIBLE
 10
0.4784999999999999
 20
4.650900017691539
 30
0.0
 11
0.1685000000000001
 21
4.650900017691539
 31
0.0
  0
LINE
  5
9A
  8
VISIBLE
 10
0.4784999999999999
 20
5.00840001769154
 30
0.0
 11
0.4784999999999999
 21
4.650900017691539
 31
0.0
  0
LINE
  5
9B
  8
VISIBLE
 10
0.4784999999999999
 20
5.00840001769154
 30
0.0
 11
0.6034999999999999
 21
5.00840001769154
 31
0.0
  0
LINE
  5
9C
  8
VISIBLE
 10
0.6034999999999999
 20
5.00840001769154
 30
0.0
 11
0.6034999999999999
 21
5.13340001769154
 31
0.0
  0
LINE
  5
9D
  8
VISIBLE
 10
0.4784999999999999
 20
5.13340001769154
 30
0.0
 11
0.6034999999999999
 21
5.13340001769154
 31
0.0
  0
LINE
  5
9E
  8
VISIBLE
 10
0.4784999999999999
 20
5.25840001769154
 30
0.0
 11
0.4784999999999999
 21
5.13340001769154
 31
0.0
  0
LINE
  5
9F
  8
VISIBLE
 10
0.4784999999999999
 20
5.25840001769154
 30
0.0
 11
0.6034999999999999
 21
5.25840001769154
 31
0.0
  0
LINE
  5
A0
  8
VISIBLE
 10
0.6034999999999999
 20
5.25840001769154
 30
0.0
 11
0.6034999999999999
 21
5.38340001769154
 31
0.0
  0
LINE
  5
A1
  8
VISIBLE
 10
0.4784999999999999
 20
5.38340001769154
 30
0.0
 11
0.6034999999999999
 21
5.38340001769154
 31
0.0
  0
LINE
  5
A2
  8
VISIBLE
 10
0.4784999999999999
 20
5.50840001769154
 30
0.0
 11
0.4784999999999999
 21
5.38340001769154
 31
0.0
  0
LINE
  5
A3
  8
VISIBLE
 10
0.4784999999999999
 20
5.50840001769154
 30
0.0
 11
0.6034999999999999
 21
5.50840001769154
 31
0.0
  0
LINE
  5
A4
  8
VISIBLE
 10
0.6034999999999999
 20
5.50840001769154
 30
0.0
 11
0.6034999999999999
 21
5.63340001769154
 31
0.0
  0
LINE
  5
A5
  8
VISIBLE
 10
0.4784999999999999
 20
5.63340001769154
 30
0.0
 11
0.6034999999999999
 21
5.63340001769154
 31
0.0
  0
LINE
  5
A6
  8
VISIBLE
 10
0.4784999999999999
 20
5.75840001769154
 30
0.0
 11
0.4784999999999999
 21
5.63340001769154
 31
0.0
  0
LINE
  5
A7
  8
VISIBLE
 10
0.6034999999999999
 20
5.75840001769154
 30
0.0
 11
0.4784999999999999
 21
5.75840001769154
 31
0.0
  0
LINE
  5
A8
  8
VISIBLE
 10
0.6034999999999999
 20
5.75840001769154
 30
0.0
 11
0.6034999999999999
 21
6.00840001769154
 31
0.0
  0
LINE
  5
A9
  8
VISIBLE
 10
0.6034999999999999
 20
6.00840001769154
 30
0.0
 11
0.4784999999999999
 21
6.00840001769154
 31
0.0
  0
LINE
  5
AA
  8
VISIBLE
 10
0.6034999999999999
 20
6.25840001769154
 30
0.0
 11
0.6034999999999999
 21
6.13340001769154
 31
0.0
  0
LINE
  5
AB
  8
VISIBLE
 10
0.4784999999999999
 20
6.25840001769154
 30
0.0
 11
0.6034999999999999
 21
6.25840001769154
 31
0.0
  0
LINE
  5
AC
  8
VISIBLE
 10
0.4784999999999999
 20
6.38340001769154
 30
0.0
 11
0.4784999999999999
 21
6.25840001769154
 31
0.0
  0
LINE
  5
AD
  8
VISIBLE
 10
0.4784999999999999
 20
6.38340001769154
 30
0.0
 11
0.6034999999999999
 21
6.38340001769154
 31
0.0
  0
LINE
  5
AE
  8
VISIBLE
 10
0.6034999999999999
 20
6.50840001769154
 30
0.0
 11
0.6034999999999999
 21
6.38340001769154
 31
0.0
  0
LINE
  5
AF
  8
VISIBLE
 10
0.4784999999999999
 20
6.50840001769154
 30
0.0
 11
0.6034999999999999
 21
6.50840001769154
 31
0.0
  0
LINE
  5
B0
  8
VISIBLE
 10
0.4784999999999999
 20
6.63340001769154
 30
0.0
 11
0.4784999999999999
 21
6.50840001769154
 31
0.0
  0
LINE
  5
B1
  8
VISIBLE
 10
0.4784999999999999
 20
6.63340001769154
 30
0.0
 11
0.6034999999999999
 21
6.63340001769154
 31
0.0
  0
LINE
  5
B2
  8
VISIBLE
 10
0.6034999999999999
 20
6.75840001769154
 30
0.0
 11
0.6034999999999999
 21
6.63340001769154
 31
0.0
  0
LINE
  5
B3
  8
VISIBLE
 10
0.4784999999999999
 20
6.75840001769154
 30
0.0
 11
0.6034999999999999
 21
6.75840001769154
 31
0.0
  0
LINE
  5
B4
  8
VISIBLE
 10
0.6034999999999999
 20
6.99090001769154
 30
0.0
 11
0.6034999999999999
 21
7.11590001769154
 31
0.0
  0
LINE
  5
B5
  8
VISIBLE
 10
0.7284999999999999
 20
6.99090001769154
 30
0.0
 11
0.6034999999999999
 21
6.99090001769154
 31
0.0
  0
LINE
  5
B6
  8
VISIBLE
 10
0.7284999999999999
 20
6.99090001769154
 30
0.0
 11
0.7284999999999999
 21
7.11590001769154
 31
0.0
  0
LINE
  5
B7
  8
VISIBLE
 10
0.7284999999999999
 20
7.11590001769154
 30
0.0
 11
0.8534999999999999
 21
7.11590001769154
 31
0.0
  0
LINE
  5
B8
  8
VISIBLE
 10
0.8534999999999999
 20
6.99090001769154
 30
0.0
 11
0.8534999999999999
 21
7.11590001769154
 31
0.0
  0
LINE
  5
B9
  8
VISIBLE
 10
0.9784999999999999
 20
6.99090001769154
 30
0.0
 11
0.8534999999999999
 21
6.99090001769154
 31
0.0
  0
LINE
  5
BA
  8
VISIBLE
 10
1.1035
 20
6.99090001769154
 30
0.0
 11
1.1035
 21
7.11590001769154
 31
0.0
  0
LINE
  5
BB
  8
VISIBLE
 10
1.2285
 20
6.99090001769154
 30
0.0
 11
1.1035
 21
6.99090001769154
 31
0.0
  0
LINE
  5
BC
  8
VISIBLE
 10
1.2285
 20
7.11590001769154
 30
0.0
 11
1.3535
 21
7.11590001769154
 31
0.0
  0
LINE
  5
BD
  8
VISIBLE
 10
1.3535
 20
6.99090001769154
 30
0.0
 11
1.3535
 21
7.11590001769154
 31
0.0
  0
LINE
  5
BE
  8
VISIBLE
 10
1.4785
 20
6.99090001769154
 30
0.0
 11
1.3535
 21
6.99090001769154
 31
0.0
  0
LINE
  5
BF
  8
VISIBLE
 10
1.4785
 20
6.99090001769154
 30
0.0
 11
1.4785
 21
7.11590001769154
 31
0.0
  0
LINE
  5
C0
  8
VISIBLE
 10
1.4785
 20
7.11590001769154
 30
0.0
 11
1.6035
 21
7.11590001769154
 31
0.0
  0
LINE
  5
C1
  8
VISIBLE
 10
1.6035
 20
6.99090001769154
 30
0.0
 11
1.6035
 21
7.11590001769154
 31
0.0
  0
LINE
  5
C2
  8
VISIBLE
 10
2.1035
 20
6.99090001769154
 30
0.0
 11
1.6035
 21
6.99090001769154
 31
0.0
  0
LINE
  5
C3
  8
VISIBLE
 10
2.1035
 20
7.11590001769154
 30
0.0
 11
2.2285
 21
7.11590001769154
 31
0.0
  0
LINE
  5
C4
  8
VISIBLE
 10
2.2285
 20
6.99090001769154
 30
0.0
 11
2.2285
 21
7.11590001769154
 31
0.0
  0
LINE
  5
C5
  8
VISIBLE
 10
2.3535
 20
6.99090001769154
 30
0.0
 11
2.2285
 21
6.99090001769154
 31
0.0
  0
LINE
  5
C6
  8
VISIBLE
 10
2.3535
 20
6.99090001769154
 30
0.0
 11
2.3535
 21
7.11590001769154
 31
0.0
  0
LINE
  5
C7
  8
VISIBLE
 10
2.4785
 20
6.99090001769154
 30
0.0
 11
2.4785
 21
7.11590001769154
 31
0.0
  0
LINE
  5
C8
  8
VISIBLE
 10
2.6035
 20
6.99090001769154
 30
0.0
 11
2.4785
 21
6.99090001769154
 31
0.0
  0
LINE
  5
C9
  8
VISIBLE
 10
2.6035
 20
6.99090001769154
 30
0.0
 11
2.6035
 21
7.11590001769154
 31
0.0
  0
LINE
  5
CA
  8
VISIBLE
 10
2.6035
 20
7.11590001769154
 30
0.0
 11
2.7285
 21
7.11590001769154
 31
0.0
  0
LINE
  5
CB
  8
VISIBLE
 10
2.7285
 20
6.99090001769154
 30
0.0
 11
2.7285
 21
7.11590001769154
 31
0.0
  0
LINE
  5
CC
  8
VISIBLE
 10
2.8535
 20
6.99090001769154
 30
0.0
 11
2.7285
 21
6.99090001769154
 31
0.0
  0
LINE
  5
CD
  8
VISIBLE
 10
2.8535
 20
6.99090001769154
 30
0.0
 11
2.8535
 21
7.11590001769154
 31
0.0
  0
LINE
  5
CE
  8
VISIBLE
 10
2.8535
 20
7.11590001769154
 30
0.0
 11
2.9785
 21
7.11590001769154
 31
0.0
  0
LINE
  5
CF
  8
VISIBLE
 10
2.9785
 20
6.99090001769154
 30
0.0
 11
2.9785
 21
7.11590001769154
 31
0.0
  0
LINE
  5
D0
  8
VISIBLE
 10
3.103499999999999
 20
6.99090001769154
 30
0.0
 11
2.9785
 21
6.99090001769154
 31
0.0
  0
CIRCLE
  5
D1
  8
VISIBLE
 10
-0.7614999999999998
 20
6.832900017691539
 30
0.0000000000000004
 40
0.0395
210
0.0
220
6.123233995736766E-17
230
-1.0
  0
CIRCLE
  5
D2
  8
VISIBLE
 10
-0.7215
 20
4.810900017691539
 30
0.0000000000000003
 40
0.0395
210
0.0
220
6.123233995736766E-17
230
-1.0
  0
CIRCLE
  5
D3
  8
VISIBLE
 10
-3.0035
 20
4.78990001769154
 30
0.0000000000000003
 40
0.0395
210
0.0
220
6.123233995736766E-17
230
-1.0
  0
CIRCLE
  5
D4
  8
VISIBLE
 10
-2.9455
 20
6.832900017691539
 30
0.0000000000000004
 40
0.0395
210
0.0
220
6.123233995736766E-17
230
-1.0
  0
ARC
  5
D5
  8
VISIBLE
 10
-2.9505
 20
4.957900017691539
 30
0.0000000000000003
 40
0.075
 50
180.0
 51
270.0
210
0.0
220
6.123233995736766E-17
230
-1.0
  0
LINE
  5
D6
  8
VISIBLE
 10
3.0255
 20
6.71290001769154
 30
0.0
 11
3.0255
 21
4.957900017691539
 31
0.0
  0
LINE
  5
D7
  8
VISIBLE
 10
2.9005
 20
6.71290001769154
 30
0.0
 11
3.0255
 21
6.71290001769154
 31
0.0
  0
ARC
  5
D8
  8
VISIBLE
 10
-2.9005
 20
6.787900017691539
 30
0.0000000000000004
 40
0.075
 50
270.0
 51
0.0
210
0.0
220
6.123233995736766E-17
230
-1.0
  0
LINE
  5
D9
  8
VISIBLE
 10
2.8255
 20
6.912900017691539
 30
0.0
 11
2.8255
 21
6.787900017691539
 31
0.0
  0
LINE
  5
DA
  8
VISIBLE
 10
2.8255
 20
6.912900017691539
 30
0.0
 11
0.8855
 21
6.912900017691539
 31
0.0
  0
ARC
  5
DB
  8
VISIBLE
 10
-0.8104999999999998
 20
6.787900017691539
 30
0.0000000000000004
 40
0.075
 50
180.0
 51
270.0
210
0.0
220
6.123233995736766E-17
230
-1.0
  0
LINE
  5
DC
  8
VISIBLE
 10
0.8104999999999998
 20
6.71290001769154
 30
0.0
 11
0.6854999999999998
 21
6.71290001769154
 31
0.0
  0
LINE
  5
DD
  8
VISIBLE
 10
0.6854999999999998
 20
6.71290001769154
 30
0.0
 11
0.6854999999999998
 21
4.957900017691539
 31
0.0
  0
ARC
  5
DE
  8
VISIBLE
 10
-0.7605
 20
4.957900017691539
 30
0.0000000000000003
 40
0.075
 50
270.0
 51
0.0
210
0.0
220
6.123233995736766E-17
230
-1.0
  0
LINE
  5
DF
  8
VISIBLE
 10
2.9505
 20
4.88290001769154
 30
0.0
 11
0.7605
 21
4.88290001769154
 31
0.0
  0
LINE
  5
E0
  8
VISIBLE
 10
3.103499999999999
 20
6.99090001769154
 30
0.0
 11
3.103499999999999
 21
7.11590001769154
 31
0.0
  0
LINE
  5
E1
  8
VISIBLE
 10
0.4784999999999999
 20
7.11590001769154
 30
0.0
 11
0.6034999999999999
 21
7.11590001769154
 31
0.0
  0
LINE
  5
E2
  8
VISIBLE
 10
0.4784999999999999
 20
6.13340001769154
 30
0.0
 11
0.4784999999999999
 21
6.00840001769154
 31
0.0
  0
LINE
  5
E3
  8
VISIBLE
 10
2.1035
 20
6.99090001769154
 30
0.0
 11
2.1035
 21
7.11590001769154
 31
0.0
  0
LINE
  5
E4
  8
VISIBLE
 10
0.8855
 20
6.912900017691539
 30
0.0
 11
0.8855
 21
6.787900017691539
 31
0.0
  0
LINE
  5
E5
  8
VISIBLE
 10
3.103499999999999
 20
7.11590001769154
 30
0.0
 11
3.228499999999999
 21
7.11590001769154
 31
0.0
  0
LINE
  5
E6
  8
VISIBLE
 10
0.4784999999999999
 20
7.11590001769154
 30
0.0
 11
0.4784999999999999
 21
6.75840001769154
 31
0.0
  0
LINE
  5
E7
  8
VISIBLE
 10
0.4784999999999999
 20
6.13340001769154
 30
0.0
 11
0.6034999999999999
 21
6.13340001769154
 31
0.0
  0
LINE
  5
E8
  8
VISIBLE
 10
2.3535
 20
7.11590001769154
 30
0.0
 11
2.4785
 21
7.11590001769154
 31
0.0
  0
LINE
  5
E9
  8
VISIBLE
 10
0.9784999999999999
 20
6.99090001769154
 30
0.0
 11
0.9784999999999999
 21
7.11590001769154
 31
0.0
  0
LINE
  5
EA
  8
VISIBLE
 10
3.228499999999999
 20
6.13340001769154
 30
0.0
 11
3.228499999999999
 21
6.00840001769154
 31
0.0
  0
LINE
  5
EB
  8
VISIBLE
 10
3.228499999999999
 20
6.13340001769154
 30
0.0
 11
3.103499999999999
 21
6.13340001769154
 31
0.0
  0
LINE
  5
EC
  8
VISIBLE
 10
0.9784999999999999
 20
7.11590001769154
 30
0.0
 11
1.1035
 21
7.11590001769154
 31
0.0
  0
LINE
  5
ED
  8
VISIBLE
 10
1.2285
 20
6.99090001769154
 30
0.0
 11
1.2285
 21
7.11590001769154
 31
0.0
  0
LINE
  5
EE
  8
VISIBLE
 10
3.228499999999999
 20
7.11590001769154
 30
0.0
 11
3.228499999999999
 21
6.75840001769154
 31
0.0
  0
POLYLINE
  5
F1
  8
VISIBLE
 66
     1
 10
0.0
 20
0.0
 30
0.0
 70
   128
  0
VERTEX
  5
F2
  8
VISIBLE
 10
7.097568259031731
 20
5.556946856484377
 30
0.0
  0
VERTEX
  5
F3
  8
VISIBLE
 10
7.060132717216599
 20
5.530697090473
 30
0.0
  0
VERTEX
  5
F4
  8
VISIBLE
 10
7.017512756840742
 20
5.5098516880522
 30
0.0
  0
VERTEX
  5
F5
  8
VISIBLE
 10
6.969708377904154
 20
5.494410649221979
 30
0.0
  0
VERTEX
  5
F6
  8
VISIBLE
 10
6.928510766126937
 20
5.486069730925297
 30
0.0
  0
VERTEX
  5
F7
  8
VISIBLE
 10
6.884112569421923
 20
5.481065179947287
 30
0.0
  0
VERTEX
  5
F8
  8
VISIBLE
 10
6.836513787789113
 20
5.479396996287951
 30
0.0
  0
SEQEND
  5
F9
  8
VISIBLE
  0
POLYLINE
  5
FA
  8
VISIBLE
 66
     1
 10
0.0
 20
0.0
 30
0.0
 70
   128
  0
VERTEX
  5
FB
  8
VISIBLE
 10
7.190898614035567
 20
5.772463328425604
 30
0.0
  0
VERTEX
  5
FC
  8
VISIBLE
 10
7.187646569665655
 20
5.723060981517053
 30
0.0
  0
VERTEX
  5
FD
  8
VISIBLE
 10
7.177890436555921
 20
5.677869010894183
 30
0.0
  0
VERTEX
  5
FE
  8
VISIBLE
 10
7.161630214706364
 20
5.636887416556997
 30
0.0
  0
VERTEX
  5
FF
  8
VISIBLE
 10
7.144291508754541
 20
5.607641300288398
 30
0.0
  0
VERTEX
  5
100
  8
VISIBLE
 10
7.122937523529662
 20
5.580994446930857
 30
0.0
  0
VERTEX
  5
101
  8
VISIBLE
 10
7.097568259031731
 20
5.556946856484377
 30
0.0
  0
SEQEND
  5
102
  8
VISIBLE
  0
POLYLINE
  5
103
  8
VISIBLE
 66
     1
 10
0.0
 20
0.0
 30
0.0
 70
   128
  0
VERTEX
  5
104
  8
VISIBLE
 10
6.956220112685338
 20
6.019089918701445
 30
0.0
  0
VERTEX
  5
105
  8
VISIBLE
 10
7.005844289866853
 20
6.008014384733061
 30
0.0
  0
VERTEX
  5
106
  8
VISIBLE
 10
7.049580852806492
 20
5.992764922512512
 30
0.0
  0
VERTEX
  5
107
  8
VISIBLE
 10
7.087429801504256
 20
5.973341532039798
 30
0.0
  0
VERTEX
  5
108
  8
VISIBLE
 10
7.119391135960147
 20
5.949744213314919
 30
0.0
  0
VERTEX
  5
109
  8
VISIBLE
 10
7.145464856174162
 20
5.921972966337877
 30
0.0
  0
VERTEX
  5
10A
  8
VISIBLE
 10
7.165342125238527
 20
5.890634842396861
 30
0.0
  0
VERTEX
  5
10B
  8
VISIBLE
 10
7.179540174570216
 20
5.855270528097811
 30
0.0
  0
VERTEX
  5
10C
  8
VISIBLE
 10
7.18805900416923
 20
5.815880023440725
 30
0.0
  0
VERTEX
  5
10D
  8
VISIBLE
 10
7.190898614035567
 20
5.772463328425604
 30
0.0
  0
SEQEND
  5
10E
  8
VISIBLE
  0
LINE
  5
10F
  8
VISIBLE
 10
6.956220112685338
 20
6.026078423544728
 30
0.0
 11
6.956220112685338
 21
6.019089918701445
 31
0.0
  0
POLYLINE
  5
110
  8
VISIBLE
 66
     1
 10
0.0
 20
0.0
 30
0.0
 70
   128
  0
VERTEX
  5
111
  8
VISIBLE
 10
7.105345788615383
 20
6.103177412460941
 30
0.0
  0
VERTEX
  5
112
  8
VISIBLE
 10
7.084645145933616
 20
6.082419539184674
 30
0.0
  0
VERTEX
  5
113
  8
VISIBLE
 10
7.060668893343027
 20
6.064583792733544
 30
0.0
  0
VERTEX
  5
114
  8
VISIBLE
 10
7.033417030843615
 20
6.049670173107552
 30
0.0
  0
VERTEX
  5
115
  8
VISIBLE
 10
6.997093532983041
 20
6.035844836519651
 30
0.0
  0
VERTEX
  5
116
  8
VISIBLE
 10
6.956220112685338
 20
6.026078423544728
 30
0.0
  0
SEQEND
  5
117
  8
VISIBLE
  0
POLYLINE
  5
118
  8
VISIBLE
 66
     1
 10
0.0
 20
0.0
 30
0.0
 70
   128
  0
VERTEX
  5
119
  8
VISIBLE
 10
7.156406961099367
 20
6.254444726971992
 30
0.0
  0
VERTEX
  5
11A
  8
VISIBLE
 10
7.15462776291148
 20
6.221313823598194
 30
0.0
  0
VERTEX
  5
11B
  8
VISIBLE
 10
7.149290168347821
 20
6.190429501600711
 30
0.0
  0
VERTEX
  5
11C
  8
VISIBLE
 10
7.14039417740839
 20
6.161791760979544
 30
0.0
  0
VERTEX
  5
11D
  8
VISIBLE
 10
7.125341343760112
 20
6.130924301567942
 30
0.0
  0
VERTEX
  5
11E
  8
VISIBLE
 10
7.105345788615383
 20
6.103177412460941
 30
0.0
  0
SEQEND
  5
11F
  8
VISIBLE
  0
POLYLINE
  5
120
  8
VISIBLE
 66
     1
 10
0.0
 20
0.0
 30
0.0
 70
   128
  0
VERTEX
  5
121
  8
VISIBLE
 10
7.064767373396324
 20
6.448093941822949
 30
0.0
  0
VERTEX
  5
122
  8
VISIBLE
 10
7.095786355616162
 20
6.422727322436527
 30
0.0
  0
VERTEX
  5
123
  8
VISIBLE
 10
7.12041907679074
 20
6.392411939878501
 30
0.0
  0
VERTEX
  5
124
  8
VISIBLE
 10
7.138665536920057
 20
6.357147794148871
 30
0.0
  0
VERTEX
  5
125
  8
VISIBLE
 10
7.14852188368634
 20
6.32596854221796
 30
0.0
  0
VERTEX
  5
126
  8
VISIBLE
 10
7.15443569174611
 20
6.291734186492334
 30
0.0
  0
VERTEX
  5
127
  8
VISIBLE
 10
7.156406961099367
 20
6.254444726971992
 30
0.0
  0
SEQEND
  5
128
  8
VISIBLE
  0
POLYLINE
  5
129
  8
VISIBLE
 66
     1
 10
0.0
 20
0.0
 30
0.0
 70
   128
  0
VERTEX
  5
12A
  8
VISIBLE
 10
6.768206788837029
 20
6.50941243593175
 30
0.0
  0
VERTEX
  5
12B
  8
VISIBLE
 10
6.823364352337376
 20
6.508210593447218
 30
0.0
  0
VERTEX
  5
12C
  8
VISIBLE
 10
6.874081284598918
 20
6.50460506599362
 30
0.0
  0
VERTEX
  5
12D
  8
VISIBLE
 10
6.920357585621654
 20
6.498595853570958
 30
0.0
  0
VERTEX
  5
12E
  8
VISIBLE
 10
6.962193255405585
 20
6.49018295617923
 30
0.0
  0
VERTEX
  5
12F
  8
VISIBLE
 10
7.0012582460274
 20
6.478791342607017
 30
0.0
  0
VERTEX
  5
130
  8
VISIBLE
 10
7.03544961869098
 20
6.464761671154923
 30
0.0
  0
VERTEX
  5
131
  8
VISIBLE
 10
7.064767373396324
 20
6.448093941822949
 30
0.0
  0
SEQEND
  5
132
  8
VISIBLE
  0
LINE
  5
133
  8
VISIBLE
 10
6.477169377460329
 20
6.50941243593175
 30
0.0
 11
6.768206788837029
 21
6.50941243593175
 31
0.0
  0
LINE
  5
134
  8
VISIBLE
 10
6.477169377460329
 20
5.479396996287951
 30
0.0
 11
6.477169377460329
 21
6.50941243593175
 31
0.0
  0
LINE
  5
135
  8
VISIBLE
 10
6.836513787789113
 20
5.479396996287951
 30
0.0
 11
6.477169377460329
 21
5.479396996287951
 31
0.0
  0
LINE
  5
136
  8
VISIBLE
 10
8.12375787925685
 20
5.784601059266065
 30
0.0
 11
8.12375787925685
 21
5.659601059266065
 31
0.0
  0
LINE
  5
137
  8
VISIBLE
 10
7.998757879256849
 20
5.659601059266065
 30
0.0
 11
8.12375787925685
 21
5.659601059266065
 31
0.0
  0
LINE
  5
138
  8
VISIBLE
 10
7.998757879256849
 20
5.659601059266065
 30
0.0
 11
7.998757879256849
 21
5.534601059266065
 31
0.0
  0
LINE
  5
139
  8
VISIBLE
 10
7.998757879256849
 20
5.534601059266065
 30
0.0
 11
8.12375787925685
 21
5.534601059266065
 31
0.0
  0
LINE
  5
13A
  8
VISIBLE
 10
8.12375787925685
 20
5.534601059266065
 30
0.0
 11
8.12375787925685
 21
5.409601059266065
 31
0.0
  0
LINE
  5
13B
  8
VISIBLE
 10
7.998757879256849
 20
5.409601059266065
 30
0.0
 11
8.12375787925685
 21
5.409601059266065
 31
0.0
  0
LINE
  5
13C
  8
VISIBLE
 10
7.998757879256849
 20
5.409601059266065
 30
0.0
 11
7.998757879256849
 21
5.284601059266065
 31
0.0
  0
LINE
  5
13D
  8
VISIBLE
 10
7.998757879256849
 20
5.284601059266065
 30
0.0
 11
8.12375787925685
 21
5.284601059266065
 31
0.0
  0
LINE
  5
13E
  8
VISIBLE
 10
8.12375787925685
 20
5.284601059266065
 30
0.0
 11
8.12375787925685
 21
5.159601059266065
 31
0.0
  0
LINE
  5
13F
  8
VISIBLE
 10
7.998757879256849
 20
5.159601059266065
 30
0.0
 11
8.12375787925685
 21
5.159601059266065
 31
0.0
  0
LINE
  5
140
  8
VISIBLE
 10
7.998757879256849
 20
5.159601059266065
 30
0.0
 11
7.998757879256849
 21
5.034601059266065
 31
0.0
  0
LINE
  5
141
  8
VISIBLE
 10
7.998757879256849
 20
5.034601059266065
 30
0.0
 11
8.12375787925685
 21
5.034601059266065
 31
0.0
  0
LINE
  5
142
  8
VISIBLE
 10
8.12375787925685
 20
5.034601059266065
 30
0.0
 11
8.12375787925685
 21
4.677101059266064
 31
0.0
  0
LINE
  5
143
  8
VISIBLE
 10
8.12375787925685
 20
4.677101059266064
 30
0.0
 11
8.433757879256849
 21
4.677101059266064
 31
0.0
  0
LINE
  5
144
  8
VISIBLE
 10
8.433757879256849
 20
4.517101059266065
 30
0.0
 11
8.433757879256849
 21
4.677101059266064
 31
0.0
  0
LINE
  5
145
  8
VISIBLE
 10
7.308757879256849
 20
4.517101059266065
 30
0.0
 11
8.433757879256849
 21
4.517101059266065
 31
0.0
  0
LINE
  5
146
  8
VISIBLE
 10
7.308757879256849
 20
4.517101059266065
 30
0.0
 11
7.308757879256849
 21
4.675223540434789
 31
0.0
  0
LINE
  5
147
  8
VISIBLE
 10
7.308757879256849
 20
4.675223540434789
 30
0.0
 11
7.498757879256851
 21
4.675223540434789
 31
0.0
  0
LINE
  5
148
  8
VISIBLE
 10
7.498757879256851
 20
4.675223540434789
 30
0.0
 11
7.498757879256851
 21
4.827101059266065
 31
0.0
  0
ARC
  5
149
  8
VISIBLE
 10
-6.74875787925685
 20
9.409444408191312
 30
0.0000000000000019
 40
4.64331461
 50
260.7047186841786
 51
279.2952813158214
210
2.449293598294705E-16
220
6.123233995736766E-17
230
-1.0
  0
LINE
  5
14A
  8
VISIBLE
 10
5.99875787925685
 20
4.827101059266065
 30
0.0
 11
5.99875787925685
 21
4.677101059266064
 31
0.0
  0
LINE
  5
14B
  8
VISIBLE
 10
5.99875787925685
 20
4.677101059266064
 30
0.0
 11
6.18875787925685
 21
4.677101059266064
 31
0.0
  0
LINE
  5
14C
  8
VISIBLE
 10
6.18875787925685
 20
4.677101059266064
 30
0.0
 11
6.18875787925685
 21
4.517101059266065
 31
0.0
  0
LINE
  5
14D
  8
VISIBLE
 10
5.06375787925685
 20
4.517101059266065
 30
0.0
 11
6.18875787925685
 21
4.517101059266065
 31
0.0
  0
LINE
  5
14E
  8
VISIBLE
 10
5.06375787925685
 20
4.517101059266065
 30
0.0
 11
5.06375787925685
 21
4.677101059266064
 31
0.0
  0
LINE
  5
14F
  8
VISIBLE
 10
5.37375787925685
 20
4.677101059266064
 30
0.0
 11
5.06375787925685
 21
4.677101059266064
 31
0.0
  0
LINE
  5
150
  8
VISIBLE
 10
5.37375787925685
 20
5.034601059266065
 30
0.0
 11
5.37375787925685
 21
4.677101059266064
 31
0.0
  0
LINE
  5
151
  8
VISIBLE
 10
5.49875787925685
 20
5.034601059266065
 30
0.0
 11
5.37375787925685
 21
5.034601059266065
 31
0.0
  0
LINE
  5
152
  8
VISIBLE
 10
5.49875787925685
 20
5.159601059266065
 30
0.0
 11
5.49875787925685
 21
5.034601059266065
 31
0.0
  0
LINE
  5
153
  8
VISIBLE
 10
5.49875787925685
 20
5.159601059266065
 30
0.0
 11
5.37375787925685
 21
5.159601059266065
 31
0.0
  0
LINE
  5
154
  8
VISIBLE
 10
5.37375787925685
 20
5.284601059266065
 30
0.0
 11
5.37375787925685
 21
5.159601059266065
 31
0.0
  0
LINE
  5
155
  8
VISIBLE
 10
5.49875787925685
 20
5.284601059266065
 30
0.0
 11
5.37375787925685
 21
5.284601059266065
 31
0.0
  0
LINE
  5
156
  8
VISIBLE
 10
5.49875787925685
 20
5.409601059266065
 30
0.0
 11
5.49875787925685
 21
5.284601059266065
 31
0.0
  0
LINE
  5
157
  8
VISIBLE
 10
5.49875787925685
 20
5.409601059266065
 30
0.0
 11
5.37375787925685
 21
5.409601059266065
 31
0.0
  0
LINE
  5
158
  8
VISIBLE
 10
5.37375787925685
 20
5.534601059266065
 30
0.0
 11
5.37375787925685
 21
5.409601059266065
 31
0.0
  0
LINE
  5
159
  8
VISIBLE
 10
5.49875787925685
 20
5.534601059266065
 30
0.0
 11
5.37375787925685
 21
5.534601059266065
 31
0.0
  0
LINE
  5
15A
  8
VISIBLE
 10
5.49875787925685
 20
5.659601059266065
 30
0.0
 11
5.49875787925685
 21
5.534601059266065
 31
0.0
  0
LINE
  5
15B
  8
VISIBLE
 10
5.49875787925685
 20
5.659601059266065
 30
0.0
 11
5.37375787925685
 21
5.659601059266065
 31
0.0
  0
LINE
  5
15C
  8
VISIBLE
 10
5.37375787925685
 20
5.784601059266065
 30
0.0
 11
5.37375787925685
 21
5.659601059266065
 31
0.0
  0
LINE
  5
15D
  8
VISIBLE
 10
5.37375787925685
 20
5.784601059266065
 30
0.0
 11
5.49875787925685
 21
5.784601059266065
 31
0.0
  0
LINE
  5
15E
  8
VISIBLE
 10
5.49875787925685
 20
6.034601059266065
 30
0.0
 11
5.49875787925685
 21
5.784601059266065
 31
0.0
  0
LINE
  5
15F
  8
VISIBLE
 10
5.37375787925685
 20
6.034601059266065
 30
0.0
 11
5.49875787925685
 21
6.034601059266065
 31
0.0
  0
LINE
  5
160
  8
VISIBLE
 10
5.37375787925685
 20
6.159601059266065
 30
0.0
 11
5.37375787925685
 21
6.034601059266065
 31
0.0
  0
LINE
  5
161
  8
VISIBLE
 10
5.49875787925685
 20
6.159601059266065
 30
0.0
 11
5.37375787925685
 21
6.159601059266065
 31
0.0
  0
LINE
  5
162
  8
VISIBLE
 10
5.49875787925685
 20
6.159601059266065
 30
0.0
 11
5.49875787925685
 21
6.284601059266065
 31
0.0
  0
LINE
  5
163
  8
VISIBLE
 10
5.49875787925685
 20
6.284601059266065
 30
0.0
 11
5.37375787925685
 21
6.284601059266065
 31
0.0
  0
LINE
  5
164
  8
VISIBLE
 10
5.37375787925685
 20
6.409601059266065
 30
0.0
 11
5.37375787925685
 21
6.284601059266065
 31
0.0
  0
LINE
  5
165
  8
VISIBLE
 10
5.49875787925685
 20
6.409601059266065
 30
0.0
 11
5.37375787925685
 21
6.409601059266065
 31
0.0
  0
LINE
  5
166
  8
VISIBLE
 10
5.49875787925685
 20
6.409601059266065
 30
0.0
 11
5.49875787925685
 21
6.534601059266065
 31
0.0
  0
LINE
  5
167
  8
VISIBLE
 10
5.49875787925685
 20
6.534601059266065
 30
0.0
 11
5.37375787925685
 21
6.534601059266065
 31
0.0
  0
LINE
  5
168
  8
VISIBLE
 10
5.37375787925685
 20
6.659601059266065
 30
0.0
 11
5.37375787925685
 21
6.534601059266065
 31
0.0
  0
LINE
  5
169
  8
VISIBLE
 10
5.49875787925685
 20
6.659601059266065
 30
0.0
 11
5.37375787925685
 21
6.659601059266065
 31
0.0
  0
LINE
  5
16A
  8
VISIBLE
 10
5.49875787925685
 20
6.659601059266065
 30
0.0
 11
5.49875787925685
 21
6.784601059266065
 31
0.0
  0
LINE
  5
16B
  8
VISIBLE
 10
5.49875787925685
 20
6.784601059266065
 30
0.0
 11
5.37375787925685
 21
6.784601059266065
 31
0.0
  0
LINE
  5
16C
  8
VISIBLE
 10
5.37375787925685
 20
7.142101059266065
 30
0.0
 11
5.37375787925685
 21
6.784601059266065
 31
0.0
  0
LINE
  5
16D
  8
VISIBLE
 10
5.37375787925685
 20
7.142101059266065
 30
0.0
 11
5.49875787925685
 21
7.142101059266065
 31
0.0
  0
LINE
  5
16E
  8
VISIBLE
 10
5.49875787925685
 20
7.017101059266065
 30
0.0
 11
5.49875787925685
 21
7.142101059266065
 31
0.0
  0
LINE
  5
16F
  8
VISIBLE
 10
5.49875787925685
 20
7.017101059266065
 30
0.0
 11
5.62375787925685
 21
7.017101059266065
 31
0.0
  0
LINE
  5
170
  8
VISIBLE
 10
5.62375787925685
 20
7.017101059266065
 30
0.0
 11
5.62375787925685
 21
7.142101059266065
 31
0.0
  0
LINE
  5
171
  8
VISIBLE
 10
5.62375787925685
 20
7.142101059266065
 30
0.0
 11
5.74875787925685
 21
7.142101059266065
 31
0.0
  0
LINE
  5
172
  8
VISIBLE
 10
5.74875787925685
 20
7.017101059266065
 30
0.0
 11
5.74875787925685
 21
7.142101059266065
 31
0.0
  0
LINE
  5
173
  8
VISIBLE
 10
5.74875787925685
 20
7.017101059266065
 30
0.0
 11
5.87375787925685
 21
7.017101059266065
 31
0.0
  0
LINE
  5
174
  8
VISIBLE
 10
5.87375787925685
 20
7.017101059266065
 30
0.0
 11
5.87375787925685
 21
7.142101059266065
 31
0.0
  0
LINE
  5
175
  8
VISIBLE
 10
5.87375787925685
 20
7.142101059266065
 30
0.0
 11
5.99875787925685
 21
7.142101059266065
 31
0.0
  0
LINE
  5
176
  8
VISIBLE
 10
5.99875787925685
 20
7.017101059266065
 30
0.0
 11
5.99875787925685
 21
7.142101059266065
 31
0.0
  0
LINE
  5
177
  8
VISIBLE
 10
5.99875787925685
 20
7.017101059266065
 30
0.0
 11
6.12375787925685
 21
7.017101059266065
 31
0.0
  0
LINE
  5
178
  8
VISIBLE
 10
6.12375787925685
 20
7.017101059266065
 30
0.0
 11
6.12375787925685
 21
7.142101059266065
 31
0.0
  0
LINE
  5
179
  8
VISIBLE
 10
6.12375787925685
 20
7.142101059266065
 30
0.0
 11
6.24875787925685
 21
7.142101059266065
 31
0.0
  0
LINE
  5
17A
  8
VISIBLE
 10
6.24875787925685
 20
7.017101059266065
 30
0.0
 11
6.24875787925685
 21
7.142101059266065
 31
0.0
  0
LINE
  5
17B
  8
VISIBLE
 10
6.24875787925685
 20
7.017101059266065
 30
0.0
 11
6.37375787925685
 21
7.017101059266065
 31
0.0
  0
LINE
  5
17C
  8
VISIBLE
 10
6.37375787925685
 20
7.017101059266065
 30
0.0
 11
6.37375787925685
 21
7.142101059266065
 31
0.0
  0
LINE
  5
17D
  8
VISIBLE
 10
6.37375787925685
 20
7.142101059266065
 30
0.0
 11
6.49875787925685
 21
7.142101059266065
 31
0.0
  0
LINE
  5
17E
  8
VISIBLE
 10
6.49875787925685
 20
7.017101059266065
 30
0.0
 11
6.49875787925685
 21
7.142101059266065
 31
0.0
  0
LINE
  5
17F
  8
VISIBLE
 10
6.49875787925685
 20
7.017101059266065
 30
0.0
 11
6.99875787925685
 21
7.017101059266065
 31
0.0
  0
LINE
  5
180
  8
VISIBLE
 10
6.99875787925685
 20
7.017101059266065
 30
0.0
 11
6.99875787925685
 21
7.142101059266065
 31
0.0
  0
LINE
  5
181
  8
VISIBLE
 10
6.99875787925685
 20
7.142101059266065
 30
0.0
 11
7.123757879256851
 21
7.142101059266065
 31
0.0
  0
LINE
  5
182
  8
VISIBLE
 10
7.123757879256851
 20
7.017101059266065
 30
0.0
 11
7.123757879256851
 21
7.142101059266065
 31
0.0
  0
LINE
  5
183
  8
VISIBLE
 10
7.123757879256851
 20
7.017101059266065
 30
0.0
 11
7.248757879256849
 21
7.017101059266065
 31
0.0
  0
LINE
  5
184
  8
VISIBLE
 10
7.248757879256849
 20
7.017101059266065
 30
0.0
 11
7.248757879256849
 21
7.142101059266065
 31
0.0
  0
LINE
  5
185
  8
VISIBLE
 10
7.248757879256849
 20
7.142101059266065
 30
0.0
 11
7.373757879256849
 21
7.142101059266065
 31
0.0
  0
LINE
  5
186
  8
VISIBLE
 10
7.373757879256849
 20
7.017101059266065
 30
0.0
 11
7.373757879256849
 21
7.142101059266065
 31
0.0
  0
LINE
  5
187
  8
VISIBLE
 10
7.373757879256849
 20
7.017101059266065
 30
0.0
 11
7.498757879256851
 21
7.017101059266065
 31
0.0
  0
LINE
  5
188
  8
VISIBLE
 10
7.498757879256851
 20
7.017101059266065
 30
0.0
 11
7.498757879256851
 21
7.142101059266065
 31
0.0
  0
LINE
  5
189
  8
VISIBLE
 10
7.498757879256851
 20
7.142101059266065
 30
0.0
 11
7.623757879256851
 21
7.142101059266065
 31
0.0
  0
LINE
  5
18A
  8
VISIBLE
 10
7.623757879256851
 20
7.017101059266065
 30
0.0
 11
7.623757879256851
 21
7.142101059266065
 31
0.0
  0
LINE
  5
18B
  8
VISIBLE
 10
7.623757879256851
 20
7.017101059266065
 30
0.0
 11
7.748757879256849
 21
7.017101059266065
 31
0.0
  0
LINE
  5
18C
  8
VISIBLE
 10
7.748757879256849
 20
7.017101059266065
 30
0.0
 11
7.748757879256849
 21
7.142101059266065
 31
0.0
  0
LINE
  5
18D
  8
VISIBLE
 10
7.748757879256849
 20
7.142101059266065
 30
0.0
 11
7.873757879256849
 21
7.142101059266065
 31
0.0
  0
LINE
  5
18E
  8
VISIBLE
 10
7.873757879256849
 20
7.017101059266065
 30
0.0
 11
7.873757879256849
 21
7.142101059266065
 31
0.0
  0
LINE
  5
18F
  8
VISIBLE
 10
7.873757879256849
 20
7.017101059266065
 30
0.0
 11
7.998757879256849
 21
7.017101059266065
 31
0.0
  0
LINE
  5
190
  8
VISIBLE
 10
7.998757879256849
 20
7.017101059266065
 30
0.0
 11
7.998757879256849
 21
7.142101059266065
 31
0.0
  0
LINE
  5
191
  8
VISIBLE
 10
7.998757879256849
 20
7.142101059266065
 30
0.0
 11
8.12375787925685
 21
7.142101059266065
 31
0.0
  0
LINE
  5
192
  8
VISIBLE
 10
8.12375787925685
 20
7.142101059266065
 30
0.0
 11
8.12375787925685
 21
6.784601059266065
 31
0.0
  0
LINE
  5
193
  8
VISIBLE
 10
7.998757879256849
 20
6.784601059266065
 30
0.0
 11
8.12375787925685
 21
6.784601059266065
 31
0.0
  0
LINE
  5
194
  8
VISIBLE
 10
7.998757879256849
 20
6.784601059266065
 30
0.0
 11
7.998757879256849
 21
6.659601059266065
 31
0.0
  0
LINE
  5
195
  8
VISIBLE
 10
7.998757879256849
 20
6.659601059266065
 30
0.0
 11
8.12375787925685
 21
6.659601059266065
 31
0.0
  0
LINE
  5
196
  8
VISIBLE
 10
8.12375787925685
 20
6.659601059266065
 30
0.0
 11
8.12375787925685
 21
6.534601059266065
 31
0.0
  0
LINE
  5
197
  8
VISIBLE
 10
7.998757879256849
 20
6.534601059266065
 30
0.0
 11
8.12375787925685
 21
6.534601059266065
 31
0.0
  0
LINE
  5
198
  8
VISIBLE
 10
7.998757879256849
 20
6.534601059266065
 30
0.0
 11
7.998757879256849
 21
6.409601059266065
 31
0.0
  0
LINE
  5
199
  8
VISIBLE
 10
7.998757879256849
 20
6.409601059266065
 30
0.0
 11
8.12375787925685
 21
6.409601059266065
 31
0.0
  0
LINE
  5
19A
  8
VISIBLE
 10
8.12375787925685
 20
6.409601059266065
 30
0.0
 11
8.12375787925685
 21
6.284601059266065
 31
0.0
  0
LINE
  5
19B
  8
VISIBLE
 10
7.998757879256849
 20
6.284601059266065
 30
0.0
 11
8.12375787925685
 21
6.284601059266065
 31
0.0
  0
LINE
  5
19C
  8
VISIBLE
 10
7.998757879256849
 20
6.284601059266065
 30
0.0
 11
7.998757879256849
 21
6.159601059266065
 31
0.0
  0
LINE
  5
19D
  8
VISIBLE
 10
7.998757879256849
 20
6.159601059266065
 30
0.0
 11
8.12375787925685
 21
6.159601059266065
 31
0.0
  0
LINE
  5
19E
  8
VISIBLE
 10
8.12375787925685
 20
6.159601059266065
 30
0.0
 11
8.12375787925685
 21
6.034601059266065
 31
0.0
  0
LINE
  5
19F
  8
VISIBLE
 10
8.12375787925685
 20
6.034601059266065
 30
0.0
 11
7.998757879256849
 21
6.034601059266065
 31
0.0
  0
LINE
  5
1A0
  8
VISIBLE
 10
7.998757879256849
 20
6.034601059266065
 30
0.0
 11
7.998757879256849
 21
5.784601059266065
 31
0.0
  0
LINE
  5
1A1
  8
VISIBLE
 10
8.12375787925685
 20
5.784601059266065
 30
0.0
 11
7.998757879256849
 21
5.784601059266065
 31
0.0
  0
POLYLINE
  5
1A2
  8
VISIBLE
 66
     1
 10
0.0
 20
0.0
 30
0.0
 70
   128
  0
VERTEX
  5
1A3
  8
VISIBLE
 10
6.97042255801201
 20
6.367387982665042
 30
0.0
  0
VERTEX
  5
1A4
  8
VISIBLE
 10
6.944724898912295
 20
6.380360250752059
 30
0.0
  0
VERTEX
  5
1A5
  8
VISIBLE
 10
6.913921373048226
 20
6.390661757762337
 30
0.0
  0
VERTEX
  5
1A6
  8
VISIBLE
 10
6.878011980419805
 20
6.398292503695877
 30
0.0
  0
VERTEX
  5
1A7
  8
VISIBLE
 10
6.829135279288447
 20
6.40385715703625
 30
0.0
  0
VERTEX
  5
1A8
  8
VISIBLE
 10
6.773166372919358
 20
6.405712041483041
 30
0.0
  0
SEQEND
  5
1A9
  8
VISIBLE
  0
POLYLINE
  5
1AA
  8
VISIBLE
 66
     1
 10
0.0
 20
0.0
 30
0.0
 70
   128
  0
VERTEX
  5
1AB
  8
VISIBLE
 10
7.032417359041129
 20
6.242271202406274
 30
0.0
  0
VERTEX
  5
1AC
  8
VISIBLE
 10
7.030257184640825
 20
6.272984954788771
 30
0.0
  0
VERTEX
  5
1AD
  8
VISIBLE
 10
7.023776661439915
 20
6.300320979927157
 30
0.0
  0
VERTEX
  5
1AE
  8
VISIBLE
 10
7.012975789438397
 20
6.324279277821432
 30
0.0
  0
VERTEX
  5
1AF
  8
VISIBLE
 10
6.994699722095013
 20
6.348179513514179
 30
0.0
  0
VERTEX
  5
1B0
  8
VISIBLE
 10
6.97042255801201
 20
6.367387982665042
 30
0.0
  0
SEQEND
  5
1B1
  8
VISIBLE
  0
POLYLINE
  5
1B2
  8
VISIBLE
 66
     1
 10
0.0
 20
0.0
 30
0.0
 70
   128
  0
VERTEX
  5
1B3
  8
VISIBLE
 10
6.976734755934975
 20
6.108249714363323
 30
0.0
  0
VERTEX
  5
1B4
  8
VISIBLE
 10
6.995582698390818
 20
6.125001446024481
 30
0.0
  0
VERTEX
  5
1B5
  8
VISIBLE
 10
7.010550182105752
 20
6.145547229450537
 30
0.0
  0
VERTEX
  5
1B6
  8
VISIBLE
 10
7.021637207079777
 20
6.169887064641491
 30
0.0
  0
VERTEX
  5
1B7
  8
VISIBLE
 10
7.02972232105079
 20
6.203444106500941
 30
0.0
  0
VERTEX
  5
1B8
  8
VISIBLE
 10
7.032417359041129
 20
6.242271202406274
 30
0.0
  0
SEQEND
  5
1B9
  8
VISIBLE
  0
POLYLINE
  5
1BA
  8
VISIBLE
 66
     1
 10
0.0
 20
0.0
 30
0.0
 70
   128
  0
VERTEX
  5
1BB
  8
VISIBLE
 10
6.794131887449206
 20
6.068460323884634
 30
0.0
  0
VERTEX
  5
1BC
  8
VISIBLE
 10
6.839033216425489
 20
6.069846763090647
 30
0.0
  0
VERTEX
  5
1BD
  8
VISIBLE
 10
6.878970071870893
 20
6.074006080708686
 30
0.0
  0
VERTEX
  5
1BE
  8
VISIBLE
 10
6.913942453785417
 20
6.080938276738751
 30
0.0
  0
VERTEX
  5
1BF
  8
VISIBLE
 10
6.948786507714232
 20
6.092668189051868
 30
0.0
  0
VERTEX
  5
1C0
  8
VISIBLE
 10
6.976734755934975
 20
6.108249714363323
 30
0.0
  0
SEQEND
  5
1C1
  8
VISIBLE
  0
LINE
  5
1C2
  8
VISIBLE
 10
6.596875702356555
 20
6.068460323884634
 30
0.0
 11
6.794131887449206
 21
6.068460323884634
 31
0.0
  0
LINE
  5
1C3
  8
VISIBLE
 10
6.596875702356555
 20
6.405712041483041
 30
0.0
 11
6.596875702356555
 21
6.068460323884634
 31
0.0
  0
LINE
  5
1C4
  8
VISIBLE
 10
6.773166372919358
 20
6.405712041483041
 30
0.0
 11
6.596875702356555
 21
6.405712041483041
 31
0.0
  0
POLYLINE
  5
1C5
  8
VISIBLE
 66
     1
 10
0.0
 20
0.0
 30
0.0
 70
   128
  0
VERTEX
  5
1C6
  8
VISIBLE
 10
7.062625734815318
 20
5.781029882749628
 30
0.0
  0
VERTEX
  5
1C7
  8
VISIBLE
 10
7.060379153439002
 20
5.815031588894666
 30
0.0
  0
VERTEX
  5
1C8
  8
VISIBLE
 10
7.053639409310056
 20
5.845498464202842
 30
0.0
  0
VERTEX
  5
1C9
  8
VISIBLE
 10
7.042406502428476
 20
5.872430508674158
 30
0.0
  0
VERTEX
  5
1CA
  8
VISIBLE
 10
7.023399392391357
 20
5.899633827365736
 30
0.0
  0
VERTEX
  5
1CB
  8
VISIBLE
 10
6.998151141745033
 20
5.921927157815807
 30
0.0
  0
SEQEND
  5
1CC
  8
VISIBLE
  0
POLYLINE
  5
1CD
  8
VISIBLE
 66
     1
 10
0.0
 20
0.0
 30
0.0
 70
   128
  0
VERTEX
  5
1CE
  8
VISIBLE
 10
6.999616473405722
 20
5.629762568238579
 30
0.0
  0
VERTEX
  5
1CF
  8
VISIBLE
 10
7.020944408289966
 20
5.649682181630676
 30
0.0
  0
VERTEX
  5
1D0
  8
VISIBLE
 10
7.037881297756864
 20
5.673419412326583
 30
0.0
  0
VERTEX
  5
1D1
  8
VISIBLE
 10
7.050427141806419
 20
5.700974260326299
 30
0.0
  0
VERTEX
  5
1D2
  8
VISIBLE
 10
7.059576086563093
 20
5.73835067788755
 30
0.0
  0
VERTEX
  5
1D3
  8
VISIBLE
 10
7.062625734815318
 20
5.781029882749628
 30
0.0
  0
SEQEND
  5
1D4
  8
VISIBLE
  0
POLYLINE
  5
1D5
  8
VISIBLE
 66
     1
 10
0.0
 20
0.0
 30
0.0
 70
   128
  0
VERTEX
  5
1D6
  8
VISIBLE
 10
6.811941303017571
 20
5.581519341255918
 30
0.0
  0
VERTEX
  5
1D7
  8
VISIBLE
 10
6.856334850738718
 20
5.583200349698336
 30
0.0
  0
VERTEX
  5
1D8
  8
VISIBLE
 10
6.896431615198169
 20
5.58824337502559
 30
0.0
  0
VERTEX
  5
1D9
  8
VISIBLE
 10
6.932231596395927
 20
5.59664841723768
 30
0.0
  0
VERTEX
  5
1DA
  8
VISIBLE
 10
6.968908216643162
 20
5.610870520552169
 30
0.0
  0
VERTEX
  5
1DB
  8
VISIBLE
 10
6.999616473405722
 20
5.629762568238579
 30
0.0
  0
SEQEND
  5
1DC
  8
VISIBLE
  0
LINE
  5
1DD
  8
VISIBLE
 10
6.596875702356555
 20
5.581519341255918
 30
0.0
 11
6.811941303017571
 21
5.581519341255918
 31
0.0
  0
LINE
  5
1DE
  8
VISIBLE
 10
6.802022134852912
 20
5.967014285836984
 30
0.0
 11
6.596875702356555
 21
5.967014285836984
 31
0.0
  0
POLYLINE
  5
1DF
  8
VISIBLE
 66
     1
 10
0.0
 20
0.0
 30
0.0
 70
   128
  0
VERTEX
  5
1E0
  8
VISIBLE
 10
6.998151141745033
 20
5.921927157815807
 30
0.0
  0
VERTEX
  5
1E1
  8
VISIBLE
 10
6.97173978346683
 20
5.937188649682886
 30
0.0
  0
VERTEX
  5
1E2
  8
VISIBLE
 10
6.940646738124694
 20
5.949308069694979
 30
0.0
  0
VERTEX
  5
1E3
  8
VISIBLE
 10
6.904872005718628
 20
5.958285417852085
 30
0.0
  0
VERTEX
  5
1E4
  8
VISIBLE
 10
6.856698573610146
 20
5.964832068840759
 30
0.0
  0
VERTEX
  5
1E5
  8
VISIBLE
 10
6.802022134852912
 20
5.967014285836984
 30
0.0
  0
SEQEND
  5
1E6
  8
VISIBLE
  0
LINE
  5
1E7
  8
VISIBLE
 10
6.596875702356555
 20
5.967014285836984
 30
0.0
 11
6.596875702356555
 21
5.581519341255918
 31
0.0
  0
LINE
  5
1EA
  8
VISIBLE
 10
7.352225175965201
 20
2.990840479560907
 30
0.0
 11
7.352225175965201
 21
3.115840479560907
 31
0.0
  0
LINE
  5
1EB
  8
VISIBLE
 10
7.477225175965201
 20
2.990840479560907
 30
0.0
 11
7.477225175965201
 21
3.115840479560907
 31
0.0
  0
LINE
  5
1EC
  8
VISIBLE
 10
7.477225175965201
 20
2.990840479560907
 30
0.0
 11
7.602225175965201
 21
2.990840479560907
 31
0.0
  0
LINE
  5
1ED
  8
VISIBLE
 10
7.602225175965201
 20
2.990840479560907
 30
0.0
 11
7.602225175965201
 21
3.115840479560907
 31
0.0
  0
LINE
  5
1EE
  8
VISIBLE
 10
7.727225175965201
 20
2.990840479560907
 30
0.0
 11
7.727225175965201
 21
3.115840479560907
 31
0.0
  0
LINE
  5
1EF
  8
VISIBLE
 10
7.727225175965201
 20
2.990840479560907
 30
0.0
 11
7.852225175965201
 21
2.990840479560907
 31
0.0
  0
LINE
  5
1F0
  8
VISIBLE
 10
7.852225175965201
 20
2.990840479560907
 30
0.0
 11
7.852225175965201
 21
3.115840479560907
 31
0.0
  0
LINE
  5
1F1
  8
VISIBLE
 10
7.977225175965201
 20
2.990840479560907
 30
0.0
 11
7.977225175965201
 21
3.115840479560907
 31
0.0
  0
LINE
  5
1F2
  8
VISIBLE
 10
7.977225175965201
 20
2.990840479560907
 30
0.0
 11
8.227225175965202
 21
2.990840479560907
 31
0.0
  0
LINE
  5
1F3
  8
VISIBLE
 10
8.227225175965202
 20
2.990840479560907
 30
0.0
 11
8.227225175965202
 21
3.115840479560907
 31
0.0
  0
LINE
  5
1F4
  8
VISIBLE
 10
8.352225175965202
 20
2.990840479560907
 30
0.0
 11
8.352225175965202
 21
3.115840479560907
 31
0.0
  0
LINE
  5
1F5
  8
VISIBLE
 10
8.352225175965202
 20
2.990840479560907
 30
0.0
 11
8.477225175965202
 21
2.990840479560907
 31
0.0
  0
LINE
  5
1F6
  8
VISIBLE
 10
8.477225175965202
 20
2.990840479560907
 30
0.0
 11
8.477225175965202
 21
3.115840479560907
 31
0.0
  0
LINE
  5
1F7
  8
VISIBLE
 10
8.602225175965202
 20
2.990840479560907
 30
0.0
 11
8.602225175965202
 21
3.115840479560907
 31
0.0
  0
LINE
  5
1F8
  8
VISIBLE
 10
8.602225175965202
 20
2.990840479560907
 30
0.0
 11
8.727225175965202
 21
2.990840479560907
 31
0.0
  0
LINE
  5
1F9
  8
VISIBLE
 10
8.727225175965202
 20
2.990840479560907
 30
0.0
 11
8.727225175965202
 21
3.115840479560907
 31
0.0
  0
LINE
  5
1FA
  8
VISIBLE
 10
8.852225175965202
 20
2.990840479560907
 30
0.0
 11
8.852225175965202
 21
3.115840479560907
 31
0.0
  0
LINE
  5
1FB
  8
VISIBLE
 10
8.852225175965202
 20
2.990840479560907
 30
0.0
 11
9.227225175965202
 21
2.990840479560907
 31
0.0
  0
LINE
  5
1FC
  8
VISIBLE
 10
9.227225175965202
 20
2.758340479560907
 30
0.0
 11
9.227225175965202
 21
2.990840479560907
 31
0.0
  0
LINE
  5
1FD
  8
VISIBLE
 10
9.227225175965202
 20
2.758340479560907
 30
0.0
 11
9.352225175965202
 21
2.758340479560907
 31
0.0
  0
LINE
  5
1FE
  8
VISIBLE
 10
9.227225175965202
 20
2.633340479560907
 30
0.0
 11
9.352225175965202
 21
2.633340479560907
 31
0.0
  0
LINE
  5
1FF
  8
VISIBLE
 10
9.227225175965202
 20
2.508340479560907
 30
0.0
 11
9.227225175965202
 21
2.633340479560907
 31
0.0
  0
LINE
  5
200
  8
VISIBLE
 10
9.227225175965202
 20
2.508340479560907
 30
0.0
 11
9.352225175965202
 21
2.508340479560907
 31
0.0
  0
LINE
  5
201
  8
VISIBLE
 10
9.227225175965202
 20
2.258340479560907
 30
0.0
 11
9.227225175965202
 21
2.383340479560907
 31
0.0
  0
LINE
  5
202
  8
VISIBLE
 10
9.227225175965202
 20
2.258340479560907
 30
0.0
 11
9.352225175965202
 21
2.258340479560907
 31
0.0
  0
LINE
  5
203
  8
VISIBLE
 10
9.227225175965202
 20
2.133340479560907
 30
0.0
 11
9.352225175965202
 21
2.133340479560907
 31
0.0
  0
LINE
  5
204
  8
VISIBLE
 10
9.227225175965202
 20
2.008340479560907
 30
0.0
 11
9.227225175965202
 21
2.133340479560907
 31
0.0
  0
LINE
  5
205
  8
VISIBLE
 10
9.227225175965202
 20
2.008340479560907
 30
0.0
 11
9.352225175965202
 21
2.008340479560907
 31
0.0
  0
LINE
  5
206
  8
VISIBLE
 10
9.227225175965202
 20
1.758340479560907
 30
0.0
 11
9.352225175965202
 21
1.758340479560907
 31
0.0
  0
LINE
  5
207
  8
VISIBLE
 10
9.227225175965202
 20
1.633340479560907
 30
0.0
 11
9.227225175965202
 21
1.758340479560907
 31
0.0
  0
LINE
  5
208
  8
VISIBLE
 10
9.227225175965202
 20
1.633340479560907
 30
0.0
 11
9.352225175965202
 21
1.633340479560907
 31
0.0
  0
LINE
  5
209
  8
VISIBLE
 10
9.227225175965202
 20
1.508340479560907
 30
0.0
 11
9.352225175965202
 21
1.508340479560907
 31
0.0
  0
LINE
  5
20A
  8
VISIBLE
 10
9.227225175965202
 20
1.383340479560907
 30
0.0
 11
9.227225175965202
 21
1.508340479560907
 31
0.0
  0
LINE
  5
20B
  8
VISIBLE
 10
9.227225175965202
 20
1.383340479560907
 30
0.0
 11
9.352225175965202
 21
1.383340479560907
 31
0.0
  0
LINE
  5
20C
  8
VISIBLE
 10
9.227225175965202
 20
1.258340479560907
 30
0.0
 11
9.352225175965202
 21
1.258340479560907
 31
0.0
  0
LINE
  5
20D
  8
VISIBLE
 10
9.227225175965202
 20
1.133340479560907
 30
0.0
 11
9.227225175965202
 21
1.258340479560907
 31
0.0
  0
LINE
  5
20E
  8
VISIBLE
 10
9.227225175965202
 20
1.133340479560907
 30
0.0
 11
9.352225175965202
 21
1.133340479560907
 31
0.0
  0
LINE
  5
20F
  8
VISIBLE
 10
9.227225175965202
 20
1.008340479560907
 30
0.0
 11
9.352225175965202
 21
1.008340479560907
 31
0.0
  0
LINE
  5
210
  8
VISIBLE
 10
9.227225175965202
 20
0.925840479560907
 30
0.0
 11
9.227225175965202
 21
1.008340479560907
 31
0.0
  0
LINE
  5
211
  8
VISIBLE
 10
7.227225175965201
 20
1.008340479560907
 30
0.0
 11
7.227225175965201
 21
0.925840479560907
 31
0.0
  0
LINE
  5
212
  8
VISIBLE
 10
7.227225175965201
 20
1.008340479560907
 30
0.0
 11
7.102225175965201
 21
1.008340479560907
 31
0.0
  0
LINE
  5
213
  8
VISIBLE
 10
7.227225175965201
 20
1.133340479560907
 30
0.0
 11
7.102225175965201
 21
1.133340479560907
 31
0.0
  0
LINE
  5
214
  8
VISIBLE
 10
7.227225175965201
 20
1.258340479560907
 30
0.0
 11
7.227225175965201
 21
1.133340479560907
 31
0.0
  0
LINE
  5
215
  8
VISIBLE
 10
7.227225175965201
 20
1.258340479560907
 30
0.0
 11
7.102225175965201
 21
1.258340479560907
 31
0.0
  0
LINE
  5
216
  8
VISIBLE
 10
7.227225175965201
 20
1.383340479560907
 30
0.0
 11
7.102225175965201
 21
1.383340479560907
 31
0.0
  0
LINE
  5
217
  8
VISIBLE
 10
7.227225175965201
 20
1.508340479560907
 30
0.0
 11
7.227225175965201
 21
1.383340479560907
 31
0.0
  0
LINE
  5
218
  8
VISIBLE
 10
7.227225175965201
 20
1.508340479560907
 30
0.0
 11
7.102225175965201
 21
1.508340479560907
 31
0.0
  0
LINE
  5
219
  8
VISIBLE
 10
7.227225175965201
 20
1.633340479560907
 30
0.0
 11
7.102225175965201
 21
1.633340479560907
 31
0.0
  0
LINE
  5
21A
  8
VISIBLE
 10
7.227225175965201
 20
1.758340479560907
 30
0.0
 11
7.227225175965201
 21
1.633340479560907
 31
0.0
  0
LINE
  5
21B
  8
VISIBLE
 10
7.227225175965201
 20
1.758340479560907
 30
0.0
 11
7.102225175965201
 21
1.758340479560907
 31
0.0
  0
LINE
  5
21C
  8
VISIBLE
 10
7.227225175965201
 20
2.008340479560907
 30
0.0
 11
7.102225175965201
 21
2.008340479560907
 31
0.0
  0
LINE
  5
21D
  8
VISIBLE
 10
7.227225175965201
 20
2.133340479560907
 30
0.0
 11
7.227225175965201
 21
2.008340479560907
 31
0.0
  0
LINE
  5
21E
  8
VISIBLE
 10
7.227225175965201
 20
2.133340479560907
 30
0.0
 11
7.102225175965201
 21
2.133340479560907
 31
0.0
  0
LINE
  5
21F
  8
VISIBLE
 10
7.227225175965201
 20
2.258340479560907
 30
0.0
 11
7.102225175965201
 21
2.258340479560907
 31
0.0
  0
LINE
  5
220
  8
VISIBLE
 10
7.227225175965201
 20
2.383340479560907
 30
0.0
 11
7.227225175965201
 21
2.258340479560907
 31
0.0
  0
LINE
  5
221
  8
VISIBLE
 10
7.227225175965201
 20
2.383340479560907
 30
0.0
 11
7.102225175965201
 21
2.383340479560907
 31
0.0
  0
LINE
  5
222
  8
VISIBLE
 10
7.227225175965201
 20
2.508340479560907
 30
0.0
 11
7.102225175965201
 21
2.508340479560907
 31
0.0
  0
LINE
  5
223
  8
VISIBLE
 10
7.227225175965201
 20
2.633340479560907
 30
0.0
 11
7.227225175965201
 21
2.508340479560907
 31
0.0
  0
LINE
  5
224
  8
VISIBLE
 10
7.227225175965201
 20
2.633340479560907
 30
0.0
 11
7.102225175965201
 21
2.633340479560907
 31
0.0
  0
LINE
  5
225
  8
VISIBLE
 10
7.227225175965201
 20
2.758340479560907
 30
0.0
 11
7.102225175965201
 21
2.758340479560907
 31
0.0
  0
LINE
  5
226
  8
VISIBLE
 10
7.227225175965201
 20
2.990840479560907
 30
0.0
 11
7.227225175965201
 21
2.758340479560907
 31
0.0
  0
LINE
  5
227
  8
VISIBLE
 10
7.227225175965201
 20
2.990840479560907
 30
0.0
 11
7.352225175965201
 21
2.990840479560907
 31
0.0
  0
CIRCLE
  5
228
  8
VISIBLE
 10
-7.677225175965201
 20
1.495840479560907
 30
-0.0000000000000018
 40
0.05
210
-2.449293598294706E-16
220
6.123233995736766E-17
230
-1.0
  0
CIRCLE
  5
229
  8
VISIBLE
 10
-7.677225175965201
 20
2.605840479560907
 30
-0.0000000000000017
 40
0.05
210
-2.449293598294706E-16
220
6.123233995736766E-17
230
-1.0
  0
ARC
  5
22A
  8
VISIBLE
 10
-7.677225175965201
 20
2.245840479560907
 30
-0.0000000000000017
 40
0.25
 50
298.2569481283289
 51
241.7430518716711
210
-2.449293598294706E-16
220
6.123233995736766E-17
230
-1.0
  0
ARC
  5
22B
  8
VISIBLE
 10
-7.677225175965201
 20
2.005840479560907
 30
-0.0000000000000018
 40
0.12
 50
170.5067996753531
 51
9.493200324646661
210
-2.449293598294706E-16
220
6.123233995736766E-17
230
-1.0
  0
LINE
  5
22C
  8
VISIBLE
 10
7.227225175965201
 20
0.925840479560907
 30
0.0
 11
9.227225175965202
 21
0.925840479560907
 31
0.0
  0
LINE
  5
22D
  8
VISIBLE
 10
8.477225175965202
 20
3.115840479560907
 30
0.0
 11
8.602225175965202
 21
3.115840479560907
 31
0.0
  0
LINE
  5
22E
  8
VISIBLE
 10
8.727225175965202
 20
3.115840479560907
 30
0.0
 11
8.852225175965202
 21
3.115840479560907
 31
0.0
  0
LINE
  5
22F
  8
VISIBLE
 10
7.352225175965201
 20
3.115840479560907
 30
0.0
 11
7.477225175965201
 21
3.115840479560907
 31
0.0
  0
LINE
  5
230
  8
VISIBLE
 10
7.602225175965201
 20
3.115840479560907
 30
0.0
 11
7.727225175965201
 21
3.115840479560907
 31
0.0
  0
LINE
  5
231
  8
VISIBLE
 10
7.852225175965201
 20
3.115840479560907
 30
0.0
 11
7.977225175965201
 21
3.115840479560907
 31
0.0
  0
LINE
  5
232
  8
VISIBLE
 10
8.227225175965202
 20
3.115840479560907
 30
0.0
 11
8.352225175965202
 21
3.115840479560907
 31
0.0
  0
LINE
  5
233
  8
VISIBLE
 10
9.352225175965202
 20
1.383340479560907
 30
0.0
 11
9.352225175965202
 21
1.258340479560907
 31
0.0
  0
LINE
  5
234
  8
VISIBLE
 10
9.352225175965202
 20
1.133340479560907
 30
0.0
 11
9.352225175965202
 21
1.008340479560907
 31
0.0
  0
LINE
  5
235
  8
VISIBLE
 10
9.352225175965202
 20
2.758340479560907
 30
0.0
 11
9.352225175965202
 21
2.633340479560907
 31
0.0
  0
LINE
  5
236
  8
VISIBLE
 10
9.352225175965202
 20
2.508340479560907
 30
0.0
 11
9.352225175965202
 21
2.383340479560907
 31
0.0
  0
LINE
  5
237
  8
VISIBLE
 10
9.352225175965202
 20
2.258340479560907
 30
0.0
 11
9.352225175965202
 21
2.133340479560907
 31
0.0
  0
LINE
  5
238
  8
VISIBLE
 10
9.352225175965202
 20
2.008340479560907
 30
0.0
 11
9.352225175965202
 21
1.758340479560907
 31
0.0
  0
LINE
  5
239
  8
VISIBLE
 10
9.352225175965202
 20
1.633340479560907
 30
0.0
 11
9.352225175965202
 21
1.508340479560907
 31
0.0
  0
LINE
  5
23A
  8
VISIBLE
 10
9.227225175965202
 20
2.383340479560907
 30
0.0
 11
9.352225175965202
 21
2.383340479560907
 31
0.0
  0
LINE
  5
23B
  8
VISIBLE
 10
7.102225175965201
 20
1.133340479560907
 30
0.0
 11
7.102225175965201
 21
1.008340479560907
 31
0.0
  0
LINE
  5
23C
  8
VISIBLE
 10
7.102225175965201
 20
1.383340479560907
 30
0.0
 11
7.102225175965201
 21
1.258340479560907
 31
0.0
  0
LINE
  5
23D
  8
VISIBLE
 10
7.102225175965201
 20
1.633340479560907
 30
0.0
 11
7.102225175965201
 21
1.508340479560907
 31
0.0
  0
LINE
  5
23E
  8
VISIBLE
 10
7.102225175965201
 20
2.008340479560907
 30
0.0
 11
7.102225175965201
 21
1.758340479560907
 31
0.0
  0
LINE
  5
23F
  8
VISIBLE
 10
7.102225175965201
 20
2.258340479560907
 30
0.0
 11
7.102225175965201
 21
2.133340479560907
 31
0.0
  0
LINE
  5
240
  8
VISIBLE
 10
7.102225175965201
 20
2.508340479560907
 30
0.0
 11
7.102225175965201
 21
2.383340479560907
 31
0.0
  0
LINE
  5
241
  8
VISIBLE
 10
7.102225175965201
 20
2.758340479560907
 30
0.0
 11
7.102225175965201
 21
2.633340479560907
 31
0.0
  0
LINE
  5
244
  8
VISIBLE
 10
0.3090631276696953
 20
1.103669355528267
 30
0.0
 11
0.3090631276696953
 21
1.186169355528267
 31
0.0
  0
LINE
  5
245
  8
VISIBLE
 10
0.3090631276696953
 20
1.186169355528267
 30
0.0
 11
0.1840631276696956
 21
1.186169355528267
 31
0.0
  0
LINE
  5
246
  8
VISIBLE
 10
0.3090631276696953
 20
1.311169355528267
 30
0.0
 11
0.1840631276696956
 21
1.311169355528267
 31
0.0
  0
LINE
  5
247
  8
VISIBLE
 10
0.3090631276696953
 20
1.311169355528267
 30
0.0
 11
0.3090631276696953
 21
1.436169355528267
 31
0.0
  0
LINE
  5
248
  8
VISIBLE
 10
0.3090631276696953
 20
1.436169355528267
 30
0.0
 11
0.1840631276696956
 21
1.436169355528267
 31
0.0
  0
LINE
  5
249
  8
VISIBLE
 10
0.3090631276696953
 20
1.561169355528267
 30
0.0
 11
0.1840631276696956
 21
1.561169355528267
 31
0.0
  0
LINE
  5
24A
  8
VISIBLE
 10
0.3090631276696953
 20
1.561169355528267
 30
0.0
 11
0.3090631276696953
 21
1.686169355528267
 31
0.0
  0
LINE
  5
24B
  8
VISIBLE
 10
0.3090631276696953
 20
1.686169355528267
 30
0.0
 11
0.1840631276696956
 21
1.686169355528267
 31
0.0
  0
LINE
  5
24C
  8
VISIBLE
 10
0.3090631276696953
 20
1.811169355528267
 30
0.0
 11
0.1840631276696956
 21
1.811169355528267
 31
0.0
  0
LINE
  5
24D
  8
VISIBLE
 10
0.3090631276696953
 20
1.811169355528267
 30
0.0
 11
0.3090631276696953
 21
1.936169355528267
 31
0.0
  0
LINE
  5
24E
  8
VISIBLE
 10
0.3090631276696953
 20
1.936169355528267
 30
0.0
 11
0.1840631276696956
 21
1.936169355528267
 31
0.0
  0
LINE
  5
24F
  8
VISIBLE
 10
0.3090631276696953
 20
2.186169355528267
 30
0.0
 11
0.1840631276696956
 21
2.186169355528267
 31
0.0
  0
LINE
  5
250
  8
VISIBLE
 10
0.3090631276696953
 20
2.186169355528267
 30
0.0
 11
0.3090631276696953
 21
2.311169355528267
 31
0.0
  0
LINE
  5
251
  8
VISIBLE
 10
0.3090631276696953
 20
2.311169355528267
 30
0.0
 11
0.1840631276696956
 21
2.311169355528267
 31
0.0
  0
LINE
  5
252
  8
VISIBLE
 10
0.3090631276696953
 20
2.436169355528267
 30
0.0
 11
0.1840631276696956
 21
2.436169355528267
 31
0.0
  0
LINE
  5
253
  8
VISIBLE
 10
0.3090631276696953
 20
2.436169355528267
 30
0.0
 11
0.3090631276696953
 21
2.561169355528267
 31
0.0
  0
LINE
  5
254
  8
VISIBLE
 10
0.3090631276696953
 20
2.686169355528267
 30
0.0
 11
0.1840631276696956
 21
2.686169355528267
 31
0.0
  0
LINE
  5
255
  8
VISIBLE
 10
0.3090631276696953
 20
2.686169355528267
 30
0.0
 11
0.3090631276696953
 21
2.811169355528267
 31
0.0
  0
LINE
  5
256
  8
VISIBLE
 10
0.3090631276696953
 20
2.811169355528267
 30
0.0
 11
0.1840631276696956
 21
2.811169355528267
 31
0.0
  0
LINE
  5
257
  8
VISIBLE
 10
0.3090631276696953
 20
2.936169355528267
 30
0.0
 11
0.1840631276696956
 21
2.936169355528267
 31
0.0
  0
LINE
  5
258
  8
VISIBLE
 10
0.3090631276696953
 20
2.936169355528267
 30
0.0
 11
0.3090631276696953
 21
3.168669355528267
 31
0.0
  0
LINE
  5
259
  8
VISIBLE
 10
0.6840631276696953
 20
3.168669355528267
 30
0.0
 11
0.3090631276696953
 21
3.168669355528267
 31
0.0
  0
LINE
  5
25A
  8
VISIBLE
 10
0.6840631276696953
 20
3.168669355528267
 30
0.0
 11
0.6840631276696953
 21
3.293669355528267
 31
0.0
  0
LINE
  5
25B
  8
VISIBLE
 10
0.8090631276696953
 20
3.168669355528267
 30
0.0
 11
0.8090631276696953
 21
3.293669355528267
 31
0.0
  0
LINE
  5
25C
  8
VISIBLE
 10
0.9340631276696953
 20
3.168669355528267
 30
0.0
 11
0.8090631276696953
 21
3.168669355528267
 31
0.0
  0
LINE
  5
25D
  8
VISIBLE
 10
0.9340631276696953
 20
3.168669355528267
 30
0.0
 11
0.9340631276696953
 21
3.293669355528267
 31
0.0
  0
LINE
  5
25E
  8
VISIBLE
 10
1.059063127669695
 20
3.168669355528267
 30
0.0
 11
1.059063127669695
 21
3.293669355528267
 31
0.0
  0
LINE
  5
25F
  8
VISIBLE
 10
1.184063127669695
 20
3.168669355528267
 30
0.0
 11
1.059063127669695
 21
3.168669355528267
 31
0.0
  0
LINE
  5
260
  8
VISIBLE
 10
1.184063127669695
 20
3.168669355528267
 30
0.0
 11
1.184063127669695
 21
3.293669355528267
 31
0.0
  0
LINE
  5
261
  8
VISIBLE
 10
1.309063127669695
 20
3.168669355528267
 30
0.0
 11
1.309063127669695
 21
3.293669355528267
 31
0.0
  0
LINE
  5
262
  8
VISIBLE
 10
1.559063127669695
 20
3.168669355528267
 30
0.0
 11
1.309063127669695
 21
3.168669355528267
 31
0.0
  0
LINE
  5
263
  8
VISIBLE
 10
1.559063127669695
 20
3.168669355528267
 30
0.0
 11
1.559063127669695
 21
3.293669355528267
 31
0.0
  0
LINE
  5
264
  8
VISIBLE
 10
1.684063127669695
 20
3.168669355528267
 30
0.0
 11
1.684063127669695
 21
3.293669355528267
 31
0.0
  0
LINE
  5
265
  8
VISIBLE
 10
1.809063127669695
 20
3.168669355528267
 30
0.0
 11
1.684063127669695
 21
3.168669355528267
 31
0.0
  0
LINE
  5
266
  8
VISIBLE
 10
1.809063127669695
 20
3.168669355528267
 30
0.0
 11
1.809063127669695
 21
3.293669355528267
 31
0.0
  0
LINE
  5
267
  8
VISIBLE
 10
1.934063127669695
 20
3.168669355528267
 30
0.0
 11
1.934063127669695
 21
3.293669355528267
 31
0.0
  0
LINE
  5
268
  8
VISIBLE
 10
2.059063127669695
 20
3.168669355528267
 30
0.0
 11
1.934063127669695
 21
3.168669355528267
 31
0.0
  0
LINE
  5
269
  8
VISIBLE
 10
2.059063127669695
 20
3.168669355528267
 30
0.0
 11
2.059063127669695
 21
3.293669355528267
 31
0.0
  0
LINE
  5
26A
  8
VISIBLE
 10
2.184063127669695
 20
3.168669355528267
 30
0.0
 11
2.184063127669695
 21
3.293669355528267
 31
0.0
  0
LINE
  5
26B
  8
VISIBLE
 10
2.309063127669695
 20
3.168669355528267
 30
0.0
 11
2.184063127669695
 21
3.168669355528267
 31
0.0
  0
LINE
  5
26C
  8
VISIBLE
 10
2.309063127669695
 20
2.936169355528267
 30
0.0
 11
2.309063127669695
 21
3.168669355528267
 31
0.0
  0
LINE
  5
26D
  8
VISIBLE
 10
2.309063127669695
 20
2.936169355528267
 30
0.0
 11
2.434063127669695
 21
2.936169355528267
 31
0.0
  0
LINE
  5
26E
  8
VISIBLE
 10
2.309063127669695
 20
2.811169355528267
 30
0.0
 11
2.434063127669695
 21
2.811169355528267
 31
0.0
  0
LINE
  5
26F
  8
VISIBLE
 10
2.309063127669695
 20
2.686169355528267
 30
0.0
 11
2.309063127669695
 21
2.811169355528267
 31
0.0
  0
LINE
  5
270
  8
VISIBLE
 10
2.309063127669695
 20
2.686169355528267
 30
0.0
 11
2.434063127669695
 21
2.686169355528267
 31
0.0
  0
LINE
  5
271
  8
VISIBLE
 10
2.309063127669695
 20
2.561169355528267
 30
0.0
 11
2.434063127669695
 21
2.561169355528267
 31
0.0
  0
LINE
  5
272
  8
VISIBLE
 10
2.309063127669695
 20
2.436169355528267
 30
0.0
 11
2.309063127669695
 21
2.561169355528267
 31
0.0
  0
LINE
  5
273
  8
VISIBLE
 10
2.309063127669695
 20
2.436169355528267
 30
0.0
 11
2.434063127669695
 21
2.436169355528267
 31
0.0
  0
LINE
  5
274
  8
VISIBLE
 10
2.309063127669695
 20
2.311169355528267
 30
0.0
 11
2.434063127669695
 21
2.311169355528267
 31
0.0
  0
LINE
  5
275
  8
VISIBLE
 10
2.309063127669695
 20
2.186169355528267
 30
0.0
 11
2.309063127669695
 21
2.311169355528267
 31
0.0
  0
LINE
  5
276
  8
VISIBLE
 10
2.309063127669695
 20
2.186169355528267
 30
0.0
 11
2.434063127669695
 21
2.186169355528267
 31
0.0
  0
LINE
  5
277
  8
VISIBLE
 10
2.309063127669695
 20
1.936169355528267
 30
0.0
 11
2.434063127669695
 21
1.936169355528267
 31
0.0
  0
LINE
  5
278
  8
VISIBLE
 10
2.309063127669695
 20
1.811169355528267
 30
0.0
 11
2.309063127669695
 21
1.936169355528267
 31
0.0
  0
LINE
  5
279
  8
VISIBLE
 10
2.309063127669695
 20
1.811169355528267
 30
0.0
 11
2.434063127669695
 21
1.811169355528267
 31
0.0
  0
LINE
  5
27A
  8
VISIBLE
 10
2.309063127669695
 20
1.686169355528267
 30
0.0
 11
2.434063127669695
 21
1.686169355528267
 31
0.0
  0
LINE
  5
27B
  8
VISIBLE
 10
2.309063127669695
 20
1.561169355528267
 30
0.0
 11
2.309063127669695
 21
1.686169355528267
 31
0.0
  0
LINE
  5
27C
  8
VISIBLE
 10
2.309063127669695
 20
1.561169355528267
 30
0.0
 11
2.434063127669695
 21
1.561169355528267
 31
0.0
  0
LINE
  5
27D
  8
VISIBLE
 10
2.309063127669695
 20
1.436169355528267
 30
0.0
 11
2.434063127669695
 21
1.436169355528267
 31
0.0
  0
LINE
  5
27E
  8
VISIBLE
 10
2.309063127669695
 20
1.311169355528267
 30
0.0
 11
2.309063127669695
 21
1.436169355528267
 31
0.0
  0
LINE
  5
27F
  8
VISIBLE
 10
2.309063127669695
 20
1.311169355528267
 30
0.0
 11
2.434063127669695
 21
1.311169355528267
 31
0.0
  0
LINE
  5
280
  8
VISIBLE
 10
2.309063127669695
 20
1.186169355528267
 30
0.0
 11
2.434063127669695
 21
1.186169355528267
 31
0.0
  0
LINE
  5
281
  8
VISIBLE
 10
2.309063127669695
 20
1.103669355528267
 30
0.0
 11
2.309063127669695
 21
1.186169355528267
 31
0.0
  0
CIRCLE
  5
282
  8
VISIBLE
 10
1.859063127669695
 20
1.673669355528267
 30
0.0
 40
0.05
  0
CIRCLE
  5
283
  8
VISIBLE
 10
1.859063127669695
 20
2.783669355528267
 30
0.0
 40
0.05
  0
ARC
  5
284
  8
VISIBLE
 10
1.859063127669695
 20
2.423669355528267
 30
0.0
 40
0.25
 50
298.256948128329
 51
241.7430518716714
  0
ARC
  5
285
  8
VISIBLE
 10
1.859063127669695
 20
2.183669355528267
 30
0.0
 40
0.12
 50
170.5067996753532
 51
9.493200324646798
  0
LINE
  5
286
  8
VISIBLE
 10
2.309063127669695
 20
1.103669355528267
 30
0.0
 11
0.3090631276696953
 21
1.103669355528267
 31
0.0
  0
LINE
  5
287
  8
VISIBLE
 10
1.059063127669695
 20
3.293669355528267
 30
0.0
 11
0.9340631276696953
 21
3.293669355528267
 31
0.0
  0
LINE
  5
288
  8
VISIBLE
 10
0.8090631276696953
 20
3.293669355528267
 30
0.0
 11
0.6840631276696953
 21
3.293669355528267
 31
0.0
  0
LINE
  5
289
  8
VISIBLE
 10
2.184063127669695
 20
3.293669355528267
 30
0.0
 11
2.059063127669695
 21
3.293669355528267
 31
0.0
  0
LINE
  5
28A
  8
VISIBLE
 10
1.934063127669695
 20
3.293669355528267
 30
0.0
 11
1.809063127669695
 21
3.293669355528267
 31
0.0
  0
LINE
  5
28B
  8
VISIBLE
 10
1.684063127669695
 20
3.293669355528267
 30
0.0
 11
1.559063127669695
 21
3.293669355528267
 31
0.0
  0
LINE
  5
28C
  8
VISIBLE
 10
1.309063127669695
 20
3.293669355528267
 30
0.0
 11
1.184063127669695
 21
3.293669355528267
 31
0.0
  0
LINE
  5
28D
  8
VISIBLE
 10
0.1840631276696956
 20
1.561169355528267
 30
0.0
 11
0.1840631276696956
 21
1.436169355528267
 31
0.0
  0
LINE
  5
28E
  8
VISIBLE
 10
0.1840631276696956
 20
1.311169355528267
 30
0.0
 11
0.1840631276696956
 21
1.186169355528267
 31
0.0
  0
LINE
  5
28F
  8
VISIBLE
 10
0.1840631276696956
 20
2.936169355528267
 30
0.0
 11
0.1840631276696956
 21
2.811169355528267
 31
0.0
  0
LINE
  5
290
  8
VISIBLE
 10
0.1840631276696956
 20
2.686169355528267
 30
0.0
 11
0.1840631276696956
 21
2.561169355528267
 31
0.0
  0
LINE
  5
291
  8
VISIBLE
 10
0.1840631276696956
 20
2.436169355528267
 30
0.0
 11
0.1840631276696956
 21
2.311169355528267
 31
0.0
  0
LINE
  5
292
  8
VISIBLE
 10
0.1840631276696956
 20
2.186169355528267
 30
0.0
 11
0.1840631276696956
 21
1.936169355528267
 31
0.0
  0
LINE
  5
293
  8
VISIBLE
 10
0.1840631276696956
 20
1.811169355528267
 30
0.0
 11
0.1840631276696956
 21
1.686169355528267
 31
0.0
  0
LINE
  5
294
  8
VISIBLE
 10
0.3090631276696953
 20
2.561169355528267
 30
0.0
 11
0.1840631276696956
 21
2.561169355528267
 31
0.0
  0
LINE
  5
295
  8
VISIBLE
 10
2.434063127669695
 20
1.811169355528267
 30
0.0
 11
2.434063127669695
 21
1.686169355528267
 31
0.0
  0
LINE
  5
296
  8
VISIBLE
 10
2.434063127669695
 20
1.561169355528267
 30
0.0
 11
2.434063127669695
 21
1.436169355528267
 31
0.0
  0
LINE
  5
297
  8
VISIBLE
 10
2.434063127669695
 20
1.311169355528267
 30
0.0
 11
2.434063127669695
 21
1.186169355528267
 31
0.0
  0
LINE
  5
298
  8
VISIBLE
 10
2.434063127669695
 20
2.936169355528267
 30
0.0
 11
2.434063127669695
 21
2.811169355528267
 31
0.0
  0
LINE
  5
299
  8
VISIBLE
 10
2.434063127669695
 20
2.686169355528267
 30
0.0
 11
2.434063127669695
 21
2.561169355528267
 31
0.0
  0
LINE
  5
29A
  8
VISIBLE
 10
2.434063127669695
 20
2.436169355528267
 30
0.0
 11
2.434063127669695
 21
2.311169355528267
 31
0.0
  0
LINE
  5
29B
  8
VISIBLE
 10
2.434063127669695
 20
2.186169355528267
 30
0.0
 11
2.434063127669695
 21
1.936169355528267
 31
0.0
  0
CIRCLE
  5
29E
  8
VISIBLE
 10
5.004190016427735
 20
2.030424363745827
 30
0.0
 40
0.05
  0
CIRCLE
  5
29F
  8
VISIBLE
 10
3.894190016427735
 20
2.030424363745827
 30
0.0
 40
0.05
  0
ARC
  5
2A0
  8
VISIBLE
 10
4.404190016427735
 20
2.030424363745827
 30
0.0
 40
0.12
 50
80.50679967535362
 51
279.4932003246464
  0
ARC
  5
2A1
  8
VISIBLE
 10
4.644190016427735
 20
2.030424363745827
 30
0.0
 40
0.25
 50
208.2569481283285
 51
151.7430518716713
  0
LINE
  5
2A2
  8
VISIBLE
 10
5.894190016427735
 20
1.405424363745827
 30
0.0
 11
5.894190016427735
 21
1.530424363745827
 31
0.0
  0
LINE
  5
2A3
  8
VISIBLE
 10
6.019190016427735
 20
1.405424363745827
 30
0.0
 11
5.894190016427735
 21
1.405424363745827
 31
0.0
  0
LINE
  5
2A4
  8
VISIBLE
 10
6.019190016427735
 20
1.280424363745827
 30
0.0
 11
5.894190016427735
 21
1.280424363745827
 31
0.0
  0
LINE
  5
2A5
  8
VISIBLE
 10
5.894190016427735
 20
1.155424363745827
 30
0.0
 11
5.894190016427735
 21
1.280424363745827
 31
0.0
  0
LINE
  5
2A6
  8
VISIBLE
 10
6.019190016427735
 20
1.155424363745827
 30
0.0
 11
5.894190016427735
 21
1.155424363745827
 31
0.0
  0
LINE
  5
2A7
  8
VISIBLE
 10
5.894190016427735
 20
1.030424363745827
 30
0.0
 11
6.019190016427735
 21
1.030424363745827
 31
0.0
  0
LINE
  5
2A8
  8
VISIBLE
 10
5.894190016427735
 20
0.9054243637458268
 30
0.0
 11
5.894190016427735
 21
1.030424363745827
 31
0.0
  0
LINE
  5
2A9
  8
VISIBLE
 10
5.769190016427735
 20
0.9054243637458268
 30
0.0
 11
5.769190016427735
 21
1.030424363745827
 31
0.0
  0
LINE
  5
2AA
  8
VISIBLE
 10
5.644190016427735
 20
1.030424363745827
 30
0.0
 11
5.769190016427735
 21
1.030424363745827
 31
0.0
  0
LINE
  5
2AB
  8
VISIBLE
 10
5.644190016427735
 20
0.9054243637458268
 30
0.0
 11
5.644190016427735
 21
1.030424363745827
 31
0.0
  0
LINE
  5
2AC
  8
VISIBLE
 10
5.519190016427735
 20
0.9054243637458268
 30
0.0
 11
5.519190016427735
 21
1.030424363745827
 31
0.0
  0
LINE
  5
2AD
  8
VISIBLE
 10
5.394190016427735
 20
1.030424363745827
 30
0.0
 11
5.519190016427735
 21
1.030424363745827
 31
0.0
  0
LINE
  5
2AE
  8
VISIBLE
 10
5.394190016427735
 20
0.9054243637458268
 30
0.0
 11
5.394190016427735
 21
1.030424363745827
 31
0.0
  0
LINE
  5
2AF
  8
VISIBLE
 10
5.269190016427735
 20
0.9054243637458268
 30
0.0
 11
5.269190016427735
 21
1.030424363745827
 31
0.0
  0
LINE
  5
2B0
  8
VISIBLE
 10
5.144190016427735
 20
1.030424363745827
 30
0.0
 11
5.269190016427735
 21
1.030424363745827
 31
0.0
  0
LINE
  5
2B1
  8
VISIBLE
 10
5.144190016427735
 20
0.9054243637458268
 30
0.0
 11
5.144190016427735
 21
1.030424363745827
 31
0.0
  0
LINE
  5
2B2
  8
VISIBLE
 10
5.019190016427735
 20
0.9054243637458268
 30
0.0
 11
5.019190016427735
 21
1.030424363745827
 31
0.0
  0
LINE
  5
2B3
  8
VISIBLE
 10
4.894190016427735
 20
1.030424363745827
 30
0.0
 11
5.019190016427735
 21
1.030424363745827
 31
0.0
  0
LINE
  5
2B4
  8
VISIBLE
 10
4.894190016427735
 20
0.9054243637458268
 30
0.0
 11
4.894190016427735
 21
1.030424363745827
 31
0.0
  0
LINE
  5
2B5
  8
VISIBLE
 10
4.394190016427735
 20
0.9054243637458268
 30
0.0
 11
4.394190016427735
 21
1.030424363745827
 31
0.0
  0
LINE
  5
2B6
  8
VISIBLE
 10
4.269190016427735
 20
1.030424363745827
 30
0.0
 11
4.394190016427735
 21
1.030424363745827
 31
0.0
  0
LINE
  5
2B7
  8
VISIBLE
 10
4.269190016427735
 20
0.9054243637458268
 30
0.0
 11
4.269190016427735
 21
1.030424363745827
 31
0.0
  0
LINE
  5
2B8
  8
VISIBLE
 10
4.144190016427735
 20
0.9054243637458268
 30
0.0
 11
4.144190016427735
 21
1.030424363745827
 31
0.0
  0
LINE
  5
2B9
  8
VISIBLE
 10
4.019190016427735
 20
1.030424363745827
 30
0.0
 11
4.144190016427735
 21
1.030424363745827
 31
0.0
  0
LINE
  5
2BA
  8
VISIBLE
 10
4.019190016427735
 20
0.9054243637458268
 30
0.0
 11
4.019190016427735
 21
1.030424363745827
 31
0.0
  0
LINE
  5
2BB
  8
VISIBLE
 10
3.894190016427735
 20
0.9054243637458268
 30
0.0
 11
3.894190016427735
 21
1.030424363745827
 31
0.0
  0
LINE
  5
2BC
  8
VISIBLE
 10
3.769190016427735
 20
1.030424363745827
 30
0.0
 11
3.894190016427735
 21
1.030424363745827
 31
0.0
  0
LINE
  5
2BD
  8
VISIBLE
 10
3.769190016427735
 20
0.9054243637458268
 30
0.0
 11
3.769190016427735
 21
1.030424363745827
 31
0.0
  0
LINE
  5
2BE
  8
VISIBLE
 10
3.644190016427735
 20
0.9054243637458268
 30
0.0
 11
3.644190016427735
 21
1.030424363745827
 31
0.0
  0
LINE
  5
2BF
  8
VISIBLE
 10
3.519190016427735
 20
1.030424363745827
 30
0.0
 11
3.644190016427735
 21
1.030424363745827
 31
0.0
  0
LINE
  5
2C0
  8
VISIBLE
 10
3.519190016427735
 20
0.9054243637458268
 30
0.0
 11
3.519190016427735
 21
1.030424363745827
 31
0.0
  0
LINE
  5
2C1
  8
VISIBLE
 10
3.394190016427735
 20
0.9054243637458268
 30
0.0
 11
3.519190016427735
 21
0.9054243637458268
 31
0.0
  0
LINE
  5
2C2
  8
VISIBLE
 10
3.394190016427735
 20
0.9054243637458268
 30
0.0
 11
3.394190016427735
 21
1.030424363745827
 31
0.0
  0
LINE
  5
2C3
  8
VISIBLE
 10
3.269190016427735
 20
1.030424363745827
 30
0.0
 11
3.394190016427735
 21
1.030424363745827
 31
0.0
  0
LINE
  5
2C4
  8
VISIBLE
 10
3.269190016427735
 20
1.155424363745827
 30
0.0
 11
3.269190016427735
 21
1.030424363745827
 31
0.0
  0
LINE
  5
2C5
  8
VISIBLE
 10
3.269190016427735
 20
1.155424363745827
 30
0.0
 11
3.394190016427735
 21
1.155424363745827
 31
0.0
  0
LINE
  5
2C6
  8
VISIBLE
 10
3.394190016427735
 20
1.155424363745827
 30
0.0
 11
3.394190016427735
 21
1.280424363745827
 31
0.0
  0
LINE
  5
2C7
  8
VISIBLE
 10
3.269190016427735
 20
1.280424363745827
 30
0.0
 11
3.394190016427735
 21
1.280424363745827
 31
0.0
  0
LINE
  5
2C8
  8
VISIBLE
 10
3.269190016427735
 20
1.405424363745827
 30
0.0
 11
3.269190016427735
 21
1.280424363745827
 31
0.0
  0
LINE
  5
2C9
  8
VISIBLE
 10
3.269190016427735
 20
1.405424363745827
 30
0.0
 11
3.394190016427735
 21
1.405424363745827
 31
0.0
  0
LINE
  5
2CA
  8
VISIBLE
 10
3.394190016427735
 20
1.405424363745827
 30
0.0
 11
3.394190016427735
 21
1.530424363745827
 31
0.0
  0
LINE
  5
2CB
  8
VISIBLE
 10
3.269190016427735
 20
1.530424363745827
 30
0.0
 11
3.394190016427735
 21
1.530424363745827
 31
0.0
  0
LINE
  5
2CC
  8
VISIBLE
 10
3.269190016427735
 20
1.655424363745827
 30
0.0
 11
3.269190016427735
 21
1.530424363745827
 31
0.0
  0
LINE
  5
2CD
  8
VISIBLE
 10
3.269190016427735
 20
1.655424363745827
 30
0.0
 11
3.394190016427735
 21
1.655424363745827
 31
0.0
  0
LINE
  5
2CE
  8
VISIBLE
 10
3.394190016427735
 20
1.655424363745827
 30
0.0
 11
3.394190016427735
 21
1.780424363745827
 31
0.0
  0
LINE
  5
2CF
  8
VISIBLE
 10
3.269190016427735
 20
1.780424363745827
 30
0.0
 11
3.394190016427735
 21
1.780424363745827
 31
0.0
  0
LINE
  5
2D0
  8
VISIBLE
 10
3.269190016427735
 20
2.030424363745827
 30
0.0
 11
3.269190016427735
 21
1.780424363745827
 31
0.0
  0
LINE
  5
2D1
  8
VISIBLE
 10
3.269190016427735
 20
2.030424363745827
 30
0.0
 11
3.394190016427735
 21
2.030424363745827
 31
0.0
  0
LINE
  5
2D2
  8
VISIBLE
 10
3.394190016427735
 20
2.030424363745827
 30
0.0
 11
3.394190016427735
 21
2.155424363745827
 31
0.0
  0
LINE
  5
2D3
  8
VISIBLE
 10
3.269190016427735
 20
2.155424363745827
 30
0.0
 11
3.394190016427735
 21
2.155424363745827
 31
0.0
  0
LINE
  5
2D4
  8
VISIBLE
 10
3.269190016427735
 20
2.280424363745827
 30
0.0
 11
3.269190016427735
 21
2.155424363745827
 31
0.0
  0
LINE
  5
2D5
  8
VISIBLE
 10
3.269190016427735
 20
2.280424363745827
 30
0.0
 11
3.394190016427735
 21
2.280424363745827
 31
0.0
  0
LINE
  5
2D6
  8
VISIBLE
 10
3.394190016427735
 20
2.280424363745827
 30
0.0
 11
3.394190016427735
 21
2.405424363745827
 31
0.0
  0
LINE
  5
2D7
  8
VISIBLE
 10
3.269190016427735
 20
2.405424363745827
 30
0.0
 11
3.394190016427735
 21
2.405424363745827
 31
0.0
  0
LINE
  5
2D8
  8
VISIBLE
 10
3.269190016427735
 20
2.530424363745827
 30
0.0
 11
3.269190016427735
 21
2.405424363745827
 31
0.0
  0
LINE
  5
2D9
  8
VISIBLE
 10
3.269190016427735
 20
2.530424363745827
 30
0.0
 11
3.394190016427735
 21
2.530424363745827
 31
0.0
  0
LINE
  5
2DA
  8
VISIBLE
 10
3.394190016427735
 20
2.530424363745827
 30
0.0
 11
3.394190016427735
 21
2.655424363745827
 31
0.0
  0
LINE
  5
2DB
  8
VISIBLE
 10
3.269190016427735
 20
2.655424363745827
 30
0.0
 11
3.394190016427735
 21
2.655424363745827
 31
0.0
  0
LINE
  5
2DC
  8
VISIBLE
 10
3.269190016427735
 20
3.030424363745827
 30
0.0
 11
3.269190016427735
 21
2.655424363745827
 31
0.0
  0
LINE
  5
2DD
  8
VISIBLE
 10
3.269190016427735
 20
3.030424363745827
 30
0.0
 11
3.394190016427735
 21
3.030424363745827
 31
0.0
  0
LINE
  5
2DE
  8
VISIBLE
 10
3.394190016427735
 20
3.155424363745827
 30
0.0
 11
3.394190016427735
 21
3.030424363745827
 31
0.0
  0
LINE
  5
2DF
  8
VISIBLE
 10
3.394190016427735
 20
3.155424363745827
 30
0.0
 11
3.519190016427735
 21
3.155424363745827
 31
0.0
  0
LINE
  5
2E0
  8
VISIBLE
 10
3.519190016427735
 20
3.155424363745827
 30
0.0
 11
3.519190016427735
 21
3.030424363745827
 31
0.0
  0
LINE
  5
2E1
  8
VISIBLE
 10
3.519190016427735
 20
3.030424363745827
 30
0.0
 11
3.644190016427735
 21
3.030424363745827
 31
0.0
  0
LINE
  5
2E2
  8
VISIBLE
 10
3.644190016427735
 20
3.155424363745827
 30
0.0
 11
3.644190016427735
 21
3.030424363745827
 31
0.0
  0
LINE
  5
2E3
  8
VISIBLE
 10
3.644190016427735
 20
3.155424363745827
 30
0.0
 11
3.769190016427735
 21
3.155424363745827
 31
0.0
  0
LINE
  5
2E4
  8
VISIBLE
 10
3.769190016427735
 20
3.155424363745827
 30
0.0
 11
3.769190016427735
 21
3.030424363745827
 31
0.0
  0
LINE
  5
2E5
  8
VISIBLE
 10
3.769190016427735
 20
3.030424363745827
 30
0.0
 11
3.894190016427735
 21
3.030424363745827
 31
0.0
  0
LINE
  5
2E6
  8
VISIBLE
 10
3.894190016427735
 20
3.155424363745827
 30
0.0
 11
3.894190016427735
 21
3.030424363745827
 31
0.0
  0
LINE
  5
2E7
  8
VISIBLE
 10
3.894190016427735
 20
3.155424363745827
 30
0.0
 11
4.019190016427735
 21
3.155424363745827
 31
0.0
  0
LINE
  5
2E8
  8
VISIBLE
 10
4.019190016427735
 20
3.155424363745827
 30
0.0
 11
4.019190016427735
 21
3.030424363745827
 31
0.0
  0
LINE
  5
2E9
  8
VISIBLE
 10
4.019190016427735
 20
3.030424363745827
 30
0.0
 11
4.144190016427735
 21
3.030424363745827
 31
0.0
  0
LINE
  5
2EA
  8
VISIBLE
 10
4.144190016427735
 20
3.155424363745827
 30
0.0
 11
4.144190016427735
 21
3.030424363745827
 31
0.0
  0
LINE
  5
2EB
  8
VISIBLE
 10
4.144190016427735
 20
3.155424363745827
 30
0.0
 11
4.269190016427735
 21
3.155424363745827
 31
0.0
  0
LINE
  5
2EC
  8
VISIBLE
 10
4.269190016427735
 20
3.155424363745827
 30
0.0
 11
4.269190016427735
 21
3.030424363745827
 31
0.0
  0
LINE
  5
2ED
  8
VISIBLE
 10
4.269190016427735
 20
3.030424363745827
 30
0.0
 11
4.394190016427735
 21
3.030424363745827
 31
0.0
  0
LINE
  5
2EE
  8
VISIBLE
 10
4.394190016427735
 20
3.155424363745827
 30
0.0
 11
4.394190016427735
 21
3.030424363745827
 31
0.0
  0
LINE
  5
2EF
  8
VISIBLE
 10
4.394190016427735
 20
3.155424363745827
 30
0.0
 11
4.894190016427735
 21
3.155424363745827
 31
0.0
  0
LINE
  5
2F0
  8
VISIBLE
 10
4.894190016427735
 20
3.155424363745827
 30
0.0
 11
4.894190016427735
 21
3.030424363745827
 31
0.0
  0
LINE
  5
2F1
  8
VISIBLE
 10
4.894190016427735
 20
3.030424363745827
 30
0.0
 11
5.019190016427735
 21
3.030424363745827
 31
0.0
  0
LINE
  5
2F2
  8
VISIBLE
 10
5.019190016427735
 20
3.155424363745827
 30
0.0
 11
5.019190016427735
 21
3.030424363745827
 31
0.0
  0
LINE
  5
2F3
  8
VISIBLE
 10
5.019190016427735
 20
3.155424363745827
 30
0.0
 11
5.144190016427735
 21
3.155424363745827
 31
0.0
  0
LINE
  5
2F4
  8
VISIBLE
 10
5.144190016427735
 20
3.155424363745827
 30
0.0
 11
5.144190016427735
 21
3.030424363745827
 31
0.0
  0
LINE
  5
2F5
  8
VISIBLE
 10
5.144190016427735
 20
3.030424363745827
 30
0.0
 11
5.269190016427735
 21
3.030424363745827
 31
0.0
  0
LINE
  5
2F6
  8
VISIBLE
 10
5.269190016427735
 20
3.155424363745827
 30
0.0
 11
5.269190016427735
 21
3.030424363745827
 31
0.0
  0
LINE
  5
2F7
  8
VISIBLE
 10
5.269190016427735
 20
3.155424363745827
 30
0.0
 11
5.394190016427735
 21
3.155424363745827
 31
0.0
  0
LINE
  5
2F8
  8
VISIBLE
 10
5.394190016427735
 20
3.155424363745827
 30
0.0
 11
5.394190016427735
 21
3.030424363745827
 31
0.0
  0
LINE
  5
2F9
  8
VISIBLE
 10
5.394190016427735
 20
3.030424363745827
 30
0.0
 11
5.519190016427735
 21
3.030424363745827
 31
0.0
  0
LINE
  5
2FA
  8
VISIBLE
 10
5.519190016427735
 20
3.155424363745827
 30
0.0
 11
5.519190016427735
 21
3.030424363745827
 31
0.0
  0
LINE
  5
2FB
  8
VISIBLE
 10
5.519190016427735
 20
3.155424363745827
 30
0.0
 11
5.644190016427735
 21
3.155424363745827
 31
0.0
  0
LINE
  5
2FC
  8
VISIBLE
 10
5.644190016427735
 20
3.155424363745827
 30
0.0
 11
5.644190016427735
 21
3.030424363745827
 31
0.0
  0
LINE
  5
2FD
  8
VISIBLE
 10
5.644190016427735
 20
3.030424363745827
 30
0.0
 11
5.769190016427735
 21
3.030424363745827
 31
0.0
  0
LINE
  5
2FE
  8
VISIBLE
 10
5.769190016427735
 20
3.155424363745827
 30
0.0
 11
5.769190016427735
 21
3.030424363745827
 31
0.0
  0
LINE
  5
2FF
  8
VISIBLE
 10
5.769190016427735
 20
3.155424363745827
 30
0.0
 11
5.894190016427735
 21
3.155424363745827
 31
0.0
  0
LINE
  5
300
  8
VISIBLE
 10
5.894190016427735
 20
3.155424363745827
 30
0.0
 11
5.894190016427735
 21
3.030424363745827
 31
0.0
  0
LINE
  5
301
  8
VISIBLE
 10
5.894190016427735
 20
3.030424363745827
 30
0.0
 11
6.019190016427735
 21
3.030424363745827
 31
0.0
  0
LINE
  5
302
  8
VISIBLE
 10
6.019190016427735
 20
3.030424363745827
 30
0.0
 11
6.019190016427735
 21
2.655424363745827
 31
0.0
  0
LINE
  5
303
  8
VISIBLE
 10
6.019190016427735
 20
2.655424363745827
 30
0.0
 11
5.894190016427735
 21
2.655424363745827
 31
0.0
  0
LINE
  5
304
  8
VISIBLE
 10
5.894190016427735
 20
2.530424363745827
 30
0.0
 11
5.894190016427735
 21
2.655424363745827
 31
0.0
  0
LINE
  5
305
  8
VISIBLE
 10
6.019190016427735
 20
2.530424363745827
 30
0.0
 11
5.894190016427735
 21
2.530424363745827
 31
0.0
  0
LINE
  5
306
  8
VISIBLE
 10
6.019190016427735
 20
2.405424363745827
 30
0.0
 11
5.894190016427735
 21
2.405424363745827
 31
0.0
  0
LINE
  5
307
  8
VISIBLE
 10
5.894190016427735
 20
2.280424363745827
 30
0.0
 11
5.894190016427735
 21
2.405424363745827
 31
0.0
  0
LINE
  5
308
  8
VISIBLE
 10
6.019190016427735
 20
2.280424363745827
 30
0.0
 11
5.894190016427735
 21
2.280424363745827
 31
0.0
  0
LINE
  5
309
  8
VISIBLE
 10
6.019190016427735
 20
2.155424363745827
 30
0.0
 11
5.894190016427735
 21
2.155424363745827
 31
0.0
  0
LINE
  5
30A
  8
VISIBLE
 10
5.894190016427735
 20
2.030424363745827
 30
0.0
 11
5.894190016427735
 21
2.155424363745827
 31
0.0
  0
LINE
  5
30B
  8
VISIBLE
 10
6.019190016427735
 20
2.030424363745827
 30
0.0
 11
5.894190016427735
 21
2.030424363745827
 31
0.0
  0
LINE
  5
30C
  8
VISIBLE
 10
6.019190016427735
 20
1.780424363745827
 30
0.0
 11
5.894190016427735
 21
1.780424363745827
 31
0.0
  0
LINE
  5
30D
  8
VISIBLE
 10
5.894190016427735
 20
1.655424363745827
 30
0.0
 11
5.894190016427735
 21
1.780424363745827
 31
0.0
  0
LINE
  5
30E
  8
VISIBLE
 10
6.019190016427735
 20
1.655424363745827
 30
0.0
 11
5.894190016427735
 21
1.655424363745827
 31
0.0
  0
LINE
  5
30F
  8
VISIBLE
 10
6.019190016427735
 20
1.530424363745827
 30
0.0
 11
5.894190016427735
 21
1.530424363745827
 31
0.0
  0
LINE
  5
310
  8
VISIBLE
 10
3.644190016427735
 20
0.9054243637458268
 30
0.0
 11
3.769190016427735
 21
0.9054243637458268
 31
0.0
  0
LINE
  5
311
  8
VISIBLE
 10
3.894190016427735
 20
0.9054243637458268
 30
0.0
 11
4.019190016427735
 21
0.9054243637458268
 31
0.0
  0
LINE
  5
312
  8
VISIBLE
 10
4.144190016427735
 20
0.9054243637458268
 30
0.0
 11
4.269190016427735
 21
0.9054243637458268
 31
0.0
  0
LINE
  5
313
  8
VISIBLE
 10
4.394190016427735
 20
0.9054243637458268
 30
0.0
 11
4.894190016427735
 21
0.9054243637458268
 31
0.0
  0
LINE
  5
314
  8
VISIBLE
 10
5.019190016427735
 20
0.9054243637458268
 30
0.0
 11
5.144190016427735
 21
0.9054243637458268
 31
0.0
  0
LINE
  5
315
  8
VISIBLE
 10
5.269190016427735
 20
0.9054243637458268
 30
0.0
 11
5.394190016427735
 21
0.9054243637458268
 31
0.0
  0
LINE
  5
316
  8
VISIBLE
 10
5.519190016427735
 20
0.9054243637458268
 30
0.0
 11
5.644190016427735
 21
0.9054243637458268
 31
0.0
  0
LINE
  5
317
  8
VISIBLE
 10
5.769190016427735
 20
0.9054243637458268
 30
0.0
 11
5.894190016427735
 21
0.9054243637458268
 31
0.0
  0
LINE
  5
318
  8
VISIBLE
 10
6.019190016427735
 20
1.155424363745827
 30
0.0
 11
6.019190016427735
 21
1.030424363745827
 31
0.0
  0
LINE
  5
319
  8
VISIBLE
 10
6.019190016427735
 20
2.530424363745827
 30
0.0
 11
6.019190016427735
 21
2.405424363745827
 31
0.0
  0
LINE
  5
31A
  8
VISIBLE
 10
6.019190016427735
 20
2.280424363745827
 30
0.0
 11
6.019190016427735
 21
2.155424363745827
 31
0.0
  0
LINE
  5
31B
  8
VISIBLE
 10
6.019190016427735
 20
2.030424363745827
 30
0.0
 11
6.019190016427735
 21
1.780424363745827
 31
0.0
  0
LINE
  5
31C
  8
VISIBLE
 10
6.019190016427735
 20
1.655424363745827
 30
0.0
 11
6.019190016427735
 21
1.530424363745827
 31
0.0
  0
LINE
  5
31D
  8
VISIBLE
 10
6.019190016427735
 20
1.405424363745827
 30
0.0
 11
6.019190016427735
 21
1.280424363745827
 31
0.0
  0
ENDSEC
  0
EOF
